<?xml version="1.0"?><svg enable-background="new 0 0 792 792" id="Layer_1" version="1.1" viewBox="0 0 792 792" xml:space="preserve" xmlns="http://www.w3.org/2000/svg" xmlns:xlink="http://www.w3.org/1999/xlink"><g><g><path d="M610.7,725.7c-0.4,0-0.9-0.1-1.3-0.2l-5.5-0.9c-4.2-0.6-8.3-1.5-12.5-2.6c-7.1-1.7-14.7-4-24.5-7.5    c-8.8-3.1-17.5-6.8-24.1-9.6c-2.9-1.4-5.8-2.6-8.6-3.9l-3.3-1.5l-5.6-2.6c-0.1-0.1-0.3-0.1-0.4-0.2l-1.7-0.8c0,0-0.9,0-1.2,0    c-7.7,0.4-15.8,0.8-23.8,1.2l-1.9,0.1l-9.4,0.7c-14,1-28.4,2-42.7,2.4c-1.5,0-2.9,0.1-4.3,0.2c-2,0.1-4.1,0.2-6.1,0.2    c-0.9,0-1.9,0-2.8-0.1l-15-0.5c-7.6-0.2-15.4-0.4-23.2-1.5c-4.4-0.6-8.8-1.2-13.2-1.9c-9.7-1.5-18.8-2.9-27.4-2.9    c-1.6,0-3.1,0-4.6,0.1c-0.1,0-0.6,0.1-1.1,0.2c-1.7,0.3-3.1,0.7-4.5,1.2c-5.2,1.8-10.2,4.9-15.4,8.1c-4.6,2.9-9.4,5.9-14.6,8    l-2.6,1.2c-0.3,0.2-1.4,0.8-2.8,0.8c-0.5,0-1.2-0.1-1.7-0.3c-0.4-0.1-0.7-0.3-1-0.5l-0.9-0.5l-1.6-1c-1.2-0.8-2.3-1.5-3.5-2.1    c-2.4-1.4-4.8-2.5-7-3.5l-0.8-0.3c-5.1-2.2-10.2-4-15.1-5.7l-4.3-1.5c-4.3-1.5-8.3-2.8-12-4.2c-1.8,0-3.4-0.2-4.9-0.5    c-4.5-0.8-8.4-2.4-10.9-3.5c-6.3-2.8-11.6-6.1-16.3-8.9c-4.6-2.8-9.3-5.8-13.4-8.1c-0.8-0.5-1.5-0.9-2.2-1.2l-0.1-0.1    c-0.4,0.3-0.7,0.6-1.1,1c-1,0.9-2.2,1.9-3.4,2.9c-0.8,0.7-1.6,1.4-2.5,2.1c-1.2,0.9-2.1,1.5-3,2.1l-0.9,0.7    c-0.2,0.1-0.3,0.2-0.5,0.3c-0.6,0.3-5.3,3-5.3,3c-5,2.9-10.3,6.8-15.9,10.9c-4.1,3.1-8.4,6.2-13,9.3c-2.3,1.7-4.8,3.7-7.4,5.9    c-1.8,1.5-3.6,3-5.4,4.4c-2.7,2.1-5.3,4-8.3,5.7c-3,1.7-7.1,3.6-12.1,3.7c-0.1,0-0.6,0-0.8,0c-3.8,0-7.9-1-11.5-2.7    c-5.1-2.2-10-5.2-14.3-7.8c-1.3-0.9-2.5-1.6-3.8-2.3c-1.4-0.9-2.5-1.6-3.7-2.2c-4.1-2.2-9.3-3.4-14.8-4.6c-2.6-0.6-5.3-1.2-8.1-2    c-4.3-1-8.3-2.8-11.8-5.2c-3.1-2.1-5.6-5.3-7.4-9.5c-1.4-3.4-2-6.8-2.4-9.4c-0.4-2.4-0.6-4.8-0.9-7.2c-0.2-2.1-0.4-4.2-0.7-6.2    l-0.5-2.4c-0.7-3.4-1.3-6.9-2.2-10.3c-1.3-5.4-2.7-10.7-4.2-16.1c-3.4-12.4-6.8-25.2-8.3-38.7l-0.1-1.4c-0.4-4.3-0.8-8.8-0.4-13.6    c0-5,1.1-9.7,2.2-14.2l0.2-0.9c2.8-10,6.9-19.1,10.5-26.9c1.5-3.2,3-6.3,4.5-9.4c1.2-2.4,2.3-4.8,3.5-7.2c1.3-2.6,2.5-5.2,3.7-7.7    c2-4.5,3.9-9.3,5.8-13.9c1.4-3.5,2.7-6.9,4.2-10.3c6-14.7,12.2-30.4,14.9-45.9c0.5-3.6,1-7.2,1.3-11c0.2-1.4,0.3-2.7,0.4-4    c0.2-2.6,0.4-5.4,1-8.2c1.1-7.8,3.6-15.7,7.4-22.6c4.2-6.7,9-12.3,14.4-16.9c3.1-2.9,6.3-5.5,9.5-8c1.5-1.2,3-2.4,4.5-3.6    l19.1-14.9c0.4-0.3,0.6-0.4,0.7-0.6l3.4-2.6c4.5-3.5,8.5-7,11.7-9.9l1.4-1.3c0.9-0.8,2.1-1.2,3.3-1.2c0.4,0,0.8,0,1.2,0.2    c0.3,0.1,0.6,0.1,0.9,0.2c0.2,0.1,0.6,0.1,0.6,0.1l1.1,0.3c3,0.9,6.5,1.9,10.3,3.3c0.1-1.1,0.1-2.2,0.2-3.3    c0.2-4.2,0.2-8.7,0.3-13.3c0.1-7.7,0.3-15.7,0.8-24.3c0.1-2.5,0.4-5.1,0.7-7.7l0.3-3c0.3-1.5,0.4-2.6,0.6-3.8    c0.4-2.6,0.8-5.2,1.6-8l1.5-5.5c0.6-1.7,1.1-2.9,1.7-4.2c0.3-0.7,0.6-1.3,0.9-2c0.1-0.2,0.2-0.5,0.4-0.7c1.1-1.8,2.2-3.5,3.4-5.3    c0.1-0.2,0.3-0.4,0.4-0.5c0.5-0.5,0.9-1.1,1.4-1.6c0.9-1.1,1.8-2.2,2.8-3.2c3.3-3.3,6.8-6.3,10.3-9.2c2.8-2.4,5.4-4.6,7.9-7    c5.3-5.4,11.1-11.5,16.3-18c2.5-2.9,4.9-6,7.8-9.9c3-3.9,5.4-7.2,7.4-10.4c4.5-6.5,9-13.5,14.2-22.2c0,0,1.3-2.2,1.6-2.7    c1-1.7,1.9-3.2,2.7-4.7c2.9-4.9,5.6-9.6,8.3-14.3l0.8-1.4c0.6-1.1,1.2-2.2,1.8-3.3c3.8-6.7,7.4-13.5,11.3-20.9    c2.4-4.2,4.7-8.5,7.7-12.6c3.4-5.2,7.5-9.2,12.2-11.8c5.1-2.7,10.3-4.1,14.7-5.1c2.7-0.6,5.3-1.2,7.9-1.7c1.8-0.4,3.7-0.7,5.5-1.1    c2.9-0.6,5.8-1.5,8.9-2.4l3.6-1.1c2.5-0.8,5.1-1.6,7.7-2.5c1.6-0.5,5.3-1.8,5.3-1.8c8.2-2.7,16.2-5.4,24.2-8.1    c14.8-4.8,32.1-10.1,49.2-12.5l3-0.4c0,0,1.4-0.2,1.5-0.3c0.5-0.7,1.2-1.2,2.1-1.6c0.6-0.3,1.3-0.4,1.9-0.4c1.7,0,3.4,0.9,4.3,2.4    l3.3,5.4c1.1,1.9,5.8,9.7,5.8,9.7c3.7,6.3,7.4,12.5,10.9,18.3c7.5,12.4,14.3,22.2,20.6,30.1c6.1,7.6,12.6,14.3,19.2,19.9    c0.9,0.8,1.8,1.5,2.7,2.2c6.3-5.4,13.2-12.1,20.5-19.8l8.1-8.5c1.4-1.5,2.8-2.9,4.2-4.4c0,0,3.9-4.1,4-4.1c1.4-1.5,2.9-1.8,4-1.8    l2.3,0.2c1.9,0.2,3.6,0.3,5.5,0.5c7.2,0.6,14.6,1.2,22.2,2.9c7.2,1.1,14.6,3,22.4,5.1c2.1,0.6,4.3,1.1,6.5,1.7    c10.7,3.3,20.1,6.2,30.1,8.7c5.4,1.5,11.1,3.2,16.8,5.8c2.6,1.2,5.2,2.9,7.4,4.5l0.7,0.5c0.2,0.1,0.4,0.3,0.6,0.5l4.9,4.6    c0.3,0.3,0.5,0.5,0.7,0.8l1.2,1.8l0.5,0.7c1.6,2.3,3.5,4.8,4.7,7.9l0.9,1.9c1,2.1,2,4.3,2.7,6.7c1.8,5.4,3.6,10.9,5.5,16.5    c0,0,3.7,13.5,4.8,17.5c1,3.9,1.9,7.7,2.8,11.6c0.5,2,0.9,4.1,1.4,6.2c2.7,12.3,5.1,24.7,7.2,36.3l1.9,10.2    c3.9,20.6,7.9,41.9,13.8,61.9c3.3,10.3,9,19.8,15.1,29.8c7,11.5,14.2,23.3,17.9,37.2l1.2,4.7c0.1,0.2,0.1,0.4,0.1,0.7l1.8,13.9    c0.5,5.9,0.6,11.6,0.7,17.2l0,1.8c-0.3,7.7-0.9,14.2-1.6,20.4c-0.2,2.3-0.6,4.8-0.9,7.2c-0.6,3.5-1.1,6.4-1.7,9.4l-0.1,0.6    c-0.5,2.7-1,5.4-1.6,8.1l-2,8.6c-1.3,5.7-2.9,11.4-4.3,16.8l-0.6,2.3c-2.7,9.9-5.5,20.2-8.9,29.9c-1.7,3.9-2.8,7.6-3.4,11.4    c-0.3,2.3-0.5,4.9-0.5,7.8c0.1,7.4,1.6,15,3.1,22.4c1,4.9,2,9.9,2.5,14.8c1,11,1.6,22.2,1.7,34.5c0,2.6,0,5.2,0,7.8    c0,0.9-0.2,1.8-0.7,2.6c-0.6,1-1.2,1.9-1.7,2.9l-1.2,2.1c-1.1,1.9-2.3,3.9-3.7,6c-0.9,1.5-2,2.9-3.1,4.3c-1,1.3-2,2.6-3.1,3.9    c-2,2.6-4.1,5.2-6.2,7.8l-5.9,7c-0.4,0.5-0.6,0.8-0.9,1l-2.9,3.4c-0.4,0.5-1.2,1.1-1.8,1.4c-0.2,0.1-0.5,0.2-0.8,0.3l-2.3,0.7    c-1.9,0.6-3.8,1.2-5.8,1.8c-5.7,1.8-11.8,3.6-18.2,5.3l-8.4,2.3l-2-4.6l1.4,4.8c-0.2,0.1-0.4,0.1-0.6,0.2    c-0.2,0.1-1.1,0.8-1.1,0.8c-0.5,0.4-1,0.7-1.5,1c-1.1,0.8-2.6,1.8-4.1,2.8c-1.5,1-3,2-4.4,3c-0.1,0.1-0.3,0.2-0.5,0.3    c-1.5,0.8-7.1,4-7.1,4c-2.5,1.4-5,2.8-7.5,4.1l-3.8,1.9c-5.6,2.8-11.4,5.6-17.6,8.1c-1.3,0.5-2.6,1.1-3.9,1.7l-1.9,0.8    C612.7,725.5,611.7,725.7,610.7,725.7z"/><g><path d="M546.9,300.3c0.2,2.9,0.4,4.4,0.4,4.4s-0.2,1.6-0.4,4.5c-0.1,1.9-0.4,4.5-0.8,7.6     c-3.8-2.2-8.2-4.3-13.3-5.9c-5.4-1.7-11.5-3.3-18-4c-6.5-0.9-13.5-1-20.6-0.5c-1.7,0.2-3.6,0.3-5.4,0.4c-1.8,0.3-3.6,0.6-5.4,0.8     c-3.6,0.6-7.3,1.4-10.9,2.4l-5.5,1.5l-5.3,1.9c-1.8,0.6-3.6,1.4-5.3,2.1l-2,0.8c0,0,0,0-0.1-0.1c-0.4-3.8-0.6-7.7-0.6-11.6     c0-12.2,1.8-24.4,5.5-35.8c2-5.6,4.2-11.1,7.3-16.1c3-4.9,6.4-9.6,10.5-13.3c4.1-3.7,8.8-6.6,13.8-8.2c5-1.7,10.3-1.6,15.1-0.5     c4.9,1,9.3,3.3,13.1,6.3c3.9,2.8,7,6.4,9.8,9.9c10.9,14.7,14.6,30.2,16.7,40.8C546.2,293.1,546.8,297.4,546.9,300.3z" fill="#FFFFFF"/><path d="M739.1,477c-0.4,2.6-0.9,5.2-1.4,7.7c-0.6,2.8-1.3,5.7-1.9,8.4c-1.2,5.6-2.7,11.1-4.1,16.5     c-2.9,10.9-5.6,21.5-9.1,31.7c-0.8,2.6-1.5,5.2-2.3,7.8c-0.2,0.5-0.3,1.2-0.4,1.7c-1-1.3-2.1-2.5-3.2-3.8     c-0.9-1.2-1.9-2.2-2.8-3.3c-1-1-1.9-2.1-2.8-3.2c-1.8-2.1-3.5-4.2-5.3-6c-0.7-0.8-1.4-1.5-2-2.1c2.7-4.5,5.4-8.8,8.1-13.2     c5.5-8.9,10.8-17.7,16.2-25.9C731.6,487.7,735.3,482.2,739.1,477z" fill="#636772"/><path d="M726.6,639.7c-0.8,1.3-1.7,2.7-2.6,4.1c-1.5,2.4-3.2,5-4.9,7.4c-0.8,1.2-1.8,2.4-2.8,3.7     c-1,1.2-2,2.5-3,3.8c-2,2.5-4.1,5.1-6.2,7.7c-2.1,2.6-4.1,5.2-6.2,7.8c-1,1.2-2,2.5-3,3.8c-0.2,0.4-0.5,0.7-0.8,1     c-7.1,1.9-14.7,4-22.8,6c-2.6,0.7-5.1,1.3-7.7,2c-0.4-3.1-0.8-6.3-1.3-9.7c-0.2-1.6-0.5-3.3-0.7-5.1c-0.3-1.7-0.5-3.5-0.8-5.2     c-0.5-3.5-1-7-1.4-10.6c-0.4-3.5-0.8-7-1.2-10.6c-0.1-1.7-0.3-3.5-0.5-5.2c-0.2-1.7-0.4-3.4-0.6-5.1c-0.4-3.4-0.7-6.6-1.3-9.7     c-0.4-3.2-1-6-1.8-8.7c-0.3-1.2-0.6-2.4-1-3.6l0.9-0.8c0.5-0.6,0.9-1.3,1.4-1.9l2.6-4c2.7-5.4,4.9-11,7.5-16     c2.4-5,5.9-9.9,8.8-14.8c8.2-13.5,16.2-26.6,24.1-39.4c0.3,0.4,0.6,0.8,1,1.2c1.7,1.9,3.3,4,5,6.1c0.9,1.1,1.8,2.2,2.6,3.3     c0.9,1.1,1.8,2.2,2.7,3.3c1.8,2.2,3.8,4.4,5.5,6.7c0.1,0.2,0.3,0.4,0.4,0.7c-0.4,5.2-0.2,10.4,0.6,15.3     c1.3,10.2,3.9,19.7,5.2,28.8C725.7,615.3,726.3,627.9,726.6,639.7z" fill="#A3A8B2"/><path d="M662,687.6c0,0.2,0.1,0.6,0.1,0.8l-0.8,0.6l-2.1,1.4c-1.4,1-2.8,1.9-4.3,2.9c-1.4,0.9-2.9,1.9-4.4,2.8     c-1.6,0.9-3.1,1.7-4.6,2.6c-3.2,1.7-6.3,3.6-9.6,5.2c-6.7,3.2-13.5,6.6-20.8,9.5c-1.6,0.6-3.1,1.3-4.8,2     c-0.2-0.3-0.4-0.6-0.6-0.9c-1.5-2.2-3.2-4.4-5-6.8c-1.8-2.4-3.6-4.9-5.5-7.6c-0.9-1.3-1.7-2.7-2.6-4.1c-0.9-1.3-1.8-2.8-2.6-4.2     c-0.8-1.5-1.6-2.9-2.3-4.4c-0.8-1.5-1.3-3.1-2-4.6c-1.3-3-2.3-6.4-3.6-9.6c-0.6-1.6-1.2-3.2-1.7-4.8c-0.5-1.5-1-3.1-1.4-4.7     c-1-3.1-1.9-6.1-2.7-8.9c-0.6-2.9-1.2-5.6-2-8.1c0-0.1-0.1-0.3-0.1-0.5c6.8,0.2,13-2.1,18.5-4.7c11.3-5.3,21.3-12.9,31.8-17.4     c5.3-1.7,11.5-2.9,17.3-5c1.5-0.5,2.9-1.2,4.4-1.9c0.6-0.4,1.2-0.7,1.8-1.1c0.2,0.6,0.2,1.2,0.3,1.8c0.5,2.6,0.9,5.4,1.2,8.5     c0.4,3,0.6,6.2,1,9.6c0.1,1.6,0.2,3.4,0.4,5.1c0.2,1.7,0.3,3.5,0.5,5.2c0.2,3.6,0.6,7.2,1.1,10.8c0.6,3.6,1,7.2,1.7,10.7     c0.4,1.7,0.6,3.5,1,5.2c0.3,1.8,0.6,3.4,0.9,5C661,681.5,661.6,684.6,662,687.6z" fill="#8D919C"/><path d="M601.7,710.4c1.3,1.6,2.6,3,3.7,4.5c-3.9-0.5-7.7-1.5-11.6-2.5c-7.8-2-15.6-4.5-23.5-7.4     c-7.8-2.8-15.6-6.1-23.5-9.5c-3.9-1.8-7.8-3.5-11.7-5.3l-5.8-2.8l-1.6-0.8c0-1.4,0.2-2.9,0.3-4.3c0-1.6,0.1-3.3,0.2-5     c0-1.6,0.1-3.3,0.2-5c0.2-3.3,0.4-6.8,0.5-10.2c0.1-3.4,0.2-6.9,0.4-10.3c0-1.7,0-3.4,0.1-5.1c0-1.6,0.1-3.3,0.1-4.9     c0-3.2,0.1-6.4,0.2-9.4c0-3,0.1-5.8,0-8.4c0-0.6,0-1.2,0-1.8c5.3,0.9,10.3,3.2,15,6.5c4.9,3.2,9.6,7.2,15,10.6     c4.3,2.8,9.1,5.2,14.4,6.3c0.1,0.6,0.2,1.2,0.3,1.9c0.4,2.6,0.9,5.4,1.5,8.4c0.7,3,1.6,6,2.5,9.2c0.4,1.6,0.8,3.2,1.4,4.8     c0.5,1.6,1.1,3.2,1.6,4.8c1.2,3.3,2.2,6.6,3.6,9.9c0.8,1.6,1.3,3.3,2.2,4.9c0.8,1.6,1.7,3.1,2.6,4.7c0.8,1.6,1.9,2.9,2.8,4.4     c1,1.4,1.9,2.8,3,4.1C597.9,705.6,599.8,708.1,601.7,710.4z" fill="#636772"/><path d="M545.5,319.8c-0.1,0.7-0.2,1.3-0.3,2c-2.1,10.5-5.8,26-16.8,40.7c-2.8,3.5-5.9,7-9.8,9.9     c-3.7,2.9-8.2,5.2-13,6.3c-4.8,1.1-10.1,1.2-15-0.5c-4.9-1.6-9.6-4.5-13.7-8.2c-4.1-3.6-7.5-8.3-10.5-13.3     c-3-4.9-5.2-10.4-7.3-16c-2-6-3.4-12.2-4.3-18.6c0.2-0.1,0.3-0.1,0.4-0.2l3.1-1.4c1.6-0.7,3.3-1.5,5-2l5.1-1.8l5.2-1.6     c3.4-0.9,6.9-1.8,10.4-2.4c1.8-0.2,3.5-0.6,5.2-0.8c1.8-0.2,3.5-0.3,5.1-0.6c6.9-0.6,13.5-0.6,19.8,0.1     c6.3,0.5,12.1,1.9,17.4,3.3C536.9,316,541.5,317.9,545.5,319.8z" fill="#B9B9C3"/><path d="M525.9,621.8c-0.1,0.6-0.2,1.4-0.2,2c-0.2,2.6-0.4,5.4-0.5,8.3c-0.2,2.9-0.4,6.1-0.5,9.3     c-0.1,1.6-0.1,3.2-0.2,4.9c0,1.6-0.2,3.3-0.2,5c-0.2,3.4-0.2,6.8-0.4,10.3c-0.1,3.5-0.3,7-0.3,10.4c0,1.7-0.1,3.4-0.1,5.1     c0,1.6,0,3.3,0,4.9c0,1.1,0,2.3,0,3.5l-1.4,0.1c-8.7,0.4-17.4,0.8-26.2,1.2c-17.4,1.2-34.8,2.6-51.8,3.3     c-4.2,0.1-8.5,0.6-12.7,0.4c-4.2-0.1-8.4-0.2-12.6-0.3c-8.3-0.2-16.6-0.3-24.6-1.3c-16.1-1.8-31.6-5.4-47.3-4.2     c-1.6,0.2-3.1,0.5-4.6,1c-0.4-0.4-0.8-0.9-1.2-1.4c-1-1.1-1.9-2.2-2.9-3.3c-1-1.1-1.9-2.4-2.8-3.5c-1.8-2.4-3.8-4.8-5.7-7.3     c-1.7-2.5-3.4-5-5.1-7.6c-0.8-1.2-1.8-2.5-2.5-3.7c-0.7-1.3-1.4-2.6-2.1-3.8c-1.3-2.5-2.9-4.9-3.9-7.3c-0.6-1.6-1.2-3-1.8-4.4     c4.1-0.7,8.4-1.4,12.7-2.2c9.7-1.6,19.8-3.4,30.3-4.9c20.8-3.2,42.8-5.9,65.7-7.9c11.4-0.7,23.1-1.4,34.9-2.2     c11.8-0.8,23.8-1.6,35.9-2.4c6-0.4,12-0.8,18.1-1.2l9-0.6l4.5-0.3C525.2,621.8,525.6,621.8,525.9,621.8z" fill="#585C66"/><path d="M448.7,287.8c0.2,0.8,0.3,1.6,0.4,2.3c-0.6,4.8-0.9,9.7-1,14.6c0,2.9,0.1,5.8,0.4,8.8     c-5.3-2.5-10.9-4.3-16.5-5.7c-3.8-0.6-7.5-1.5-11.2-1.6c-3.7-0.4-7.4-0.2-11-0.2c-7.2,0.6-14.1,1.6-20.4,3.3     c-6.3,1.6-12.2,3.6-17.5,5.7c-5.1,2-9.8,4.1-13.9,6c-0.8-5.4-1.2-10.8-1.2-16.3c0-12.2,1.9-24.4,5.6-35.8     c2-5.6,4.2-11.1,7.3-16.1c3-4.9,6.3-9.6,10.5-13.3c4.1-3.7,8.8-6.6,13.8-8.2c5-1.7,10.2-1.6,15.1-0.5c4.9,1,9.4,3.3,13.1,6.3     c3.9,2.8,7,6.4,9.9,9.9C443,261.8,446.7,277.3,448.7,287.8z" fill="#FFFFFF"/><path d="M449,319.7c-0.2,0.6-0.2,1.4-0.4,2.1c-2,10.5-5.8,26-16.7,40.7c-2.8,3.5-5.9,7-9.8,9.9     c-3.7,2.9-8.2,5.2-13,6.3c-4.8,1.1-10.1,1.2-15-0.5c-5-1.6-9.6-4.5-13.7-8.2c-4.2-3.6-7.5-8.3-10.5-13.3     c-3.1-4.9-5.3-10.4-7.3-16c-1.7-5.3-3-10.8-4-16.3c4.4-1.6,9.4-3.3,14.8-5.2c5.3-1.7,11-3.6,17.2-5c6.1-1.6,12.7-2.4,19.5-2.8     c3.4,0,6.9-0.1,10.3,0.3c3.5,0.1,6.9,1,10.4,1.5C437,314.5,443.2,316.6,449,319.7z" fill="#B9B9C3"/><path d="M334.3,684.3c1,1.1,2,2.2,3,3.2c-4.1,1.6-7.9,3.8-11.4,6c-6.1,3.7-11.6,7.5-17.4,10.1     c-2,0.8-1.4,1.2-2.5,0.4c-1.4-0.9-2.7-1.7-4.2-2.4c-2.8-1.6-5.7-2.7-8.5-3.9c-5.6-2.3-11-4-16.1-5.6c-4.7-1.4-9.2-2.7-13.3-4     c0.7-0.2,1.5-0.5,2.2-0.8c7.1-3.6,13-9.2,19-15.2c5.9-6,11.8-12.6,18-19.3c1.6-1.6,3.2-3.3,4.8-5l2-1.9c0.4,1.2,0.9,2.6,1.4,3.8     c1,2.6,2.5,5.1,3.8,7.7c0.7,1.4,1.4,2.7,2.1,4.1c0.7,1.3,1.6,2.6,2.5,3.9c1.7,2.6,3.5,5.2,5.3,7.9c2,2.4,4,4.9,6,7.3     C332.3,682,333.2,683.2,334.3,684.3z" fill="#8D919C"/><path d="M231.7,527.9c1,5.9,1.1,12.1,1.1,18.2c-0.2,6.1-0.8,12.1-1.6,18.1c-0.8,6-1.8,11.9-2.9,17.7     c-2,11.6-4.2,22.9-5.4,33.8c-1.1,10.9-1.3,21.4,0.3,31c0.3,1.2,0.5,2.4,0.7,3.5c0.1,0.7,0.2,0.8,0.1,1c-2.5,2.1-5.3,4.6-8.6,7.5     c-2.1,1.7-4.3,3.6-6.8,5.6c-0.2,0.2-0.3,0.3-0.5,0.4c-0.9,0.8-1.9,1.7-3,2.5c-1.8,1.6-3.9,3.1-5.9,4.7c-1.1,0.7-2,1.4-3.1,2     c-1.2,0.6-2.5,1.3-3.7,1.9c-0.1,0-0.2,0.1-0.3,0.2c-4.5-8.9-13-19.8-25-30.2c-6.6-5.8-14.2-11.5-22.5-17.1     c-2.1-1.4-4.2-2.8-6.3-4.2l-1-0.7l-1.1-0.7c0-0.1,0.1-0.2,0.1-0.3l0.3-1.7l0.1-0.3c0.6-2.5,0.7-5.3,1-8.1     c0.2-2.7,0.2-5.3,0.3-8.1c0.1-5.4,0.3-10.9,0.4-16.5c0.1-5.6,0.3-11.2,0.4-16.9c0.3-11.4,0.5-23,0.8-34.6     c-0.2-11.5-0.5-23.2-0.7-34.6c-0.1-1.3-0.1-2.6-0.1-3.9c0-0.7-0.1-1.5-0.1-2.3c-0.1-3.6-0.2-7.2-0.2-10.7     c-0.1-5.6-0.3-11.1-0.4-16.6c-0.3-10.9-1.3-21.4-1.9-31.2c-0.7-9.9-0.8-19.2-0.2-27.7c1-17,8.3-30,10.5-40.1     c0.6-2.6,0.9-4.9,1.1-6.9c1.5-1.4,3-2.7,4.4-3.9c4.8-4.2,8.7-8,11.5-11c0.1,0,0.2-0.2,0.2-0.2c0.5,0.2,0.9,0.3,1.3,0.5     c5,1.9,11.2,4.2,17.7,7.7c0.1,0,0.2,0.1,0.3,0.2c0.6,0.3,1.2,0.7,1.8,1c2.6,1.6,5.3,3.4,7.1,6c2.4,3.2,4.1,7.2,5.4,11.6     c2.7,8.8,4,18.9,5.9,29.7c0.8,5.4,2.3,11,3.5,16.5c1.2,5.5,2.5,11.2,3.8,16.9c1.3,5.7,2.6,11.6,4,17.5c1.4,5.9,2.8,11.9,4.2,17.9     c2.9,12.1,5.9,24.4,8.9,36.6l2.3,9.2l1.1,4.6L231.7,527.9z M224.2,565.8c0,0-0.1-0.2-0.2-0.6c-0.2-0.4-0.5-1-0.8-1.8     c-0.8-1.5-1.9-3.8-3.9-5.9c-0.9-1.1-2.1-2.2-3.2-3.4c-1.2-1.1-2.5-2.2-3.9-3.4c-0.7-0.6-1.4-1.2-2.1-1.8     c-0.7-0.6-1.5-1.1-2.2-1.7c-1.5-1.1-3.1-2.2-4.7-3.3c-1.6-1-3.2-2-4.8-3c-0.8-0.4-1.6-1-2.4-1.4c-0.8-0.4-1.6-0.9-2.4-1.3     c-1.6-0.8-3.1-1.6-4.6-2.3c-1.5-0.7-2.9-1.4-4.2-1.9c-2.7-1.1-5.1-1.6-6.8-1.8c-1.7-0.2-2.7-0.2-2.7-0.2s0.7,0.8,2,1.8     c1.3,1.1,3.2,2.4,5.6,4c1.1,0.8,2.5,1.4,3.9,2.2c1.3,0.8,2.8,1.7,4.3,2.6c0.8,0.4,1.5,0.9,2.3,1.3c0.8,0.5,1.5,0.9,2.3,1.4     c1.5,1,3.1,2,4.7,2.9c1.5,1,3.1,2,4.6,3.1c0.7,0.5,1.5,0.9,2.2,1.5c0.8,0.6,1.4,1,2.1,1.5c1.4,1.1,2.7,2,4,3c1.2,1,2.3,2,3.4,2.8     c2.2,1.6,3.8,3.2,5.3,4.2c0.7,0.5,1.2,0.9,1.6,1.2C224,565.7,224.2,565.8,224.2,565.8z M219.2,580.8c-0.1-0.1-0.2-0.4-0.5-0.7     c-0.3-0.4-0.8-1.1-1.4-2c-1.3-1.7-3.2-4-5.7-6.7c-1.2-1.3-2.6-2.7-4.1-4.2c-1.4-1.4-3-2.9-4.6-4.5c-0.8-0.8-1.6-1.6-2.5-2.4     c-0.8-0.8-1.7-1.6-2.6-2.4c-1.8-1.6-3.6-3.2-5.4-4.8c-1.9-1.5-3.8-3-5.7-4.5c-1-0.7-1.9-1.5-2.8-2.2c-0.9-0.7-1.9-1.3-2.9-2     c-1.9-1.2-3.7-2.5-5.5-3.6c-1.8-1-3.6-2-5.2-2.8c-3.2-1.8-6.3-2.4-8.4-3c-2.1-0.5-3.3-0.6-3.3-0.6s0.9,0.9,2.6,2.2     c1.6,1.4,4.2,2.8,7.1,5c1.4,1.1,3,2,4.7,3.2c1.7,1.1,3.3,2.5,5.1,3.8c0.9,0.6,1.8,1.3,2.7,2c0.9,0.7,1.8,1.4,2.7,2.2     c1.8,1.4,3.6,2.9,5.5,4.4c1.8,1.5,3.7,3,5.5,4.6c0.9,0.7,1.7,1.5,2.6,2.2c0.9,0.8,1.7,1.5,2.6,2.2c1.7,1.5,3.3,2.9,4.9,4.2     c1.5,1.3,3,2.6,4.4,3.7c2.8,2.3,5.3,4,7.1,5.1c0.9,0.5,1.6,0.9,2.1,1.2C218.8,580.7,219.1,580.8,219.2,580.8z M217.7,531.8     c0.4,0,0.7,0,0.7,0s-0.2-0.1-0.5-0.4c-0.4-0.2-1-0.5-1.6-0.9c-1.4-0.8-3.5-1.8-6.1-2.8c-1.3-0.5-2.7-0.9-4.2-1.4     c-1.5-0.5-3.1-0.8-4.8-1.2c-0.8-0.3-1.7-0.4-2.5-0.7c-0.8-0.2-1.7-0.4-2.6-0.6c-1.7-0.4-3.5-0.8-5.3-1.2     c-1.7-0.4-3.5-0.8-5.2-1.2c-0.9-0.2-1.7-0.4-2.6-0.6c-0.9-0.2-1.7-0.3-2.5-0.5c-1.6-0.4-3.3-0.6-4.8-1c-1.5-0.4-2.9-0.8-4.2-1     c-2.6-0.6-4.9-0.7-6.6-0.7c-1.7,0-2.7,0.1-2.7,0.1s0.7,0.6,2.1,1.6c1.4,0.9,3.4,2,6,3c1.3,0.6,2.7,1,4.2,1.6     c1.5,0.5,3.1,0.9,4.8,1.3c0.8,0.2,1.6,0.4,2.5,0.6c0.8,0.2,1.7,0.4,2.6,0.6c1.7,0.4,3.5,0.8,5.3,1.2c1.8,0.4,3.6,0.7,5.3,1     c0.8,0.2,1.7,0.3,2.6,0.5c0.9,0.1,1.7,0.3,2.6,0.4c1.6,0.3,3.3,0.5,4.8,0.8c1.5,0.3,2.9,0.6,4.3,0.8c2.7,0.4,5,0.6,6.6,0.6     C216.6,531.8,217.2,531.8,217.7,531.8z" fill="#B9B9C3"/><path d="M164.4,648.6c12,9.9,20.8,19.9,25.9,28.2c-9.6,5.1-19,12.8-29.9,19.8c-4.7,3.2-8.9,7-13.5,10.5     c-4.5,3.3-9.7,7.1-15.1,7.3l-0.2,0c-2.2,0-5.1-0.6-8-2c-5.1-2.2-9.9-5.4-15.1-8.6c0-0.8,0.1-1.8,0.1-2.6     c0.2-3.3,0.6-6.8,0.9-10.4c0.2-1.7,0.4-3.6,0.6-5.4c0.2-1.8,0.5-3.7,0.8-5.5c0.5-3.7,1.3-7.4,2.1-11.2c0.9-3.6,1.8-7.4,3-10.9     c0.6-1.7,1.1-3.6,1.8-5.2c0.7-1.6,1.4-3.3,2.1-4.9c1.6-3.1,3-6.2,4.8-8.9c0.9-1.3,1.7-2.6,2.6-3.9c0.9-1.2,1.9-2.3,2.7-3.4     c1.2-1.6,2.4-3.1,3.6-4.3c0.5,0.3,1.1,0.7,1.7,1c2.1,1.4,4.2,2.7,6.3,4C150.3,637.6,157.8,643.1,164.4,648.6z" fill="#8D919C"/><path d="M145.9,363.7c-0.4,1.6-0.8,3.4-1.5,5.3c-1.6,4.7-4.1,10.3-6.9,16.8c-2.7,6.5-5.3,14.5-6,23.3     c-0.9,8.8-0.9,18.3-0.3,28.3c0.5,10,1.4,20.4,1.6,31.2c0.1,5.5,0.2,10.9,0.3,16.5c0,4,0.1,8.1,0.2,12.2c-2.5,0.8-5.4,1.7-8.6,2.7     c-3,1.1-6.4,2.2-9.9,3.3c-3.5,1.2-7.2,2.6-11.1,4c-1.9,0.7-3.8,1.4-5.8,2.2c-1.9,0.8-3.9,1.5-5.9,2.3c-4,1.5-8,3.2-12,5     c-3.5,1.5-7,3.2-10.5,4.8c0.3-0.6,0.6-1.3,0.9-1.9c3.7-8.4,6.6-16.5,9.9-24.6c6.5-16.1,12.5-32.1,15.2-48.1c0.5-4,0.9-8,1.3-11.9     c0.4-3.7,0.4-7.6,1.1-11.1c0.9-7.2,3-13.9,6.1-19.8c6.7-11.5,17.2-19.3,25.5-26.7C135.5,372.4,141,367.8,145.9,363.7z" fill="#8D919C"/><path d="M134,536.6c-0.2,11.6-0.4,23.1-0.6,34.5c-0.1,5.7-0.2,11.3-0.3,16.9c-0.1,5.6-0.2,11.1-0.2,16.5     c-0.1,5.5,0,10.6-1,15.6l-0.3,1.9l-0.3,1.7l-0.1,0.9c-0.1,0.2-0.1,0.3-0.1,0.4c-1.3,1.1-2.6,2.2-3.8,3.6c-1,1.1-2.1,2.2-3.1,3.4     c-0.9,1.4-1.9,2.7-2.9,4.1c-2.1,2.8-3.7,6-5.5,9.3c-0.7,1.7-1.5,3.5-2.3,5.2c-0.8,1.7-1.3,3.6-2,5.4c-1.4,3.7-2.2,7.5-3.3,11.4     c-0.7,3.9-1.5,7.7-2,11.6c-0.2,2-0.5,3.8-0.7,5.7c-0.2,1.9-0.3,3.7-0.5,5.6c-0.2,3.6-0.4,7.2-0.5,10.6c0,0.1,0,0.2,0,0.3     c-0.5-0.3-1.1-0.7-1.7-1c-7.9-4.2-16.7-5.3-24.8-7.6c-3.3-0.9-6.2-2.2-8.7-3.8l-0.1-0.1h0c-3.4-2.3-4.8-7.4-5.5-12.4     c-0.6-4.2-0.8-8.7-1.5-13.3c-0.8-4.5-1.6-9.1-2.7-13.5C55.1,631.6,49,614,47.2,596c-0.4-4.5-0.8-9-0.4-13.4     c-0.1-4.4,1-8.7,2-13.1c2.4-8.6,6.1-16.9,9.9-25.1c2.4-5.1,4.9-10.3,7.3-15.4c1.3-0.7,2.8-1.3,4.2-2c3.8-1.7,7.7-3.6,11.7-5.2     c3.9-1.7,7.9-3.4,11.8-5c2-0.8,3.9-1.5,5.8-2.3c1.9-0.8,3.8-1.5,5.7-2.3c3.7-1.4,7.4-2.9,10.8-4.2c3.5-1.3,6.8-2.5,9.8-3.8     c2.7-1.1,5.1-2.2,7.3-3.3c0,0.4,0,0.8,0,1.3C133.5,513.5,133.8,525,134,536.6z" fill="#636772"/><path d="M742.4,423.2c0.6,6,0.6,12,0.7,17.9c-0.3,9.2-1.1,18.4-2.5,27.3c-5.4,7-10.6,14.8-16.1,22.6     c-5.6,8.2-11,17.1-16.6,26c-2.5,4-5,8.1-7.5,12.2c-0.8,1.2-1.5,2.4-2.3,3.7c-8.1,13.1-16.5,26.6-25.1,40.5c-2.9,5-6.2,9.5-9,15     c-2.8,5.4-5,10.8-7.6,15.9l-2.2,3.5c-0.1,0.2-0.2,0.3-0.4,0.5c-0.3,0.4-0.5,0.8-0.8,1.1l-1.4,1.2c0,0.1-0.1,0.1-0.2,0.2     c-0.9,0.8-2,1.3-3.1,2c-1.2,0.5-2.4,1.1-3.8,1.6c-5.4,2-11.1,3-17.3,4.9c-11.8,5-21.4,12.4-32.2,17.4c-5.3,2.6-11,4.5-16.4,4.2     c-0.4,0-0.8-0.1-1.2-0.2c-1.1-0.1-2.1-0.4-3.2-0.7c-3.9-1-7.7-2.9-11.2-5.2c-5-3.2-9.7-7.1-14.9-10.6c-5.2-3.6-11.3-6.4-17.9-7.4     c-0.1,0-0.2,0-0.3,0c-1-0.2-2-0.2-3-0.2c-0.6,0-1.1,0-1.6,0l-4.6,0.3l-9.1,0.6c-6.1,0.4-12.2,0.8-18.2,1.2     c-12,0.8-23.9,1.7-35.7,2.5c-11.9,0.8-23.6,1.6-35.1,2.4c-23,2-45.1,4.9-66,8.2c-10.5,1.5-20.6,3.4-30.3,5.1     c-4.7,0.8-9.3,1.6-13.9,2.4c-0.3,0.1-0.6,0.2-1,0.2c-0.5,0.1-0.8,0.6-1.2,0.9l-0.7,0.6l-0.5,0.4l-0.9,0.8l-2.6,2.5     c-1.6,1.7-3.2,3.4-4.8,5.1c-6.2,6.8-11.9,13.5-17.7,19.6c-5.7,5.9-11.4,11.6-17.7,14.9c-2.4,1.4-5,1.7-7.7,1.5     c-0.6,0-1.2-0.2-1.9-0.2c-3.3-0.4-6.4-1.5-9.4-2.7c-0.5-0.2-1-0.4-1.5-0.6c-5.3-2.2-10-4.8-14.2-7.2c-5.2-3-9.9-5.6-13.9-7.5     c-0.9-0.4-1.7-0.8-2.5-1.2c-1.1-0.6-2.1-1-3-1.4c2-1.8,4-3.6,5.8-5.3c0.9-0.8,1.7-1.6,2.5-2.4c2.1-2,4-3.9,5.7-5.6     c1-1,1.9-1.9,2.7-2.7c-0.1-0.3-0.1-0.5-0.2-0.8c-0.1-0.7-0.2-1.4-0.3-2.1c-1.2-9.1-1-19.3,0.2-29.9c1.2-10.6,3.5-21.8,5.7-33.4     c1.1-5.8,2.2-11.8,3.1-17.8c0.9-6.1,1.5-12.3,1.8-18.6c0.1-6.3,0-12.7-1.1-19.2l-0.8-4.8l-1.1-4.6l-2.2-9.2     c-3-12.2-6-24.5-8.9-36.5c-1.4-6-2.8-12-4.2-17.9c-1.4-5.9-2.8-11.8-4.1-17.6c-1.4-5.7-2.7-11.4-4-17c-1.3-5.6-2.7-10.7-3.6-16     c-1.9-10.6-3.4-20.9-6.5-30.1c-1.6-4.6-3.6-9-6.5-12.6c-2.7-3.5-6.4-5.5-9.6-7.2c0.3-3.6,0.7-7.3,1-11.2     c0.8-11.2,0.9-23.8,2.1-37.3c0.3-3.4,0.8-6.8,1.2-10.3c0.7-3.4,1.1-7,2.1-10.5c1.4-7.2,4.8-13.4,10.3-18.8     c5.3-5.4,12-10.1,18.1-15.9c5.9-5.9,11.8-12,17.3-18.7c2.8-3.2,5.5-6.7,8.1-10.2c2.6-3.4,5.3-7,7.8-10.7     c5.1-7.3,9.9-14.9,14.6-22.6c1.1-1.9,2.3-3.8,3.4-5.8c3.6-0.3,7.3-0.6,11.3-0.9c2.1-0.2,4.2-0.4,6.4-0.6c2.1-0.2,4.3-0.4,6.5-0.7     c4.4-0.5,8.9-1,13.3-1.5c4.4-0.6,8.9-1.1,13.3-1.7c2.2-0.2,4.4-0.5,6.5-0.8c2.1-0.3,4.2-0.6,6.3-0.8c4.1-0.5,8.2-1.1,12-1.4     c3.8-0.4,7.4-0.8,10.7-1.1c6.7-0.9,12.3-1.3,16.2-2c1.9-0.3,3.5-0.5,4.5-0.7c1-0.2,1.6-0.3,1.6-0.3s-0.6-0.1-1.6-0.2     c-1-0.1-2.6-0.2-4.5-0.3c-3.9-0.1-9.6-0.6-16.4-0.2c-3.4,0.2-7,0.4-10.9,0.6c-3.9,0.3-7.9,0.7-12.1,1c-2.1,0.2-4.2,0.4-6.4,0.6     c-2.2,0.2-4.3,0.5-6.5,0.6c-4.4,0.5-8.9,1-13.3,1.5c-4.4,0.5-8.9,1-13.3,1.6c-2.2,0.3-4.4,0.5-6.5,0.7c-2.1,0.3-4.2,0.5-6.3,0.7     c-2.7,0.3-5.2,0.5-7.8,0.8c2.7-4.5,5.3-9.1,8-13.7c0.4,0,0.8,0,1.3,0c0.8,0,1.7-0.1,2.6-0.1c0.8,0,1.7-0.1,2.6-0.1     c1.8-0.1,3.6-0.3,5.4-0.3c1.8-0.2,3.5-0.4,5.3-0.6c0.9-0.1,1.7-0.2,2.6-0.2c0.8-0.2,1.7-0.3,2.5-0.4c1.6-0.2,3.2-0.4,4.8-0.6     c1.5-0.2,3-0.4,4.3-0.6c2.7-0.4,4.9-1.1,6.4-1.6c0.8-0.3,1.4-0.6,1.8-0.7c0.4-0.2,0.6-0.3,0.6-0.3s-0.2,0-0.6-0.2     c-0.4,0-1.1-0.2-1.8-0.3c-1.6-0.3-3.9-0.6-6.6-0.6c-1.3,0-2.8,0-4.4,0.1c-1.5,0.1-3.2,0.1-4.8,0.2c-0.8,0-1.7,0.1-2.6,0.1     c-0.8,0-1.7,0.1-2.6,0.1c-1.8,0.1-3.6,0.3-5.4,0.4c-1.7,0.1-3.5,0.2-5.3,0.3c-0.9,0-1.7,0.1-2.6,0.2c-0.2,0-0.5,0-0.7,0     c3.3-5.9,6.5-11.9,9.6-17.9c2.2-3.9,4.4-7.8,6.9-11.4c2.5-3.7,5.3-6.8,8.8-8.7c7.4-3.8,16.6-4.9,25.4-6.9     c4.6-0.9,8.8-2.4,13.1-3.7c4.3-1.2,8.5-2.7,12.7-4.1c8.4-2.8,16.6-5.6,24.7-8.4c16.2-5.4,32.1-10.1,47.4-12.4     c1.8-0.3,3.5-0.5,5.3-0.8c0,0,0.1-0.1,0.1-0.1c0-0.1,0.1,0,0.1,0.1l0.9,1.4c2,3.2,3.9,6.5,5.8,9.6c3.8,6.3,7.5,12.4,11.2,18.2     c7.4,11.6,14.8,22,22.2,30.4c7.4,8.5,14.7,15.1,21.1,19.9c2.2,1.6,4.3,3,6.2,4.3c0.1,0.1,0.3,0.1,0.4,0.2c0.5,0.4,1,0.6,1.4,0.9     c3,1.9,5.7,3.4,7.8,4.5c2.9,1.4,4.8,2.3,5.5,2.7c-0.7-0.5-2.5-1.5-5.3-3.1c-2-1.2-4.4-2.7-7.1-4.8c7.5-5.8,15.8-13.1,24.5-21.7     c2.7-2.7,5.5-5.5,8.3-8.4c1.4-1.4,2.9-2.9,4.3-4.3l2.2-2.2l0.6-0.7c0.1-0.2,0.4,0,0.6,0c8.4,0.9,17.3,1.4,26.4,3.6     c9.1,1.6,18.5,4.4,28.2,6.9c9.6,3,19.6,6.1,30.1,8.9c10.1,2.8,20.9,6.1,27,15c6.3,8.4,8.9,20.1,12.7,31c1.6,5.6,3,11.3,4.6,17     c1.6,5.7,2.6,11.6,4,17.4c2.5,11.7,4.8,23.7,7,35.9c4.5,24.2,8.8,48.9,16,73.3c8.1,24.7,27,43.4,33.1,66.6l1.2,4.2l0.6,4.5     L742.4,423.2z M683.3,263.7c1,0,1.4-0.1,1.4-0.1s-0.5-0.1-1.4-0.4c-0.9-0.2-2.2-0.5-3.9-0.9c-3.4-0.8-8.2-1.6-14.1-2.5     c-2.9-0.4-6.1-0.8-9.5-1.2c-3.4-0.4-6.9-0.5-10.6-0.8c-1.8-0.1-3.7-0.2-5.6-0.3c-1.9-0.1-3.8-0.2-5.7-0.3     c-3.9-0.2-7.8-0.4-11.8-0.5c-3.9,0-7.9,0-11.8,0c-1.9,0-3.8,0-5.7,0c-1.9,0-3.8,0.1-5.6,0.1c-3.7,0-7.2,0.1-10.6,0.2     c-3.3,0-6.5,0.1-9.5,0.3c-5.9,0.3-10.8,0.8-14.3,1.3c-3.4,0.4-5.4,0.9-5.4,0.9s1.9,0.4,5.4,0.8c3.4,0.4,8.4,0.9,14.3,1.1     c2.9,0.1,6.1,0.1,9.5,0.2c3.3,0,6.9,0.2,10.6,0.2c1.8,0,3.7,0,5.6,0c1.9,0,3.8,0,5.7,0.1c3.8,0,7.8,0,11.7,0     c3.9,0.1,7.8,0.2,11.7,0.4c2,0,3.8,0,5.7,0.1c1.9,0,3.7,0.1,5.6,0.2c3.7,0.1,7.2-0.1,10.6,0.2c3.3,0.3,6.5,0.5,9.4,0.7     c5.9,0.3,10.8,0.4,14.3,0.3C681,263.8,682.3,263.7,683.3,263.7z M681.4,271.1c0,0-0.2,0-0.8-0.2c-0.4-0.2-1.1-0.3-2-0.5     c-1.8-0.4-4.3-0.8-7.3-1c-1.5-0.2-3.2-0.2-4.9-0.2c-1.7-0.1-3.6-0.1-5.5-0.2c-0.9,0-1.9,0-2.9,0c-1,0-2,0-3,0c-2,0-4,0-6,0     c-2,0-4,0.1-6,0.1c-1,0-2,0-3,0.1c-1,0-2,0-2.9,0.1c-1.9,0.1-3.7,0.2-5.5,0.2c-1.7,0.1-3.4,0.1-4.9,0.3c-3,0.3-5.6,0.8-7.3,1.3     c-1.8,0.4-2.8,0.9-2.8,0.9s1,0.4,2.8,0.8c1.8,0.4,4.3,0.9,7.3,1.1c1.5,0.1,3.2,0.1,4.9,0.2c1.7,0,3.6,0,5.5,0.1     c0.9,0,1.9,0,2.9,0c1,0,2,0,3,0c2,0,4-0.1,6-0.1c2,0,4-0.1,6-0.2c1,0,2,0,3-0.1c1,0,2-0.1,2.9-0.2c1.9-0.1,3.7-0.1,5.5-0.2     c1.7-0.1,3.4-0.2,4.9-0.3c3-0.3,5.6-0.8,7.3-1.2c0.9-0.2,1.6-0.4,2-0.6C681.1,271.2,681.4,271.1,681.4,271.1z M658.9,242.8     c0,0-0.2-0.1-0.7-0.3c-0.5-0.1-1.1-0.4-1.9-0.7c-1.7-0.5-4-1.1-6.9-1.5c-1.4-0.3-3-0.4-4.6-0.6c-1.6-0.2-3.4-0.5-5.2-0.7     c-0.9-0.1-1.8-0.3-2.7-0.4c-0.9-0.1-1.8-0.3-2.8-0.3c-1.9-0.3-3.8-0.5-5.7-0.8c-1.9-0.2-3.8-0.3-5.7-0.5c-1-0.1-1.9-0.1-2.8-0.2     c-0.9-0.1-1.8-0.2-2.7-0.2c-1.8-0.1-3.5-0.3-5.2-0.3c-1.7,0-3.2-0.1-4.7,0c-2.9,0.1-5.4,0.5-7.1,0.8c-1.7,0.4-2.6,0.8-2.6,0.8     s1,0.4,2.6,0.9c1.6,0.6,4,1.1,6.9,1.5c1.4,0.2,2.9,0.3,4.6,0.4c1.6,0.1,3.3,0.4,5.1,0.6c0.9,0.2,1.8,0.3,2.7,0.4     c0.9,0.1,1.8,0.2,2.8,0.3c1.8,0.1,3.8,0.3,5.7,0.5c1.9,0.2,3.8,0.4,5.7,0.6c1,0,1.9,0.1,2.8,0.2c0.9,0.1,1.8,0.2,2.7,0.2     c1.8,0.1,3.5,0.3,5.2,0.3c1.6,0.1,3.2,0.1,4.7,0.1c2.9,0,5.4-0.3,7.1-0.6c0.8-0.1,1.5-0.3,2-0.3     C658.6,242.8,658.9,242.8,658.9,242.8z M645.5,580.8c0,0-0.6,0-1.6,0c-1,0-2.5,0-4.4,0c-3.9,0-9.4,0.2-15.9,0.7     c-3.2,0.3-6.8,0.6-10.5,1c-3.7,0.3-7.7,0.5-11.8,0.8c-2,0.1-4.1,0.2-6.2,0.4c-2.1,0.2-4.2,0.3-6.3,0.4c-4.3,0.3-8.7,0.6-13,0.9     c-4.3,0.2-8.7,0.4-13,0.6c-2.1,0.1-4.2,0.2-6.4,0.3c-2.1,0.1-4.1,0.2-6.2,0.4c-4.1,0.2-8.1,0.5-11.8,0.6     c-3.7,0.1-7.3,0.2-10.5,0.3c-6.6,0.3-12,0.8-15.9,1.2c-3.8,0.4-6,0.9-6,0.9s2.2,0.4,6,0.8c3.8,0.4,9.3,0.9,15.9,1.2     c3.3,0.1,6.9,0.1,10.6,0.2c3.8,0.1,7.8-0.1,11.9-0.2c2-0.1,4.1-0.2,6.3-0.2c2.1-0.1,4.2-0.2,6.4-0.2c4.3-0.2,8.7-0.3,13.1-0.6     c4.4-0.4,8.8-0.7,13.1-1.1c2.2-0.2,4.3-0.4,6.4-0.6c2.1-0.2,4.2-0.4,6.2-0.6c4.1-0.4,8-0.7,11.8-1.2c3.7-0.5,7.3-1,10.5-1.5     c6.5-0.9,11.9-2,15.7-2.8c1.9-0.5,3.3-0.8,4.4-1C645,581,645.5,580.8,645.5,580.8z M631.9,459.1c1.9-1.6,3-2.6,3.2-2.9     c-0.4,0.1-1.9,0.5-4.1,1.4c-2.6,1-6.2,2.5-10.5,4.4c-2.1,0.9-4.4,2.2-6.8,3.2c-2.4,1-5.1,2.2-7.7,3.3c-1.3,0.6-2.7,1-4.1,1.6     c-1.4,0.5-2.8,1-4.2,1.5l-2.4,0.9c-5.7-3.6-12.4-7.9-19.9-12.3c-6.6-3.8-13.8-7.8-21.3-12.2c-3.8-2.2-7.7-4.3-11.7-6.6     c-1.9-1.1-4-2.3-6-3.4c-2.3-0.7-4.7-1.9-7.1-2.3c-4.9-1-9.9-1.4-14.8-1.4c-5-0.1-9.9,0.2-14.9,0.5c-4.9,0.3-9.9,0.6-14.8,0.8     c-5,0-10,0.1-15.1,0.2c-10.1,0.2-20.2,0.4-30.1,0.5c-5,0.1-9.9,0.2-14.8,0.2c-4.8,0.1-9.6,0.2-14.4,0.3c-4.8,0.1-9.3,0.1-13.9,0     c-4.6,0-9.3-0.1-13.9,1.1c-4.6,1.2-8.6,3.7-11.9,6.5c-3.1,2.6-6.1,5.1-9,7.5c-9.8,8.3-18.1,15.6-24.4,21.2     c-0.4-0.9-0.9-1.8-1.4-2.7c-2-2.9-4.2-4.5-6.4-6.5c-1.1-1-2.1-2-3.2-2.9c-1.1-0.9-2.2-1.7-3.3-2.5c-2.2-1.6-4.3-3.2-6.3-4.7     c-2-1.4-3.9-2.8-5.7-4c-3.6-2.4-6.7-4.2-8.9-5.4c-1.9-1.1-3.3-1.6-3.6-1.7c0.2,0.2,1,1.4,2.5,3.1c1.7,1.9,4.2,4.6,7.5,7.4     c1.6,1.4,3.5,2.8,5.4,4.4c1.9,1.5,3.9,3.2,5.9,4.9c1,0.8,2.1,1.6,3.1,2.6c1,1,2,1.9,3,2.8c1.8,1.9,4.3,3.8,5.6,5.7     c0.7,1.1,1.2,2.2,1.6,3.5c0.2,0.6,0.3,1.1,0.4,1.7c0,0.5,0.1,1,0.2,1.5c0,1.2,0,2.4-0.2,3.7c-0.1,1.2-0.4,2.5-0.6,3.7     c-0.6,2.4-1.4,4.8-2.3,7.1c-0.9,2.2-1.8,4.4-2.7,6.3c-1.6,3.9-2.9,7.3-3.7,9.8c-0.3,1.2-0.5,2.2-0.7,2.9c-0.2,0.6-0.2,1-0.2,1     s0.2-0.2,0.6-0.8c0.4-0.6,1-1.4,1.7-2.4c1.4-2.1,3.5-5,5.6-8.8c1.1-1.9,2.2-4,3.2-6.3c1-2.3,2-4.8,2.9-7.5     c0.4-1.4,0.8-2.8,0.9-4.3c0.3-1.5,0.3-3.1,0.4-4.7c-0.1-1.5-0.3-3.1-0.7-4.6c6.9-5,15.9-11.9,26.3-20.1c3-2.3,6.1-4.8,9.3-7.4     c3-2.4,6.3-4.4,10.1-5.4c7.7-1.6,17.3-0.2,26.7-0.6c4.7,0,9.5-0.1,14.4-0.2c4.9-0.1,9.8-0.2,14.8-0.2c9.9-0.2,20-0.3,30.1-0.4     c5-0.1,10.1-0.2,15.1-0.3c5.2-0.1,10.2-0.5,15.1-0.8c4.9-0.4,9.8-0.7,14.6-0.7c4.8-0.1,9.4,0.2,13.8,1c2.2,0.3,4.1,1.3,6.2,1.8     c2,1.2,4,2.2,6,3.3c4,2.2,7.9,4.3,11.7,6.4c7.6,4.1,14.8,8,21.4,11.6c7.3,4,14,7.8,19.8,11v0.2v2.2l0.1,4.7     c0.1,3.2,0.1,6.3,0.2,9.4c0,1.5,0,3.1,0.1,4.6c0.1,1.5,0.1,3,0.2,4.5c0.1,2.9,0.2,5.7,0.3,8.4c0.2,2.7,0.3,5.3,0.4,7.6     c0.3,4.7,0.8,8.6,1.2,11.4c0.2,1.3,0.4,2.4,0.6,3.1c0.2,0.8,0.2,1.2,0.2,1.2s0.1-0.4,0.2-1.2c0.2-0.7,0.3-1.8,0.5-3.1     c0.4-2.8,0.8-6.7,1-11.4c0-2.3,0.1-4.9,0.2-7.6c0-2.7,0.1-5.5,0.2-8.4c0-1.5,0-3,0-4.5c0-1.5,0-3,0-4.6c0-3.1,0-6.2,0-9.4l0-4.2     v-0.4c0,0,0,0,0,0l0.8-0.3c0.5-0.2,0.9-0.4,1.3-0.5c1-0.4,2.1-0.8,3.1-1.2c1.4-0.6,2.9-1,4.2-1.7c2.7-1.3,5.3-2.6,7.7-3.7     c2.5-1.2,4.7-2.5,6.7-3.7C626.5,463.2,629.7,460.8,631.9,459.1z M623.9,565c0,0-0.3-0.1-0.9-0.2c-0.6-0.1-1.4-0.2-2.5-0.4     c-2.2-0.3-5.2-0.6-8.9-0.6c-1.8,0-3.8,0-6,0.1c-2.1,0-4.3,0.2-6.6,0.3c-1.2,0.1-2.3,0.2-3.5,0.2c-1.1,0.1-2.3,0.2-3.5,0.2     c-2.4,0.2-4.9,0.4-7.3,0.5c-2.4,0.2-4.8,0.4-7.2,0.6c-1.2,0.1-2.4,0.2-3.5,0.3c-1.2,0.2-2.3,0.2-3.5,0.4     c-2.3,0.2-4.5,0.6-6.5,0.6c-2.1,0.1-4.1,0.2-5.9,0.4c-3.6,0.4-6.7,0.9-8.8,1.5c-2.1,0.5-3.4,1-3.4,1s1.2,0.4,3.4,0.8     c2.2,0.4,5.2,0.8,8.9,0.9c1.8,0,3.8,0,6,0c2.1,0,4.3-0.2,6.6-0.3c1.1-0.1,2.3-0.2,3.5-0.2c1.2-0.1,2.4-0.2,3.6-0.3     c2.4-0.2,4.9-0.4,7.3-0.5c2.4-0.2,4.8-0.5,7.2-0.8c1.2-0.1,2.4-0.2,3.5-0.4c1.2-0.1,2.3-0.2,3.5-0.4c2.3-0.2,4.5-0.5,6.6-0.7     c2-0.2,4-0.3,5.8-0.6c3.6-0.4,6.7-1,8.8-1.6c1-0.3,1.9-0.5,2.5-0.6C623.6,565.1,623.9,565,623.9,565z M617.3,592.5     c0,0-0.2-0.1-0.6-0.2c-0.3-0.1-0.9-0.3-1.6-0.5c-1.4-0.4-3.4-0.8-5.7-1c-1.2-0.1-2.4-0.2-3.8-0.2c-1.4,0-2.7-0.1-4.2-0.1     c-0.8,0-1.5,0-2.2,0s-1.5,0-2.3,0c-1.5,0-3,0-4.6,0c-1.6,0-3.1,0-4.6,0.1c-0.7,0-1.5,0-2.2,0c-0.7,0-1.5,0.1-2.2,0.1     c-1.4,0.1-2.8,0.2-4.2,0.3c-1.4,0.1-2.6,0.1-3.7,0.3c-2.4,0.3-4.3,0.8-5.7,1.3c-1.4,0.5-2.1,0.9-2.1,0.9s0.8,0.4,2.1,0.8     c1.4,0.4,3.3,0.9,5.7,1.1c1.2,0.1,2.4,0.1,3.8,0.2c1.3,0,2.7,0,4.2,0.1c0.8,0,1.4,0,2.2,0.1c0.8,0,1.5,0,2.3,0     c1.5-0.1,3.1-0.1,4.6-0.1c1.6,0,3.1-0.1,4.7-0.1c0.8,0,1.5-0.1,2.3-0.1c0.7-0.1,1.5-0.1,2.2-0.2c1.4-0.1,2.8-0.2,4.2-0.3     c1.3-0.1,2.6-0.2,3.8-0.3c2.3-0.3,4.2-0.8,5.6-1.2c0.6-0.2,1.2-0.4,1.5-0.5C617.1,592.6,617.3,592.5,617.3,592.5z M547.3,317.7     c0.2-3.5,0.2-6.3,0.2-8.4c-0.1-2.9-0.1-4.5-0.1-4.5s0-1.6,0-4.4c0.2-2.9,0-7.2-0.5-12.7c-1.2-10.7-4.1-26.9-15.2-42.8     c-2.9-3.8-6.2-7.7-10.4-10.9c-4.1-3.3-9-6-14.6-7.3c-5.5-1.3-11.6-1.4-17.4,0.4c-5.7,1.7-11,5-15.6,9c-4.6,4-8.3,9-11.6,14.3     c-3.3,5.3-5.6,11.1-7.8,17c-1.8,5.6-3.3,11.3-4.3,17.2c-1.4-10.6-4.7-25.3-14.8-39.8c-2.8-3.8-6.1-7.7-10.3-10.9     c-4.1-3.3-9.1-6-14.6-7.3c-5.5-1.3-11.6-1.4-17.4,0.4c-5.7,1.7-11,5-15.6,9c-4.6,4-8.3,9-11.6,14.3c-3.3,5.3-5.7,11.1-7.9,17     c-4,11.9-5.9,24.7-6,37.4c0,6.2,0.5,12.5,1.4,18.6c0.1,0.9,0.2,1.7,0.4,2.6c0.9,5.5,2.3,10.9,4,16.2c2.1,5.9,4.5,11.7,7.8,17     c3.3,5.2,6.9,10.3,11.6,14.3c4.6,4.1,9.9,7.3,15.7,9.1c5.7,1.8,11.9,1.7,17.5,0.4c5.6-1.3,10.6-4,14.7-7.3     c4.2-3.2,7.5-7.1,10.4-10.9c10-14.3,13.3-28.8,14.7-39.4c1,5.7,2.3,11.3,4.1,16.7c2.2,5.9,4.5,11.7,7.8,17     c3.3,5.2,6.9,10.3,11.6,14.3c4.5,4.1,9.8,7.3,15.6,9.1c5.8,1.8,11.9,1.7,17.5,0.4c5.6-1.3,10.6-4,14.7-7.3     c4.2-3.2,7.5-7.1,10.4-10.9c11.1-15.9,13.9-32.1,15.1-42.9c0-0.5,0.1-1,0.1-1.4C547.1,319.5,547.2,318.6,547.3,317.7z      M518.4,191.4c0,0-0.6-0.1-1.8-0.2c-1.2-0.1-2.9-0.3-5.1-0.2c-4.4-0.1-10.7,0.3-18.2,2c-3.7,0.8-7.7,2-11.8,3.5     c-4.1,1.6-8.3,3.4-12.5,6c-2.1,1.1-4.1,2.7-6.1,4.2c-1.9,1.6-3.8,3.3-5.5,5.3l-2.5,3l-2,3.4c-0.8,1.1-1.2,2.4-1.7,3.7l-0.4,0.9     c0,0,0,0,0-0.1c-0.6-1.1-1.2-2.2-1.8-3.3c-1.2-2.1-2.5-4.3-3.9-6.3c-1.4-2-2.7-4-4.2-5.9c-2.9-3.8-6.2-7.2-9.5-10.1     c-3.3-2.9-6.8-5.4-10.3-7.2c-6.9-3.6-13.6-4.5-18-4.4c-2.2-0.1-3.9,0.3-5.1,0.4c-1.2,0.1-1.8,0.2-1.8,0.2s0.6,0.1,1.8,0.3     c1.2,0.2,2.9,0.2,5,0.8c4.2,0.8,10.1,2.5,16.2,6.3c3,1.9,6.2,4.1,9.2,6.9c3,2.9,5.9,6.1,8.6,9.8c1.4,1.8,2.6,3.7,3.9,5.7     c1.2,2,2.5,4,3.6,6.1c0.6,1,1.2,2.1,1.8,3.2l3.3,6.7l1.6,3.4l0.8,1.7c0.2,0.5,0.6,1.5,0.6,0.4l1.6-7.2c0.2-1.2,0.5-2.4,0.9-3.8     l0.6-1.8l0.3-0.8c0.4-1,0.7-2.1,1.4-3.1l1.7-2.9l2.1-2.7c1.4-1.8,3.1-3.3,4.8-4.8c1.8-1.4,3.5-2.9,5.5-4c3.7-2.5,7.7-4.4,11.5-6     c3.9-1.6,7.6-2.8,11.2-3.9c7-2.1,13.1-3.3,17.4-4.1c2.2-0.4,3.8-0.6,5-0.8C517.7,191.5,518.4,191.4,518.4,191.4z M512.1,491.7     c0,0-0.4-0.2-1.3-0.6c-0.9-0.4-2.2-1-3.8-1.6c-3.3-1.3-8.1-2.9-14.1-4.2c-2.9-0.7-6.2-1.2-9.7-1.8c-3.4-0.6-7.1-1-10.9-1.4     c-1.9-0.2-3.8-0.4-5.8-0.5c-1.9-0.2-3.9-0.2-5.9-0.3c-4-0.3-8.1-0.2-12.2-0.2c-4.1,0.2-8.2,0.3-12.2,0.7c-2,0.2-4,0.4-5.9,0.6     c-1.9,0.3-3.9,0.6-5.8,0.9c-3.8,0.5-7.4,1.4-10.8,2.2c-3.4,0.9-6.7,1.6-9.5,2.8c-5.8,2-10.4,4.5-13.4,6.5c-2.5,1.7-4,2.9-4.4,3.2     c0.4-0.1,2.3-0.7,5.2-1.7c3.3-1.1,8.1-2.6,13.9-4c2.8-0.9,6-1.4,9.3-2.3c3.4-0.6,6.9-1.4,10.6-1.8c1.8-0.2,3.7-0.4,5.6-0.7     c1.9-0.2,3.8-0.3,5.8-0.5c3.9-0.4,7.9-0.5,11.8-0.6c4,0,8-0.2,11.9,0c1.9,0,3.9,0,5.8,0.2c1.9,0.1,3.8,0.2,5.7,0.3     c3.7,0.3,7.3,0.6,10.8,1c3.4,0.4,6.6,0.8,9.6,1.2c5.9,0.8,10.9,1.6,14.4,2.1c1.8,0.2,3.1,0.4,4.1,0.6     C511.6,491.7,512.1,491.7,512.1,491.7z" fill="#B9B9C3"/><path d="M747.3,422.7c0.5,6.1,0.6,12.3,0.7,18.4c-0.3,6.6-0.8,13.2-1.6,19.7c-0.2,2.5-0.6,4.9-0.9,7.4v0.1     c-0.5,2.9-1,5.8-1.6,8.7c-0.6,2.9-1.1,5.8-1.7,8.7c-0.6,2.8-1.4,5.6-2,8.5c-1.3,5.6-2.8,11.1-4.3,16.6c-3,10.9-5.8,21.6-9.4,31.9     c-1.8,4.1-3,8.2-3.6,12.3c-0.4,2.8-0.5,5.7-0.5,8.5c0.1,12.9,4.2,25.6,5.6,37.9c1.1,12,1.6,23.4,1.7,34c0,2.6,0,5.2,0,7.7     c-0.6,1-1.2,2-1.8,3c-0.4,0.6-0.7,1.3-1.1,2c-1.1,1.9-2.2,3.8-3.6,5.9c-0.8,1.4-1.8,2.6-2.8,3.9c-1,1.3-2,2.6-3,3.9     c-2,2.6-4.1,5.2-6.2,7.8c-1.9,2.3-3.9,4.7-5.8,7c-0.2,0.2-0.3,0.4-0.5,0.7c-1,1.2-2.1,2.5-3.2,3.7c0,0-0.1,0.1-0.2,0.2     c-2.6,0.8-5.2,1.6-8,2.4c-5.7,1.8-11.8,3.6-18.1,5.3c-2.8,0.8-5.5,1.5-8.4,2.3c-0.4,0.1-0.8,0.2-1.3,0.3     c-0.4-0.1-1.5,0.8-2.6,1.6c-0.4,0.3-0.7,0.5-1,0.7c-1.4,1-2.9,2-4.4,3c-1.5,1-3,2-4.5,3c-1.5,0.8-3.1,1.8-4.7,2.7     c-3.2,1.8-6.4,3.7-9.8,5.4c-6.7,3.3-13.6,6.8-21,9.8c-1.4,0.6-2.7,1.2-4,1.8c-0.6,0.2-1.1,0.5-1.7,0.7c-0.4,0.2-0.8,0.4-1.3,0.2     l-1-0.2l-1.5-0.2l-3-0.5c-4-0.6-8-1.5-12.1-2.5c-8-1.9-16-4.5-24-7.4c-8-2.8-15.9-6.1-23.8-9.5c-3.9-1.8-7.8-3.5-11.8-5.3     l-5.7-2.7l-0.2-0.1l-2.8-1.4c-0.2,0-0.6,0.1-1.1,0.1c-0.4,0-0.7,0-1,0c-8.6,0.5-17.3,0.8-25.9,1.2c-17.4,1.2-34.7,2.6-52,3.1     c-4.3,0.1-8.5,0.6-12.8,0.4c-4.2-0.2-8.5-0.3-12.7-0.4c-8.4-0.3-16.8-0.4-25-1.5c-16.3-2-31.9-5.6-46.2-4.6     c-0.7,0.1-1.3,0.2-1.9,0.4c-1.6,0.3-3.2,0.8-4.8,1.2c-10.9,3.8-20,12-30.4,16.3l-2.8,1.2c-0.3,0.1-0.6,0.4-0.9,0.3l-0.9-0.6     l-1.4-1c-1.2-0.8-2.5-1.7-3.9-2.4c-2.6-1.5-5.4-2.7-8-3.9c-5.4-2.4-10.7-4.2-15.7-5.9c-6.1-2.1-11.8-4-16.9-5.9c0,0,0,0,0,0     c-1.6,0-3.2-0.1-4.7-0.4c-3.6-0.6-6.8-1.8-9.9-3.2c-6-2.7-11.1-5.8-15.7-8.6c-5.1-3.2-9.6-5.9-13.5-8.1c-0.8-0.5-1.6-1-2.4-1.4     c-1-0.6-2-1.1-2.9-1.5l0.3-0.6c1,0.4,1.9,0.8,3,1.4c0.8,0.3,1.6,0.7,2.5,1.2c4,2,8.7,4.6,13.9,7.5c4.2,2.3,8.9,4.9,14.2,7.2     c0.5,0.2,1,0.4,1.5,0.6c2.9,1.2,6.1,2.2,9.4,2.7c0.6,0.1,1.2,0.2,1.9,0.2c2.7,0.2,5.3-0.1,7.7-1.5c6.2-3.3,11.9-9,17.7-14.9     c5.7-6,11.4-12.7,17.7-19.6c1.5-1.7,3.1-3.4,4.8-5.1l2.6-2.5l0.9-0.8l0.5-0.4l0.7-0.6c0.4-0.3,0.7-0.8,1.2-0.9     c0.4,0,0.7-0.1,1-0.2c4.5-0.8,9.2-1.6,13.9-2.4c9.7-1.7,19.8-3.6,30.3-5.1c20.8-3.3,43-6.2,66-8.2c11.5-0.8,23.2-1.6,35.1-2.4     c11.7-0.8,23.7-1.6,35.7-2.5c6-0.4,12.1-0.8,18.2-1.2l9.1-0.6l4.6-0.3c0.6,0,1.1,0,1.6,0c1,0,2,0.1,3,0.2c0.1,0,0.2,0,0.3,0     c6.5,1,12.7,3.8,17.9,7.4c5.2,3.5,9.9,7.4,14.9,10.6c3.5,2.3,7.3,4.2,11.2,5.2c1.1,0.3,2.1,0.6,3.2,0.7c0.4,0.1,0.8,0.2,1.2,0.2     c5.4,0.2,11-1.7,16.4-4.2c10.8-5,20.4-12.4,32.2-17.4c6.2-1.9,11.9-2.9,17.3-4.9c1.4-0.4,2.6-1.1,3.8-1.6c1-0.7,2.2-1.2,3.1-2     c0.1,0,0.1-0.1,0.2-0.2l1.4-1.2c0.2-0.3,0.5-0.7,0.8-1.1c0.1-0.2,0.2-0.4,0.4-0.5l2.2-3.5c2.6-5.1,4.8-10.5,7.6-15.9     c2.8-5.5,6-10,9-15c8.6-13.8,17-27.4,25.1-40.5c0.8-1.2,1.5-2.4,2.3-3.7c2.5-4.1,5-8.2,7.5-12.2c5.6-8.9,11-17.8,16.6-26     c5.5-7.8,10.7-15.5,16.1-22.6c1.4-8.9,2.2-18.1,2.5-27.3c-0.1-5.9-0.1-11.9-0.7-17.9l-1.2-8.9l-0.6-4.5l-1.2-4.2     c-6.1-23.2-25-41.9-33.1-66.6c-7.2-24.4-11.4-49.1-16-73.3c-2.2-12.1-4.4-24.1-7-35.9c-1.4-5.8-2.5-11.7-4-17.4     c-1.5-5.7-3-11.4-4.6-17c-3.8-10.9-6.4-22.6-12.7-31c-6.1-8.9-16.8-12.1-27-15c-10.4-2.7-20.5-5.9-30.1-8.9     c-9.7-2.5-19.1-5.3-28.2-6.9c-9.1-2.2-18-2.7-26.4-3.6c-0.2,0-0.5-0.2-0.6,0l-0.6,0.7l-2.2,2.2c-1.4,1.4-2.9,2.9-4.3,4.3     c-2.8,2.9-5.6,5.7-8.3,8.4c-8.7,8.6-16.9,15.9-24.5,21.7c2.8,2,5.2,3.6,7.1,4.8c2.7,1.6,4.5,2.6,5.3,3.1     c-0.7-0.3-2.6-1.2-5.5-2.7c-2.2-1.1-4.8-2.5-7.8-4.5c-0.4-0.3-0.9-0.5-1.4-0.9l0.6-1c7.3-6.1,15.4-13.7,24-22.7     c2.6-2.7,5.3-5.6,8.1-8.5c1.4-1.4,2.8-2.9,4.2-4.5l2.2-2.2l1.6-1.6c0.1-0.1,0.3-0.4,0.5-0.4l0.6,0l1.3,0.1     c8.6,0.8,17.7,1.2,27,3.3c9.4,1.4,18.8,4.2,28.7,6.7c9.7,3,19.6,6,30.1,8.7c5.2,1.4,10.6,3,15.8,5.5c2.6,1.1,5.1,2.9,7.5,4.6     l3.3,3.1l1.6,1.5l1.2,1.8c1.8,2.4,3.6,4.8,4.7,7.6c1.2,2.7,2.6,5.4,3.4,8.1c1.8,5.5,3.7,11.1,5.6,16.7c1.6,5.7,3.1,11.4,4.7,17.2     c1.5,5.8,2.7,11.7,4.1,17.6c2.6,11.8,4.9,23.9,7.1,36c4.6,24.1,8.8,49,15.8,72.6c7.4,23.2,26.3,41.9,33,66.9l1.2,4.6l0.6,4.6     L747.3,422.7z M737.6,484.7c0.5-2.5,1-5.1,1.4-7.7c-3.7,5.2-7.4,10.7-11.3,16.3c-5.4,8.2-10.7,17-16.2,25.9     c-2.6,4.3-5.3,8.7-8.1,13.2c0.6,0.7,1.3,1.4,2,2.1c1.8,1.8,3.5,3.9,5.3,6c0.9,1.1,1.8,2.2,2.8,3.2c0.9,1.1,1.9,2.2,2.8,3.3     c1.1,1.2,2.2,2.5,3.2,3.8c0.2-0.6,0.3-1.2,0.4-1.7c0.8-2.5,1.4-5.2,2.3-7.8c3.5-10.1,6.2-20.7,9.1-31.7     c1.4-5.4,2.9-10.9,4.1-16.5C736.3,490.4,737,487.6,737.6,484.7z M723.9,643.8c0.9-1.4,1.8-2.8,2.6-4.1     c-0.2-11.7-0.8-24.4-2.3-37.7c-1.3-9.1-3.9-18.6-5.2-28.8c-0.8-4.9-1-10-0.6-15.3c-0.2-0.2-0.3-0.4-0.4-0.7     c-1.7-2.3-3.7-4.5-5.5-6.7c-0.9-1.2-1.8-2.2-2.7-3.3c-0.9-1.1-1.8-2.2-2.6-3.3c-1.7-2.1-3.3-4.2-5-6.1c-0.4-0.4-0.7-0.8-1-1.2     c-7.8,12.7-15.8,25.9-24.1,39.4c-2.8,4.9-6.3,9.8-8.8,14.8c-2.6,4.9-4.8,10.5-7.5,16l-2.6,4c-0.5,0.6-0.8,1.4-1.4,1.9l-0.9,0.8     c0.4,1.2,0.7,2.3,1,3.6c0.8,2.7,1.4,5.6,1.8,8.7c0.6,3.1,0.9,6.3,1.3,9.7c0.2,1.7,0.4,3.4,0.6,5.1c0.2,1.8,0.4,3.5,0.5,5.2     c0.4,3.6,0.7,7.1,1.2,10.6c0.4,3.5,0.9,7.1,1.4,10.6c0.3,1.7,0.5,3.5,0.8,5.2c0.2,1.8,0.5,3.4,0.7,5.1c0.5,3.4,1,6.6,1.3,9.7     c2.6-0.7,5.2-1.3,7.7-2c8.1-2,15.7-4.1,22.8-6c0.3-0.3,0.6-0.7,0.8-1c1-1.2,2-2.5,3-3.8c2.1-2.6,4.1-5.2,6.2-7.8     c2.1-2.6,4.1-5.2,6.2-7.7c1-1.3,2-2.5,3-3.8c1-1.2,2-2.4,2.8-3.7C720.7,648.8,722.4,646.2,723.9,643.8z M662.1,688.4     c0-0.2-0.1-0.6-0.1-0.8c-0.4-3-1-6.2-1.6-9.5c-0.3-1.6-0.6-3.3-0.9-5c-0.3-1.7-0.6-3.4-1-5.2c-0.6-3.5-1.1-7.1-1.7-10.7     c-0.4-3.6-0.8-7.2-1.1-10.8c-0.2-1.7-0.3-3.5-0.5-5.2c-0.1-1.7-0.3-3.4-0.4-5.1c-0.4-3.3-0.6-6.6-1-9.6c-0.4-3-0.8-5.9-1.2-8.5     c-0.1-0.6-0.2-1.2-0.3-1.8c-0.6,0.4-1.2,0.7-1.8,1.1c-1.4,0.6-2.9,1.4-4.4,1.9c-5.8,2.1-12,3.3-17.3,5     c-10.5,4.4-20.5,12-31.8,17.4c-5.5,2.6-11.7,4.9-18.5,4.7c0,0.2,0.1,0.4,0.1,0.5c0.7,2.5,1.3,5.2,2,8.1c0.8,2.8,1.8,5.8,2.7,8.9     c0.4,1.6,0.9,3.1,1.4,4.7c0.5,1.6,1.1,3.2,1.7,4.8c1.2,3.2,2.2,6.6,3.6,9.6c0.6,1.6,1.2,3.1,2,4.6c0.8,1.5,1.6,2.9,2.3,4.4     c0.8,1.5,1.7,2.9,2.6,4.2c0.9,1.4,1.7,2.8,2.6,4.1c1.9,2.6,3.7,5.2,5.5,7.6c1.8,2.4,3.5,4.6,5,6.8c0.2,0.3,0.4,0.6,0.6,0.9     c1.6-0.7,3.2-1.4,4.8-2c7.2-2.9,14.1-6.3,20.8-9.5c3.3-1.7,6.4-3.5,9.6-5.2c1.5-0.8,3.1-1.7,4.6-2.6c1.5-0.9,2.9-1.9,4.4-2.8     c1.4-1,2.8-1.9,4.3-2.9l2.1-1.4L662.1,688.4z M605.5,714.9c-1.2-1.4-2.4-2.9-3.7-4.5c-1.9-2.3-3.8-4.8-5.9-7.4     c-1-1.3-1.9-2.7-3-4.1c-1-1.4-2-2.8-2.8-4.4c-0.8-1.6-1.7-3.1-2.6-4.7c-0.9-1.6-1.4-3.3-2.2-4.9c-1.5-3.3-2.5-6.6-3.6-9.9     c-0.5-1.6-1.1-3.2-1.6-4.8c-0.5-1.6-1-3.2-1.4-4.8c-0.9-3.2-1.8-6.3-2.5-9.2c-0.6-3-1.1-5.8-1.5-8.4c-0.2-0.6-0.2-1.2-0.3-1.9     c-5.3-1.1-10-3.4-14.4-6.3c-5.4-3.4-10.1-7.4-15-10.6c-4.7-3.2-9.7-5.5-15-6.5c0,0.6,0,1.2,0,1.8c0,2.6,0,5.4,0,8.4     c0,3-0.1,6.1-0.2,9.4c0,1.6,0,3.3-0.1,4.9c-0.1,1.7-0.1,3.4-0.1,5.1c-0.2,3.4-0.2,6.9-0.4,10.3c-0.2,3.4-0.3,6.8-0.5,10.2     c-0.1,1.7-0.2,3.4-0.2,5c-0.1,1.7-0.2,3.3-0.2,5c-0.2,1.4-0.3,2.9-0.3,4.3l1.6,0.8l5.8,2.8c3.9,1.8,7.8,3.5,11.7,5.3     c7.8,3.4,15.6,6.6,23.5,9.5c7.8,2.8,15.6,5.4,23.5,7.4C597.7,713.4,601.6,714.4,605.5,714.9z M525.7,623.9c0-0.7,0.1-1.4,0.2-2     c-0.3,0-0.6-0.1-0.9-0.1l-4.5,0.3l-9,0.6c-6,0.4-12.1,0.8-18.1,1.2c-12,0.8-24,1.6-35.9,2.4c-11.8,0.8-23.4,1.5-34.9,2.2     c-22.8,1.9-44.9,4.7-65.7,7.9c-10.4,1.4-20.5,3.3-30.3,4.9c-4.3,0.8-8.6,1.4-12.7,2.2c0.6,1.4,1.2,2.8,1.8,4.4     c1,2.4,2.6,4.7,3.9,7.3c0.7,1.2,1.4,2.5,2.1,3.8c0.7,1.3,1.6,2.5,2.5,3.7c1.7,2.5,3.4,5,5.1,7.6c1.9,2.4,3.8,4.9,5.7,7.3     c0.9,1.1,1.8,2.4,2.8,3.5c1,1.1,1.9,2.2,2.9,3.3c0.5,0.5,0.8,1,1.2,1.4c1.5-0.4,3-0.7,4.6-1c15.7-1.2,31.2,2.4,47.3,4.2     c7.9,1,16.2,1.1,24.6,1.3c4.2,0.1,8.4,0.2,12.6,0.3c4.2,0.2,8.5-0.3,12.7-0.4c17-0.6,34.4-2,51.8-3.3c8.7-0.4,17.5-0.8,26.2-1.2     l1.4-0.1c0-1.2,0-2.4,0-3.5c0-1.6,0-3.2,0-4.9c0-1.7,0.1-3.4,0.1-5.1c0-3.4,0.2-6.9,0.3-10.4c0.2-3.4,0.2-6.9,0.4-10.3     c0-1.7,0.2-3.4,0.2-5c0.1-1.6,0.2-3.3,0.2-4.9c0.2-3.2,0.4-6.4,0.5-9.3C525.3,629.3,525.4,626.5,525.7,623.9z M337.4,687.5     c-1-1-2-2.1-3-3.2c-1.1-1-2-2.3-3-3.5c-2-2.4-4-4.9-6-7.3c-1.8-2.6-3.6-5.3-5.3-7.9c-0.8-1.4-1.8-2.6-2.5-3.9     c-0.7-1.4-1.4-2.7-2.1-4.1c-1.3-2.6-2.8-5.1-3.8-7.7c-0.5-1.3-0.9-2.6-1.4-3.8l-2,1.9c-1.6,1.7-3.2,3.3-4.8,5     c-6.2,6.6-12.1,13.3-18,19.3c-6,5.9-11.8,11.6-19,15.2c-0.7,0.3-1.5,0.6-2.2,0.8c4.1,1.2,8.6,2.6,13.3,4c5,1.6,10.5,3.3,16.1,5.6     c2.8,1.1,5.6,2.3,8.5,3.9c1.4,0.7,2.8,1.6,4.2,2.4c1.1,0.8,0.5,0.4,2.5-0.4c5.8-2.6,11.3-6.4,17.4-10.1     C329.5,691.3,333.3,689.1,337.4,687.5z"/><path d="M684.7,263.6c0,0-0.5,0-1.4,0.1c-0.9,0-2.3,0.1-4,0.2c-3.4,0.1-8.4,0-14.3-0.3c-2.9-0.2-6.1-0.4-9.4-0.7     c-3.3-0.3-6.9-0.1-10.6-0.2c-1.8-0.1-3.7-0.1-5.6-0.2c-1.9,0-3.8,0-5.7-0.1c-3.8-0.1-7.7-0.3-11.7-0.4c-3.9,0-7.8,0-11.7,0     c-1.9,0-3.8,0-5.7-0.1c-1.9,0-3.8,0-5.6,0c-3.6-0.1-7.2-0.2-10.6-0.2c-3.4,0-6.6,0-9.5-0.2c-5.9-0.2-10.8-0.7-14.3-1.1     c-3.4-0.4-5.4-0.8-5.4-0.8s1.9-0.4,5.4-0.9c3.4-0.5,8.4-1,14.3-1.3c2.9-0.2,6.1-0.2,9.5-0.3c3.4,0,6.9-0.1,10.6-0.2     c1.8,0,3.7-0.1,5.6-0.1c1.9,0,3.8,0,5.7,0c3.9,0,7.8,0,11.8,0c3.9,0.2,7.9,0.3,11.8,0.5c2,0.1,3.8,0.2,5.7,0.3     c1.9,0.1,3.8,0.2,5.6,0.3c3.7,0.3,7.2,0.3,10.6,0.8c3.3,0.4,6.5,0.8,9.5,1.2c5.9,0.8,10.7,1.7,14.1,2.5c1.7,0.4,3,0.8,3.9,0.9     C684.2,263.5,684.7,263.6,684.7,263.6z"/><path d="M680.6,270.9c0.5,0.2,0.8,0.2,0.8,0.2s-0.2,0.1-0.8,0.2c-0.4,0.2-1.1,0.4-2,0.6c-1.8,0.4-4.3,0.9-7.3,1.2     c-1.5,0.1-3.2,0.2-4.9,0.3c-1.7,0.1-3.6,0.2-5.5,0.2c-0.9,0-1.9,0.1-2.9,0.2c-1,0.1-2,0.1-3,0.1c-2,0.1-4,0.1-6,0.2     c-2,0-4,0.1-6,0.1c-1,0-2,0-3,0c-1,0-2,0-2.9,0c-1.9-0.1-3.7-0.1-5.5-0.1c-1.7,0-3.4-0.1-4.9-0.2c-3-0.2-5.6-0.7-7.3-1.1     c-1.8-0.4-2.8-0.8-2.8-0.8s1-0.4,2.8-0.9c1.8-0.5,4.3-1,7.3-1.3c1.5-0.2,3.2-0.2,4.9-0.3c1.7-0.1,3.6-0.1,5.5-0.2     c0.9-0.1,1.9-0.1,2.9-0.1c1,0,2,0,3-0.1c2,0,4,0,6-0.1c2,0,4,0,6,0c1,0,2,0,3,0c1,0,2,0,2.9,0c1.9,0,3.7,0.1,5.5,0.2     c1.7,0,3.4,0,4.9,0.2c3,0.2,5.6,0.6,7.3,1C679.5,270.6,680.2,270.7,680.6,270.9z"/><path d="M658.2,242.5c0.4,0.2,0.7,0.3,0.7,0.3s-0.2,0.1-0.7,0.2c-0.5,0.1-1.2,0.2-2,0.3c-1.7,0.3-4.1,0.6-7.1,0.6     c-1.4,0-3,0-4.7-0.1c-1.7,0-3.4-0.2-5.2-0.3c-0.9,0-1.8-0.1-2.7-0.2c-1,0-1.9-0.1-2.8-0.2c-1.9-0.2-3.8-0.4-5.7-0.6     c-1.9-0.2-3.8-0.4-5.7-0.5c-0.9-0.1-1.9-0.2-2.8-0.3c-1-0.1-1.8-0.2-2.7-0.4c-1.8-0.2-3.5-0.5-5.1-0.6c-1.6-0.1-3.2-0.2-4.6-0.4     c-2.8-0.4-5.2-1-6.9-1.5c-1.7-0.5-2.6-0.9-2.6-0.9s1-0.4,2.6-0.8c1.7-0.3,4.1-0.7,7.1-0.8c1.5-0.1,3,0,4.7,0     c1.7,0,3.4,0.2,5.2,0.3c0.9,0,1.8,0.1,2.7,0.2c1,0.1,1.9,0.1,2.8,0.2c1.9,0.2,3.8,0.3,5.7,0.5c2,0.3,3.8,0.5,5.7,0.8     c1,0.1,1.8,0.2,2.8,0.3c0.9,0.1,1.8,0.3,2.7,0.4c1.8,0.2,3.5,0.6,5.2,0.7c1.6,0.2,3.1,0.3,4.6,0.6c2.8,0.4,5.2,1,6.9,1.5     C657.1,242.1,657.7,242.3,658.2,242.5z"/><path d="M643.9,580.8c1,0,1.6,0,1.6,0s-0.5,0.1-1.5,0.4c-1,0.2-2.5,0.5-4.4,1c-3.7,0.8-9.1,1.9-15.7,2.8c-3.2,0.4-6.8,1-10.5,1.5     c-3.7,0.5-7.7,0.8-11.8,1.2c-2,0.2-4.1,0.4-6.2,0.6c-2.1,0.2-4.2,0.4-6.4,0.6c-4.3,0.4-8.7,0.7-13.1,1.1     c-4.3,0.2-8.7,0.4-13.1,0.6c-2.1,0.1-4.3,0.2-6.4,0.2c-2.2,0-4.2,0.1-6.3,0.2c-4.1,0.1-8.1,0.3-11.9,0.2c-3.7,0-7.3,0-10.6-0.2     c-6.6-0.3-12.1-0.7-15.9-1.2c-3.8-0.4-6-0.8-6-0.8s2.2-0.4,6-0.9c3.8-0.4,9.3-1,15.9-1.2c3.2-0.2,6.8-0.2,10.5-0.3     c3.7,0,7.7-0.4,11.8-0.6c2-0.1,4.1-0.2,6.2-0.4c2.1-0.1,4.2-0.2,6.4-0.3c4.3-0.2,8.7-0.4,13-0.6c4.3-0.3,8.7-0.6,13-0.9     c2.1-0.2,4.2-0.3,6.3-0.4c2.1-0.1,4.2-0.2,6.2-0.4c4.1-0.3,8-0.4,11.8-0.8c3.7-0.4,7.3-0.7,10.5-1c6.5-0.5,12-0.6,15.9-0.7     C641.4,580.8,642.9,580.8,643.9,580.8z"/><path d="M635.1,456.2c-0.2,0.2-1.4,1.3-3.2,2.9c-2.1,1.8-5.4,4.1-9.5,6.5c-2,1.2-4.2,2.5-6.7,3.7c-2.4,1.2-5,2.4-7.7,3.7     c-1.3,0.7-2.8,1.1-4.2,1.7c-1,0.4-2,0.8-3.1,1.2c-0.4,0.1-0.8,0.3-1.3,0.5l-0.8,0.3c0,0,0,0,0,0v0.4l0,4.2c0,3.2,0,6.3,0,9.4     c0,1.5,0,3.1,0,4.6c0,1.5,0,3,0,4.5c-0.1,2.9-0.1,5.7-0.2,8.4c0,2.7-0.1,5.3-0.2,7.6c-0.2,4.7-0.6,8.6-1,11.4     c-0.2,1.3-0.3,2.4-0.5,3.1c-0.1,0.8-0.2,1.2-0.2,1.2s-0.1-0.4-0.2-1.2c-0.2-0.7-0.4-1.8-0.6-3.1c-0.4-2.8-0.9-6.7-1.2-11.4     c-0.1-2.3-0.2-4.9-0.4-7.6c-0.1-2.7-0.2-5.5-0.3-8.4c0-1.5-0.1-3-0.2-4.5c0-1.5-0.1-3-0.1-4.6c-0.1-3.1-0.2-6.2-0.2-9.4l-0.1-4.7     v-2.2v-0.2c-5.8-3.2-12.5-7-19.8-11c-6.6-3.6-13.8-7.5-21.4-11.6c-3.8-2.1-7.7-4.2-11.7-6.4c-2-1.1-4-2.1-6-3.3     c-2-0.5-3.9-1.5-6.2-1.8c-4.4-0.8-9-1.2-13.8-1c-4.8,0-9.6,0.3-14.6,0.7c-4.9,0.4-9.9,0.8-15.1,0.8c-5,0.1-10.1,0.2-15.1,0.3     c-10.1,0.1-20.2,0.3-30.1,0.4c-5,0-9.9,0.1-14.8,0.2c-4.8,0-9.6,0.1-14.4,0.2c-9.4,0.4-19-1-26.7,0.6c-3.8,1-7.1,3-10.1,5.4     c-3.2,2.6-6.3,5.1-9.3,7.4c-10.4,8.2-19.4,15.1-26.3,20.1c0.4,1.5,0.7,3.1,0.7,4.6c-0.1,1.5-0.1,3.1-0.4,4.7     c-0.1,1.5-0.6,2.9-0.9,4.3c-0.9,2.8-1.9,5.2-2.9,7.5c-1,2.3-2.1,4.5-3.2,6.3c-2.1,3.8-4.2,6.7-5.6,8.8c-0.7,1-1.3,1.8-1.7,2.4     c-0.4,0.6-0.6,0.8-0.6,0.8s0-0.4,0.2-1c0.2-0.7,0.4-1.7,0.7-2.9c0.7-2.5,2-5.9,3.7-9.8c0.8-2,1.8-4.1,2.7-6.3     c0.9-2.2,1.7-4.6,2.3-7.1c0.2-1.2,0.5-2.5,0.6-3.7c0.2-1.3,0.2-2.5,0.2-3.7c-0.1-0.5-0.2-1-0.2-1.5c-0.2-0.6-0.3-1.1-0.4-1.7     c-0.4-1.2-0.9-2.4-1.6-3.5c-1.2-1.9-3.7-3.8-5.6-5.7c-1-0.9-2-1.9-3-2.8c-1-1-2.1-1.8-3.1-2.6c-2-1.7-4-3.3-5.9-4.9     c-1.9-1.5-3.8-3-5.4-4.4c-3.3-2.8-5.8-5.5-7.5-7.4c-1.5-1.7-2.3-2.8-2.5-3.1c0.3,0.1,1.6,0.6,3.6,1.7c2.2,1.2,5.3,3,8.9,5.4     c1.8,1.2,3.7,2.5,5.7,4c2,1.5,4.1,3.1,6.3,4.7c1,0.8,2.2,1.6,3.3,2.5c1,0.9,2.1,2,3.2,2.9c2.1,2,4.3,3.6,6.4,6.5     c0.6,0.8,1.1,1.7,1.4,2.7c6.3-5.6,14.6-12.9,24.4-21.2c2.9-2.4,5.9-4.9,9-7.5c3.3-2.8,7.2-5.3,11.9-6.5c4.6-1.2,9.3-1.1,13.9-1.1     c4.5,0.1,9.1,0.1,13.9,0c4.7-0.1,9.5-0.2,14.4-0.3c4.9,0,9.8-0.1,14.8-0.2c9.9-0.2,20-0.4,30.1-0.5c5,0,10.1-0.1,15.1-0.2     c4.9-0.1,9.9-0.4,14.8-0.8c5-0.3,9.9-0.6,14.9-0.5c4.9,0,9.9,0.3,14.8,1.4c2.4,0.4,4.8,1.6,7.1,2.3c2,1.1,4.1,2.3,6,3.4     c4,2.2,7.9,4.4,11.7,6.6c7.5,4.3,14.7,8.4,21.3,12.2c7.5,4.4,14.2,8.7,19.9,12.3l2.4-0.9c1.4-0.5,2.8-1,4.2-1.5     c1.4-0.6,2.8-0.9,4.1-1.6c2.6-1.2,5.2-2.3,7.7-3.3c2.4-1,4.7-2.2,6.8-3.2c4.3-1.9,7.9-3.4,10.5-4.4     C633.2,456.7,634.8,456.2,635.1,456.2z"/><path d="M623,564.8c0.6,0.1,0.9,0.2,0.9,0.2s-0.3,0.1-0.8,0.3c-0.6,0.1-1.4,0.3-2.5,0.6c-2.1,0.6-5.1,1.2-8.8,1.6     c-1.8,0.3-3.8,0.4-5.8,0.6c-2.1,0.2-4.3,0.5-6.6,0.7c-1.2,0.2-2.3,0.3-3.5,0.4c-1.1,0.2-2.3,0.3-3.5,0.4     c-2.4,0.3-4.8,0.5-7.2,0.8c-2.4,0.1-4.9,0.4-7.3,0.5c-1.2,0.1-2.4,0.2-3.6,0.3c-1.2,0-2.4,0.1-3.5,0.2c-2.3,0.1-4.5,0.3-6.6,0.3     c-2.1,0-4.1,0-6,0c-3.7-0.1-6.8-0.5-8.9-0.9c-2.1-0.4-3.4-0.8-3.4-0.8s1.2-0.5,3.4-1c2.1-0.6,5.1-1.1,8.8-1.5     c1.8-0.2,3.8-0.3,5.9-0.4c2-0.1,4.2-0.4,6.5-0.6c1.2-0.1,2.3-0.2,3.5-0.4c1.2-0.1,2.3-0.2,3.5-0.3c2.4-0.2,4.8-0.4,7.2-0.6     c2.4-0.2,4.9-0.4,7.3-0.5c1.2-0.1,2.4-0.1,3.5-0.2c1.2,0,2.3-0.1,3.5-0.2c2.3-0.1,4.5-0.2,6.6-0.3c2.1-0.1,4.1-0.1,6-0.1     c3.7,0,6.8,0.3,8.9,0.6C621.6,564.6,622.5,564.7,623,564.8z"/><path d="M616.7,592.3c0.4,0.2,0.6,0.2,0.6,0.2s-0.2,0.1-0.6,0.3c-0.3,0.1-0.9,0.3-1.5,0.5c-1.4,0.4-3.3,0.9-5.6,1.2     c-1.2,0.1-2.4,0.2-3.8,0.3c-1.4,0.1-2.8,0.2-4.2,0.3c-0.7,0.1-1.5,0.1-2.2,0.2c-0.8,0-1.5,0-2.3,0.1c-1.5,0-3.1,0.1-4.7,0.1     c-1.5,0-3.1,0-4.6,0.1c-0.8,0-1.5,0-2.3,0c-0.8-0.1-1.5-0.1-2.2-0.1c-1.5,0-2.9,0-4.2-0.1c-1.4,0-2.6,0-3.8-0.2     c-2.4-0.2-4.3-0.7-5.7-1.1c-1.4-0.4-2.1-0.8-2.1-0.8s0.8-0.4,2.1-0.9c1.4-0.4,3.3-1,5.7-1.3c1.1-0.2,2.4-0.2,3.7-0.3     c1.3,0,2.7-0.2,4.2-0.3c0.7,0,1.5,0,2.2-0.1c0.8,0,1.5,0,2.2,0c1.6,0,3.1-0.1,4.6-0.1c1.6,0,3.1,0,4.6,0c0.8,0,1.5,0,2.3,0     s1.5,0,2.2,0c1.4,0,2.8,0.1,4.2,0.1c1.3,0.1,2.6,0.1,3.8,0.2c2.3,0.2,4.3,0.6,5.7,1C615.8,592,616.3,592.2,616.7,592.3z"/><path d="M547.4,309.3c0.1,2.1,0,4.9-0.2,8.4c0,0.9-0.2,1.8-0.2,2.9c0,0.4-0.1,0.9-0.1,1.4c-1.2,10.7-4,26.9-15.1,42.9     c-2.9,3.9-6.2,7.7-10.4,10.9c-4,3.4-9.1,6-14.7,7.3c-5.5,1.3-11.7,1.4-17.5-0.4c-5.8-1.8-11.1-5-15.6-9.1     c-4.7-4-8.3-9.1-11.6-14.3c-3.3-5.3-5.6-11.1-7.8-17c-1.8-5.4-3.2-11-4.1-16.7c-1.4,10.6-4.7,25.1-14.7,39.4     c-2.9,3.9-6.2,7.7-10.4,10.9c-4.1,3.4-9.1,6-14.7,7.3c-5.5,1.3-11.7,1.4-17.5-0.4c-5.8-1.8-11.1-5-15.7-9.1     c-4.6-4-8.3-9.1-11.6-14.3c-3.3-5.3-5.7-11.1-7.8-17c-1.7-5.2-3.1-10.6-4-16.2c-0.2-0.8-0.3-1.7-0.4-2.6     c-0.9-6.1-1.4-12.4-1.4-18.6c0.1-12.7,2-25.4,6-37.4c2.2-5.9,4.6-11.7,7.9-17c3.3-5.2,6.9-10.3,11.6-14.3c4.6-4,9.9-7.3,15.6-9     c5.7-1.8,11.8-1.7,17.4-0.4c5.5,1.3,10.5,4,14.6,7.3c4.2,3.2,7.5,7,10.3,10.9c10.1,14.5,13.4,29.2,14.8,39.8     c1-5.8,2.4-11.6,4.3-17.2c2.2-5.9,4.5-11.7,7.8-17c3.3-5.2,7-10.3,11.6-14.3c4.5-4,9.8-7.3,15.6-9c5.7-1.8,11.9-1.7,17.4-0.4     c5.6,1.3,10.5,4,14.6,7.3c4.2,3.2,7.5,7,10.4,10.9c11.1,15.9,13.9,32,15.2,42.8c0.5,5.5,0.7,9.8,0.5,12.7c0,2.9,0,4.4,0,4.4     s-0.2-1.6-0.4-4.4c-0.2-2.9-0.7-7.2-1.6-12.5c-2-10.5-5.8-26.1-16.7-40.8c-2.8-3.5-5.9-7.1-9.8-9.9c-3.8-3-8.2-5.3-13.1-6.3     c-4.8-1.1-10.1-1.1-15.1,0.5c-5,1.6-9.6,4.5-13.8,8.2c-4.1,3.7-7.5,8.4-10.5,13.3c-3,4.9-5.2,10.5-7.3,16.1     c-3.7,11.4-5.5,23.6-5.5,35.8c0,3.8,0.2,7.7,0.6,11.6c0.1,0.1,0.1,0.1,0.1,0.1l2-0.8c1.7-0.8,3.5-1.6,5.3-2.1l5.3-1.9l5.5-1.5     c3.6-1,7.3-1.8,10.9-2.4c1.8-0.2,3.6-0.5,5.4-0.8c1.8-0.1,3.6-0.3,5.4-0.4c7.1-0.4,14.1-0.4,20.6,0.5c6.5,0.7,12.6,2.3,18,4     c5,1.6,9.5,3.7,13.3,5.9c0.4-3.1,0.7-5.7,0.8-7.6c0.3-2.9,0.4-4.5,0.4-4.5S547.3,306.4,547.4,309.3z M545.2,321.8     c0.1-0.7,0.2-1.3,0.3-2c-4-1.9-8.6-3.8-13.9-5.3c-5.3-1.4-11.1-2.8-17.4-3.3c-6.2-0.7-12.9-0.7-19.8-0.1     c-1.7,0.2-3.4,0.4-5.1,0.6c-1.7,0.3-3.4,0.6-5.2,0.8c-3.5,0.6-7,1.4-10.4,2.4l-5.2,1.6l-5.1,1.8c-1.7,0.6-3.4,1.4-5,2l-3.1,1.4     c-0.2,0-0.3,0.1-0.4,0.2c0.9,6.3,2.4,12.6,4.3,18.6c2,5.6,4.2,11.1,7.3,16c3,4.9,6.4,9.6,10.5,13.3c4.1,3.7,8.8,6.6,13.7,8.2     c4.9,1.7,10.2,1.6,15,0.5c4.8-1,9.3-3.3,13-6.3c3.9-2.8,7-6.4,9.8-9.9C539.4,347.8,543.1,332.3,545.2,321.8z M449,290.1     c-0.1-0.8-0.2-1.5-0.4-2.3c-2-10.5-5.7-26.1-16.6-40.8c-2.8-3.5-6-7.1-9.9-9.9c-3.7-3-8.2-5.3-13.1-6.3     c-4.8-1.1-10.1-1.1-15.1,0.5c-5,1.6-9.7,4.5-13.8,8.2c-4.2,3.7-7.5,8.4-10.5,13.3c-3.1,4.9-5.3,10.5-7.3,16.1     c-3.7,11.4-5.5,23.6-5.6,35.8c0,5.4,0.4,10.9,1.2,16.3c4-1.9,8.7-3.9,13.9-6c5.3-2,11.1-4,17.5-5.7c6.3-1.7,13.2-2.8,20.4-3.3     c3.6-0.1,7.3-0.2,11,0.2c3.7,0.1,7.4,1,11.2,1.6c5.6,1.4,11.2,3.2,16.5,5.7c-0.2-2.9-0.4-5.8-0.4-8.8     C448.1,299.9,448.4,295,449,290.1z M448.6,321.8c0.2-0.7,0.2-1.5,0.4-2.1c-5.8-3-12-5.2-18.3-6.8c-3.5-0.6-6.9-1.4-10.4-1.5     c-3.5-0.4-6.9-0.3-10.3-0.3c-6.8,0.4-13.4,1.2-19.5,2.8c-6.1,1.4-11.9,3.3-17.2,5c-5.4,2-10.4,3.7-14.8,5.2     c0.9,5.5,2.3,11,4,16.3c2,5.6,4.2,11.1,7.3,16c3,4.9,6.3,9.6,10.5,13.3c4.1,3.7,8.7,6.6,13.7,8.2c4.9,1.7,10.2,1.6,15,0.5     c4.8-1,9.3-3.3,13-6.3c3.8-2.8,7-6.4,9.8-9.9C442.8,347.8,446.5,332.3,448.6,321.8z"/><path d="M516.6,191.2c1.2,0.1,1.8,0.2,1.8,0.2s-0.6,0.1-1.8,0.3c-1.1,0.2-2.8,0.4-5,0.8c-4.3,0.8-10.3,2-17.4,4.1     c-3.5,1-7.3,2.3-11.2,3.9c-3.8,1.6-7.8,3.5-11.5,6c-2,1.1-3.7,2.6-5.5,4c-1.7,1.5-3.4,3-4.8,4.8l-2.1,2.7l-1.7,2.9     c-0.7,0.9-1,2-1.4,3.1l-0.3,0.8l-0.6,1.8c-0.4,1.4-0.6,2.6-0.9,3.8l-1.6,7.2c0,1.1-0.4,0.1-0.6-0.4l-0.8-1.7l-1.6-3.4l-3.3-6.7     c-0.6-1.1-1.2-2.1-1.8-3.2c-1.1-2.1-2.4-4.1-3.6-6.1c-1.3-1.9-2.6-3.9-3.9-5.7c-2.6-3.7-5.6-6.9-8.6-9.8c-3-2.8-6.2-5-9.2-6.9     c-6.1-3.8-12-5.5-16.2-6.3c-2.1-0.6-3.8-0.6-5-0.8c-1.2-0.2-1.8-0.3-1.8-0.3s0.6-0.1,1.8-0.2c1.2-0.1,2.9-0.5,5.1-0.4     c4.5-0.1,11.1,0.8,18,4.4c3.4,1.8,6.9,4.2,10.3,7.2c3.3,2.9,6.6,6.3,9.5,10.1c1.5,1.9,2.8,3.9,4.2,5.9c1.4,2,2.6,4.2,3.9,6.3     c0.6,1.1,1.2,2.2,1.8,3.3c0,0.1,0,0.1,0,0.1l0.4-0.9c0.5-1.3,0.9-2.6,1.7-3.7l2-3.4l2.5-3c1.7-2,3.6-3.7,5.5-5.3     c2-1.5,4-3,6.1-4.2c4.1-2.6,8.4-4.4,12.5-6c4.1-1.5,8.1-2.7,11.8-3.5c7.4-1.7,13.8-2.1,18.2-2     C513.6,190.9,515.4,191.1,516.6,191.2z"/><path d="M510.8,491.1c0.8,0.4,1.3,0.6,1.3,0.6s-0.5,0-1.4-0.1c-1-0.2-2.3-0.4-4.1-0.6c-3.4-0.5-8.4-1.2-14.4-2.1     c-2.9-0.4-6.2-0.8-9.6-1.2c-3.5-0.4-7-0.7-10.8-1c-1.8-0.1-3.7-0.2-5.7-0.3c-1.9-0.1-3.8-0.1-5.8-0.2c-3.9-0.1-7.9,0-11.9,0     c-3.9,0.1-7.9,0.2-11.8,0.6c-2,0.2-3.9,0.3-5.8,0.5c-1.9,0.2-3.8,0.5-5.6,0.7c-3.7,0.4-7.2,1.2-10.6,1.8     c-3.3,0.8-6.5,1.4-9.3,2.3c-5.8,1.4-10.5,3-13.9,4c-2.9,1-4.8,1.6-5.2,1.7c0.4-0.4,1.9-1.6,4.4-3.2c3-1.9,7.6-4.4,13.4-6.5     c2.8-1.1,6.1-1.8,9.5-2.8c3.4-0.8,7-1.7,10.8-2.2c1.9-0.3,3.8-0.6,5.8-0.9c1.9-0.2,3.9-0.4,5.9-0.6c4-0.4,8.1-0.5,12.2-0.7     c4.1,0,8.2,0,12.2,0.2c2,0.1,4,0.1,5.9,0.3c2,0.2,3.9,0.3,5.8,0.5c3.8,0.4,7.5,0.8,10.9,1.4c3.4,0.6,6.7,1.1,9.7,1.8     c6,1.3,10.8,2.9,14.1,4.2C508.6,490.2,509.9,490.7,510.8,491.1z"/><path d="M507.8,166l-0.6,1c-0.1,0-0.2-0.1-0.4-0.2c-1.9-1.2-4-2.7-6.2-4.3c-6.4-4.8-13.7-11.4-21.1-19.9     c-7.4-8.4-14.8-18.8-22.2-30.4c-3.7-5.8-7.4-11.9-11.2-18.2c-1.9-3.1-3.8-6.4-5.8-9.6l-0.9-1.4c0-0.1-0.1-0.2-0.1-0.1     c0,0,0,0.1-0.1,0.1c-1.8,0.2-3.5,0.5-5.3,0.8c-15.3,2.3-31.1,7-47.4,12.4c-8.1,2.7-16.3,5.5-24.7,8.4c-4.2,1.4-8.4,2.9-12.7,4.1     c-4.3,1.3-8.5,2.8-13.1,3.7c-8.8,2-18,3.1-25.4,6.9c-3.5,1.9-6.3,4.9-8.8,8.7c-2.5,3.6-4.7,7.5-6.9,11.4c-3.1,6-6.3,12-9.6,17.9     c0.2,0,0.5,0,0.7,0c0.8-0.1,1.7-0.2,2.6-0.2c1.7-0.1,3.5-0.2,5.3-0.3c1.8-0.1,3.6-0.3,5.4-0.4c0.9,0,1.8-0.1,2.6-0.1     c0.8,0,1.7-0.1,2.6-0.1c1.6-0.1,3.3-0.1,4.8-0.2c1.5-0.1,3-0.1,4.4-0.1c2.7,0,5,0.3,6.6,0.6c0.7,0.1,1.4,0.3,1.8,0.3     c0.4,0.2,0.6,0.2,0.6,0.2s-0.2,0.1-0.6,0.3c-0.4,0.1-1,0.4-1.8,0.7c-1.5,0.5-3.7,1.1-6.4,1.6c-1.3,0.2-2.7,0.4-4.3,0.6     c-1.5,0.2-3.1,0.4-4.8,0.6c-0.8,0.1-1.7,0.2-2.5,0.4c-0.9,0-1.7,0.1-2.6,0.2c-1.7,0.2-3.5,0.4-5.3,0.6c-1.8,0.1-3.6,0.2-5.4,0.3     c-0.9,0-1.8,0.1-2.6,0.1c-0.9,0-1.7,0.1-2.6,0.1c-0.4,0-0.9,0-1.3,0c-2.6,4.6-5.3,9.2-8,13.7c2.5-0.3,5.1-0.5,7.8-0.8     c2.1-0.2,4.2-0.4,6.3-0.7c2.1-0.2,4.3-0.5,6.5-0.7c4.3-0.5,8.8-1,13.3-1.6c4.4-0.5,8.9-1,13.3-1.5c2.2-0.2,4.3-0.4,6.5-0.6     c2.1-0.2,4.3-0.4,6.4-0.6c4.2-0.3,8.2-0.8,12.1-1c3.8-0.2,7.5-0.4,10.9-0.6c6.7-0.4,12.4,0.1,16.4,0.2c1.9,0.1,3.5,0.2,4.5,0.3     c1,0.1,1.6,0.2,1.6,0.2s-0.6,0.1-1.6,0.3c-1,0.2-2.6,0.4-4.5,0.7c-3.9,0.6-9.5,1.1-16.2,2c-3.3,0.3-6.9,0.7-10.7,1.1     c-3.8,0.4-7.9,0.9-12,1.4c-2.1,0.2-4.2,0.5-6.3,0.8c-2.1,0.2-4.3,0.5-6.5,0.8c-4.3,0.6-8.8,1.1-13.3,1.7c-4.4,0.5-8.9,1-13.3,1.5     c-2.2,0.2-4.4,0.4-6.5,0.7c-2.1,0.2-4.3,0.4-6.4,0.6c-3.9,0.3-7.7,0.7-11.3,0.9c-1.1,1.9-2.3,3.9-3.4,5.8     c-4.7,7.7-9.5,15.3-14.6,22.6c-2.5,3.7-5.1,7.2-7.8,10.7c-2.6,3.5-5.3,7-8.1,10.2c-5.5,6.7-11.4,12.8-17.3,18.7     c-6.1,5.8-12.8,10.4-18.1,15.9c-5.5,5.3-8.9,11.6-10.3,18.8c-1,3.4-1.4,7.1-2.1,10.5c-0.4,3.5-0.9,6.9-1.2,10.3     c-1.1,13.5-1.3,26.1-2.1,37.3c-0.3,3.9-0.6,7.6-1,11.2c3.2,1.7,6.9,3.7,9.6,7.2c2.9,3.6,4.9,8,6.5,12.6     c3.1,9.2,4.5,19.5,6.5,30.1c0.9,5.3,2.3,10.4,3.6,16c1.3,5.5,2.6,11.2,4,17c1.3,5.8,2.7,11.6,4.1,17.6c1.4,5.9,2.8,11.9,4.2,17.9     c2.9,12,5.9,24.3,8.9,36.5l2.2,9.2l1.1,4.6l0.8,4.8c1.1,6.4,1.2,12.8,1.1,19.2c-0.4,6.3-1,12.5-1.8,18.6c-0.9,6-2,12-3.1,17.8     c-2.2,11.6-4.5,22.8-5.7,33.4c-1.3,10.6-1.5,20.8-0.2,29.9c0.1,0.7,0.2,1.4,0.3,2.1c0.1,0.3,0.1,0.5,0.2,0.8     c-0.8,0.8-1.7,1.7-2.7,2.7l-0.6-0.6c0.1-0.1,0-0.2-0.1-1c-0.2-1.1-0.4-2.3-0.7-3.5c-1.6-9.6-1.4-20.1-0.3-31     c1.1-10.9,3.3-22.2,5.4-33.8c1-5.8,2.1-11.7,2.9-17.7c0.8-5.9,1.4-12,1.6-18.1c0.1-6.1,0-12.2-1.1-18.2l-0.8-4.5l-1.1-4.6     l-2.3-9.2c-2.9-12.2-5.9-24.5-8.9-36.6c-1.4-6-2.8-12-4.2-17.9c-1.3-5.9-2.7-11.8-4-17.5c-1.3-5.7-2.6-11.4-3.8-16.9     c-1.2-5.5-2.7-11.1-3.5-16.5c-1.8-10.7-3.2-20.8-5.9-29.7c-1.3-4.3-3-8.4-5.4-11.6c-1.8-2.6-4.5-4.4-7.1-6     c-0.6-0.4-1.2-0.7-1.8-1c-0.1-0.1-0.2-0.1-0.3-0.2c-6.5-3.5-12.7-5.7-17.7-7.7c-0.4-0.2-0.9-0.4-1.3-0.5c0,0-0.1,0.2-0.2,0.2     l-0.5-0.5c0.4-0.4,0.9-0.8,1.3-1.2c0.2,0,0.4,0.1,0.6,0.2c0.2,0.1,0.4,0.1,0.6,0.2c4.9,1.4,10.9,3.1,17.4,6     c0.2-3.3,0.4-6.7,0.5-10.3c0.4-11.1,0.2-23.7,1.1-37.5c0.2-3.4,0.6-7,1-10.5c0.6-3.6,1-7.3,2-10.9c0.5-1.8,1-3.7,1.5-5.6     c0.6-1.8,1.6-3.6,2.4-5.5c1-1.7,2.1-3.4,3.3-5.1c1.3-1.5,2.6-3.2,4-4.6c5.7-5.8,12.3-10.5,18.1-16.1c5.7-5.8,11.5-11.9,16.8-18.5     c2.7-3.2,5.3-6.6,7.9-10.1c2.6-3.4,5.2-6.9,7.6-10.6c5-7.2,9.7-14.7,14.3-22.4c0.5-0.9,1.1-1.9,1.7-2.9c0.9-1.5,1.8-3.1,2.7-4.7     c2.8-4.7,5.5-9.4,8.2-14.2c0.9-1.6,1.8-3.1,2.6-4.7c3.9-6.9,7.6-13.9,11.3-21c2.2-4,4.5-8.1,7.3-11.9c2.5-3.8,6-7.8,10.5-10.3     c4.4-2.3,9-3.6,13.5-4.6c4.5-1,9-1.8,13.3-2.8c4.2-0.8,8.4-2.3,12.7-3.5c4.2-1.2,8.4-2.7,12.6-4.1c8.4-2.8,16.6-5.5,24.8-8.3     c16.3-5.3,32.5-10,48.3-12.3l2.9-0.4l1.4-0.2c0.6-0.1,0.8,0,2-0.6l1.5-0.7c0.1-0.2-0.2-0.3-0.2-0.5l1.2,2L444,82     c1.9,3.3,3.9,6.5,5.8,9.7c3.7,6.3,7.4,12.5,10.9,18.3c7.1,11.7,14.1,22.1,21,30.6c6.9,8.6,13.8,15.4,19.9,20.6     C503.8,163,505.9,164.6,507.8,166z"/><path d="M223.9,651.1l0.6,0.6c-1.6,1.6-3.6,3.5-5.7,5.6c-0.8,0.8-1.6,1.6-2.5,2.4c-1.8,1.7-3.7,3.4-5.8,5.3l-0.3,0.6     c-0.1-0.1-0.2-0.1-0.2-0.1c-1.1,1-2.3,2.2-3.6,3.2c-1.8,1.6-3.8,3.2-5.8,5c-1.1,0.8-2.3,1.6-3.5,2.4c-1.2,0.7-2.3,1.4-3.6,2     c-0.2,0.1-0.3,0.2-0.5,0.3c-0.4,0.2-0.8,0.5-1.3,0.7c-9.1,5.2-18.3,13.1-29.2,20.4c-4.3,3-8.5,6.9-13.2,10.6     c-2.4,1.8-4.8,3.6-7.7,5.2c-2.8,1.5-6,3-9.8,3.1c0,0,0.1,0,0.2,0c-3.3,0.1-6.9-0.7-10.1-2.2c-4.8-2-9.3-4.8-13.8-7.5     c-1.3-0.8-2.6-1.6-3.9-2.4c-1.2-0.8-2.5-1.6-3.7-2.3c-6.9-3.6-15.3-4.7-23.9-7.1c-3.4-0.8-7-2.2-10.3-4.5     c-2.7-1.8-4.4-4.6-5.5-7.3c-1.1-2.7-1.6-5.5-2-8.2c-0.7-4.6-0.9-9.1-1.6-13.4c-0.8-4.3-1.6-8.7-2.7-13.1     C50.2,633.1,44,615.4,42,596.5c-0.4-4.7-0.9-9.4-0.4-14.2c-0.1-4.8,1.1-9.5,2.2-14.2c2.6-9.1,6.3-17.6,10.2-26     c1.5-3.1,3-6.2,4.5-9.3c1.2-2.4,2.3-4.9,3.5-7.3c1.3-2.6,2.5-5.2,3.7-7.8c3.6-7.9,6.6-16.4,10-24.4c6.5-16,12.5-31.6,15.2-47     c0.6-3.8,1-7.5,1.3-11.4c0.5-3.9,0.5-7.7,1.3-11.5c1-7.5,3.4-14.8,6.9-21.2c3.8-6.1,8.4-11.3,13.2-15.5     c4.7-4.4,9.5-7.9,13.9-11.6c7.1-5.5,13.4-10.4,19-14.7c0.3-0.2,0.6-0.5,0.9-0.7c1.1-0.8,2.1-1.6,3.2-2.4c5-3.9,9-7.4,12-10.1     l0.5,0.5c-2.8,3-6.6,6.7-11.5,11c-1.4,1.2-2.9,2.6-4.4,3.9c-0.2,2-0.5,4.3-1.1,6.9c-2.2,10-9.5,23-10.5,40.1     c-0.6,8.5-0.5,17.8,0.2,27.7c0.6,9.8,1.7,20.3,1.9,31.2c0.1,5.4,0.3,11,0.4,16.6c0,3.5,0.1,7.1,0.2,10.7c0,0.7,0.1,1.5,0.1,2.3     c0,1.3,0,2.6,0.1,3.9c0.2,11.4,0.5,23,0.7,34.6c-0.3,11.6-0.5,23.2-0.8,34.6c-0.1,5.7-0.3,11.3-0.4,16.9     c-0.1,5.6-0.3,11.1-0.4,16.5c-0.1,2.8-0.1,5.3-0.3,8.1c-0.3,2.8-0.4,5.6-1,8.1l-0.1,0.3l-0.3,1.7c0,0.1-0.1,0.2-0.1,0.3l1.1,0.7     l1,0.7c2.1,1.4,4.2,2.8,6.3,4.2c8.3,5.6,15.9,11.3,22.5,17.1c12,10.4,20.5,21.3,25,30.2c0.1,0,0.2-0.1,0.3-0.2     c1.2-0.6,2.5-1.3,3.7-1.9c1.1-0.7,2.1-1.4,3.1-2c2-1.6,4.1-3.1,5.9-4.7c1-0.8,2-1.7,3-2.5c0.2-0.1,0.3-0.2,0.5-0.4     c2.4-2,4.7-3.9,6.8-5.6C218.6,655.8,221.4,653.3,223.9,651.1z M190.3,676.8c-5-8.3-13.8-18.3-25.9-28.2     c-6.6-5.5-14.1-11-22.4-16.4c-2.1-1.3-4.2-2.7-6.3-4c-0.5-0.3-1.1-0.7-1.7-1c-1.2,1.2-2.4,2.7-3.6,4.3c-0.8,1.1-1.8,2.2-2.7,3.4     c-0.8,1.3-1.7,2.6-2.6,3.9c-1.8,2.6-3.2,5.8-4.8,8.9c-0.7,1.6-1.4,3.3-2.1,4.9c-0.7,1.6-1.2,3.5-1.8,5.2c-1.2,3.5-2.1,7.2-3,10.9     c-0.8,3.7-1.6,7.4-2.1,11.2c-0.3,1.8-0.6,3.7-0.8,5.5c-0.2,1.8-0.4,3.6-0.6,5.4c-0.3,3.6-0.7,7-0.9,10.4c0,0.9-0.1,1.8-0.1,2.6     c5.1,3.2,10,6.4,15.1,8.6c2.9,1.4,5.8,2,8,2l0.2,0c5.4-0.2,10.5-3.9,15.1-7.3c4.6-3.5,8.8-7.3,13.5-10.5     C171.3,689.6,180.6,682,190.3,676.8z M144.4,369c0.6-1.9,1.1-3.7,1.5-5.3c-4.8,4.1-10.4,8.7-16.4,13.9     c-8.3,7.4-18.8,15.2-25.5,26.7c-3,5.9-5.1,12.6-6.1,19.8c-0.7,3.5-0.7,7.4-1.1,11.1c-0.3,3.8-0.8,7.9-1.3,11.9     c-2.7,16-8.7,32-15.2,48.1c-3.3,8-6.2,16.2-9.9,24.6c-0.3,0.6-0.6,1.3-0.9,1.9c3.4-1.6,6.9-3.3,10.5-4.8c4-1.7,8-3.5,12-5     c2-0.8,4-1.5,5.9-2.3c1.9-0.8,3.9-1.5,5.8-2.2c3.8-1.4,7.5-2.8,11.1-4c3.5-1.2,6.8-2.3,9.9-3.3c3.2-1,6.1-1.9,8.6-2.7     c-0.1-4.1-0.2-8.2-0.2-12.2c-0.1-5.6-0.2-11.1-0.3-16.5c-0.2-10.8-1.1-21.2-1.6-31.2c-0.6-10-0.6-19.5,0.3-28.3     c0.7-8.8,3.3-16.8,6-23.3C140.2,379.3,142.7,373.7,144.4,369z M133.4,571.1c0.2-11.4,0.4-22.9,0.6-34.5     c-0.3-11.5-0.5-23.1-0.7-34.5c0-0.4,0-0.8,0-1.3c-2.1,1.1-4.6,2.2-7.3,3.3c-3,1.3-6.3,2.5-9.8,3.8c-3.4,1.3-7.1,2.8-10.8,4.2     c-1.9,0.8-3.8,1.5-5.7,2.3c-1.9,0.8-3.8,1.5-5.8,2.3c-3.9,1.6-7.9,3.3-11.8,5c-4,1.6-7.8,3.4-11.7,5.2c-1.4,0.7-2.9,1.3-4.2,2     c-2.4,5.1-4.9,10.2-7.3,15.4c-3.8,8.2-7.4,16.5-9.9,25.1c-1,4.3-2.1,8.6-2,13.1c-0.4,4.4,0,8.9,0.4,13.4c1.8,18,7.9,35.7,12,53.5     c1.1,4.4,1.9,9,2.7,13.5c0.6,4.6,0.9,9.1,1.5,13.3c0.7,5,2.1,10.1,5.5,12.4h0l0.1,0.1c2.4,1.6,5.4,2.9,8.7,3.8     c8,2.3,16.8,3.4,24.8,7.6c0.6,0.4,1.2,0.7,1.7,1c0-0.1,0-0.2,0-0.3c0.1-3.4,0.3-6.9,0.5-10.6c0.2-1.8,0.3-3.7,0.5-5.6     c0.1-1.9,0.4-3.7,0.7-5.7c0.5-3.8,1.3-7.7,2-11.6c1-3.8,1.8-7.7,3.3-11.4c0.6-1.8,1.1-3.7,2-5.4c0.8-1.7,1.6-3.5,2.3-5.2     c1.8-3.3,3.4-6.5,5.5-9.3c1-1.4,2-2.7,2.9-4.1c1-1.2,2.1-2.3,3.1-3.4c1.2-1.4,2.5-2.6,3.8-3.6c0-0.1,0-0.2,0.1-0.4l0.1-0.9     l0.3-1.7l0.3-1.9c1-5,0.9-10,1-15.6c0.1-5.4,0.1-10.9,0.2-16.5C133.3,582.4,133.4,576.8,133.4,571.1z"/><path d="M224,565.2c0.1,0.4,0.2,0.6,0.2,0.6s-0.2-0.1-0.6-0.4c-0.4-0.2-0.9-0.6-1.6-1.2c-1.4-0.9-3-2.5-5.3-4.2     c-1.1-0.8-2.2-1.8-3.4-2.8c-1.2-1-2.6-1.9-4-3c-0.7-0.5-1.4-1-2.1-1.5c-0.7-0.6-1.5-1-2.2-1.5c-1.5-1-3-2-4.6-3.1     c-1.6-1-3.1-1.9-4.7-2.9c-0.8-0.5-1.5-1-2.3-1.4c-0.7-0.4-1.5-0.9-2.3-1.3c-1.5-0.9-2.9-1.8-4.3-2.6c-1.4-0.8-2.7-1.5-3.9-2.2     c-2.4-1.6-4.3-2.9-5.6-4c-1.3-1-2-1.8-2-1.8s1,0,2.7,0.2c1.7,0.2,4.1,0.8,6.8,1.8c1.3,0.5,2.7,1.2,4.2,1.9c1.4,0.8,3,1.5,4.6,2.3     c0.8,0.4,1.6,0.8,2.4,1.3c0.8,0.5,1.6,1,2.4,1.4c1.6,1,3.2,2,4.8,3c1.6,1.1,3.1,2.2,4.7,3.3c0.7,0.6,1.5,1,2.2,1.7     c0.7,0.6,1.4,1.2,2.1,1.8c1.3,1.2,2.7,2.3,3.9,3.4c1.1,1.2,2.3,2.3,3.2,3.4c2,2,3.1,4.4,3.9,5.9     C223.5,564.1,223.8,564.8,224,565.2z"/><path d="M218.7,580.1c0.3,0.4,0.4,0.6,0.5,0.7c-0.1,0-0.4-0.1-0.8-0.4c-0.5-0.3-1.2-0.7-2.1-1.2c-1.8-1.2-4.3-2.8-7.1-5.1     c-1.4-1.1-2.9-2.4-4.4-3.7c-1.6-1.4-3.2-2.8-4.9-4.2c-0.8-0.7-1.7-1.4-2.6-2.2c-0.9-0.8-1.7-1.5-2.6-2.2c-1.8-1.6-3.6-3-5.5-4.6     c-1.8-1.5-3.7-3-5.5-4.4c-0.9-0.8-1.8-1.5-2.7-2.2c-0.9-0.7-1.8-1.4-2.7-2c-1.8-1.3-3.4-2.6-5.1-3.8c-1.7-1.1-3.3-2.1-4.7-3.2     c-2.8-2.1-5.4-3.6-7.1-5c-1.7-1.3-2.6-2.2-2.6-2.2s1.2,0.1,3.3,0.6c2.1,0.6,5.2,1.2,8.4,3c1.6,0.8,3.4,1.8,5.2,2.8     c1.8,1.1,3.6,2.4,5.5,3.6c0.9,0.7,1.9,1.3,2.9,2c0.9,0.7,1.9,1.4,2.8,2.2c1.8,1.5,3.8,3,5.7,4.5c1.8,1.6,3.6,3.2,5.4,4.8     c0.8,0.8,1.7,1.6,2.6,2.4c0.8,0.8,1.7,1.6,2.5,2.4c1.6,1.6,3.2,3.1,4.6,4.5c1.5,1.5,2.9,2.8,4.1,4.2c2.5,2.6,4.4,4.9,5.7,6.7     C217.9,578.9,218.4,579.6,218.7,580.1z"/><path d="M218.4,531.7c0,0-0.3,0-0.7,0c-0.4,0-1.1,0-1.9,0c-1.6,0-3.9-0.1-6.6-0.6c-1.3-0.2-2.7-0.5-4.3-0.8     c-1.5-0.4-3.1-0.6-4.8-0.8c-0.8-0.2-1.7-0.3-2.6-0.4c-0.8-0.2-1.7-0.3-2.6-0.5c-1.7-0.3-3.5-0.6-5.3-1c-1.8-0.4-3.6-0.8-5.3-1.2     c-0.9-0.2-1.7-0.4-2.6-0.6c-0.9-0.2-1.7-0.4-2.5-0.6c-1.7-0.4-3.3-0.8-4.8-1.3c-1.5-0.5-2.9-1-4.2-1.6c-2.6-1-4.6-2.1-6-3     c-1.3-0.9-2.1-1.6-2.1-1.6s1-0.1,2.7-0.1c1.6,0,3.9,0.2,6.6,0.7c1.3,0.2,2.7,0.6,4.2,1c1.5,0.4,3.1,0.6,4.8,1     c0.8,0.2,1.7,0.3,2.5,0.5c0.8,0.2,1.7,0.4,2.6,0.6c1.7,0.4,3.5,0.8,5.2,1.2c1.8,0.4,3.6,0.8,5.3,1.2c0.9,0.2,1.7,0.4,2.6,0.6     c0.8,0.2,1.7,0.4,2.5,0.7c1.6,0.4,3.2,0.7,4.8,1.2c1.5,0.5,2.9,0.9,4.2,1.4c2.6,1,4.7,2,6.1,2.8c0.7,0.4,1.2,0.7,1.6,0.9     C218.2,531.6,218.4,531.7,218.4,531.7z"/></g><g><path d="M503.5,308.4c0-0.3,0.1-0.6,0.1-0.9c0-10.1-5.4-18.2-12.1-18.2c-6.7,0-12.1,8.2-12.1,18.2     c0,1.2,0.1,2.4,0.2,3.6C487,307.9,495.4,307.1,503.5,308.4z" opacity="0.4"/><g><path d="M503,308.3c0.4-2,0.7-4.2,0.7-6.5c0-10.4-5.1-18.9-11.4-18.9c-6.3,0-11.4,8.5-11.4,18.9c0,3,0.5,5.8,1.2,8.3      C488.7,307.8,496,307.3,503,308.3z"/><path d="M500.2,295.7c0,3.8-1.9,6.9-4.2,6.9c-2.3,0-4.2-3.1-4.2-6.9c0-3.8,1.9-6.9,4.2-6.9      C498.3,288.7,500.2,291.8,500.2,295.7z" fill="#FFFFFF"/></g></g><g><path d="M422.3,308.5c0-0.3,0.1-0.6,0.1-0.9c0-10.1-5.4-18.2-12.1-18.2c-6.7,0-12.1,8.2-12.1,18.2     c0,0.4,0.1,0.9,0.1,1.3C405.9,306.6,414.4,306.6,422.3,308.5z" opacity="0.4"/><g><path d="M421.8,308.4c0.5-2,0.7-4.2,0.7-6.5c0-10.4-5.1-18.9-11.4-18.9c-6.3,0-11.4,8.5-11.4,18.9c0,2.3,0.3,4.4,0.7,6.4      C407.3,306.7,414.8,306.7,421.8,308.4z"/><path d="M419,295.7c0,3.8-1.9,6.9-4.2,6.9c-2.3,0-4.2-3.1-4.2-6.9c0-3.8,1.9-6.9,4.2-6.9      C417.1,288.7,419,291.8,419,295.7z" fill="#FFFFFF"/></g></g></g><path d="M470.6,451.7c10.2-0.4,20.4-0.9,30.5-1.6c9.5-0.6,19.6-2.6,29,0.1c6.2,1.8,12.1,4,18,6.4   c11.2,2.7,22.2,6.4,32.8,10.8c-2.4-1.4-4.9-2.8-7.5-4.2c-6.6-3.6-13.8-7.5-21.4-11.6c-3.8-2.1-7.7-4.2-11.7-6.4c-2-1.1-4-2.1-6-3.3   c-2-0.5-3.9-1.5-6.2-1.8c-4.4-0.8-9-1.2-13.8-1c-4.8,0-9.6,0.3-14.6,0.7c-4.9,0.4-9.9,0.8-15.1,0.8c-5,0.1-10.1,0.2-15.1,0.3   c-10.1,0.1-20.2,0.3-30.1,0.4c-5,0-9.9,0.1-14.8,0.2c-4.8,0-9.6,0.1-14.4,0.2c-9.4,0.4-19-1-26.7,0.6c-3.8,1-7.1,3-10.1,5.4   c-3.2,2.6-6.3,5.1-9.3,7.4c-10.4,8.2-19.4,15.1-26.3,20.1c0,0,0,0.1,0,0.1c18.9-5,34.5-21.3,54.8-22.7c25.6-1.8,51.2-1.6,76.9-0.9   C469.7,451.7,470.2,451.7,470.6,451.7z" fill="#FFFFFF" opacity="0.6"/><path d="M742.4,423.2l-1.2-8.9l-0.6-4.5l-1.2-4.2c-6.1-23.2-25-41.9-33.1-66.6   c-7.2-24.4-11.4-49.1-16-73.3c-2.2-12.1-4.4-24.1-7-35.9c-1.4-5.8-2.5-11.7-4-17.4c-1.5-5.7-3-11.4-4.6-17   c-3.8-10.9-6.4-22.6-12.7-31c-6.1-8.9-16.8-12.1-27-15c-10.4-2.7-20.5-5.9-30.1-8.9c-9.7-2.5-19.1-5.3-28.2-6.9   c-9.1-2.2-18-2.7-26.4-3.6c-0.2,0-0.5-0.2-0.6,0l-0.6,0.7l-2.2,2.2c-1.4,1.4-2.9,2.9-4.3,4.3c-2.8,2.9-5.6,5.7-8.3,8.4   c-7.7,7.6-14.9,14.1-21.7,19.5c8.2-1.4,16.1-4.9,23.5-8.8c6.3-3.4,13.9-10.4,20.7-12.2c7.1-2,18.5,1,25.7,2.4   c10.8,2.1,21.3,4.9,31.8,8.2c12.1,3.8,33,8.8,38,22.2c7.8,21,8.9,45.1,12.8,67c1,5.5,2.1,11,3.4,16.4c4.6,0.7,8.5,1.4,11.3,2.1   c1.7,0.4,3,0.8,3.9,0.9c0.9,0.3,1.4,0.4,1.4,0.4s-0.5,0-1.4,0.1c-0.9,0-2.3,0.1-4,0.2c-2.6,0-6.1,0-10.2-0.2   c0.5,1.9,0.9,3.8,1.4,5.7c0.3,0,0.5,0,0.8,0c3,0.2,5.6,0.6,7.3,1c0.9,0.2,1.6,0.4,2,0.5c0.5,0.2,0.8,0.2,0.8,0.2s-0.2,0.1-0.8,0.2   c-0.4,0.2-1.1,0.4-2,0.6c-1.7,0.4-4.2,0.9-7.1,1.1c3.8,13.9,8.1,27.5,12.3,41.4c6.7,22.7,13.1,45.6,27.2,64.9   c12.1,16.5,19.9,30.1,20,51c0,11.6-1.1,23.6,0.4,35.1c0.6,4.5,1.2,9,1.6,13.5c2.5-3.6,5.1-7.1,7.6-10.5c1.4-8.9,2.2-18.1,2.5-27.3   C743,435.2,742.9,429.2,742.4,423.2z" fill="#FFFFFF" opacity="0.6"/><path d="M288.2,174.7c2.1-0.2,4.3-0.5,6.5-0.7c1.7-0.2,3.5-0.4,5.2-0.6c2.5-4.2,4.9-8.5,7.1-12.9   c-0.9,0.1-1.7,0.2-2.6,0.3c-0.8,0.1-1.7,0.2-2.5,0.4c-0.9,0-1.7,0.1-2.6,0.2c-1.7,0.2-3.5,0.4-5.3,0.6c-1.8,0.1-3.6,0.2-5.4,0.3   c-0.9,0-1.8,0.1-2.6,0.1c-0.9,0-1.7,0.1-2.6,0.1c-0.4,0-0.9,0-1.3,0c-2.6,4.6-5.3,9.2-8,13.7c2.5-0.3,5.1-0.5,7.8-0.8   C284,175.2,286.1,175,288.2,174.7z" fill="#FFFFFF" opacity="0.6"/><path d="M288.2,157.1c1.7-0.1,3.5-0.2,5.3-0.3c1.8-0.1,3.6-0.3,5.4-0.4c0.9,0,1.8-0.1,2.6-0.1   c0.8,0,1.7-0.1,2.6-0.1c1.6-0.1,3.3-0.1,4.8-0.2c0.1,0,0.3,0,0.4,0c3.4-7.1,6.1-16.5,12.5-21.6c4.4-3.5,11.6-3.9,16.8-5.1   c24.7-5.8,49.1-12.4,73.3-20c14.4-4.6,24.6-4.5,36.1,6.1c8.5,7.9,17.8,14.8,26.5,22.5c1.1,1,2.2,2,3.3,3   c-6.9-8.1-13.8-17.7-20.7-28.5c-3.7-5.8-7.4-11.9-11.2-18.2c-1.9-3.1-3.8-6.4-5.8-9.6l-0.9-1.4c0-0.1-0.1-0.2-0.1-0.1   c0,0,0,0.1-0.1,0.1c-1.8,0.2-3.5,0.5-5.3,0.8c-15.3,2.3-31.1,7-47.4,12.4c-8.1,2.7-16.3,5.5-24.7,8.4c-4.2,1.4-8.4,2.9-12.7,4.1   c-4.3,1.3-8.5,2.8-13.1,3.7c-8.8,2-18,3.1-25.4,6.9c-3.5,1.9-6.3,4.9-8.8,8.7c-2.5,3.6-4.7,7.5-6.9,11.4c-3.1,6-6.3,12-9.6,17.9   c0.2,0,0.5,0,0.7,0C286.5,157.2,287.3,157.1,288.2,157.1z" fill="#FFFFFF" opacity="0.6"/><path d="M195.6,362c2.8-19.2,4.7-38.5,7.1-57.8c2-16.5,7.3-29.5,19.4-41.3c16.1-15.7,33-29.5,47.4-47   c9.6-11.7,18.9-24,27.1-37c-0.4,0-0.8,0.1-1.2,0.1c-2.2,0.2-4.4,0.4-6.5,0.7c-2.1,0.2-4.3,0.4-6.4,0.6c-3.9,0.3-7.7,0.7-11.3,0.9   c-1.1,1.9-2.3,3.9-3.4,5.8c-4.7,7.7-9.5,15.3-14.6,22.6c-2.5,3.7-5.1,7.2-7.8,10.7c-2.6,3.5-5.3,7-8.1,10.2   c-5.5,6.7-11.4,12.8-17.3,18.7c-6.1,5.8-12.8,10.4-18.1,15.9c-5.5,5.3-8.9,11.6-10.3,18.8c-1,3.4-1.4,7.1-2.1,10.5   c-0.4,3.5-0.9,6.9-1.2,10.3c-1.1,13.5-1.3,26.1-2.1,37.3c-0.3,3.9-0.6,7.6-1,11.2c3.2,1.7,6.9,3.7,9.6,7.2   C194.9,361.1,195.2,361.6,195.6,362z" fill="#FFFFFF" opacity="0.6"/><path d="M506.5,491c-3.4-0.5-8.4-1.2-14.4-2.1c-2.9-0.4-6.2-0.8-9.6-1.2c-3.5-0.4-7-0.7-10.8-1   c-1.8-0.1-3.7-0.2-5.7-0.3c-1.9-0.1-3.8-0.1-5.8-0.2c-3.9-0.1-7.9,0-11.9,0c-3.9,0.1-7.9,0.2-11.8,0.6c-2,0.2-3.9,0.3-5.8,0.5   c-1.9,0.2-3.8,0.5-5.6,0.7c-3.7,0.4-7.2,1.2-10.6,1.8c-3.3,0.8-6.5,1.4-9.3,2.3c-5.8,1.4-10.5,3-13.9,4c-0.6,0.2-1.2,0.4-1.8,0.6   c21.6-3.9,42.6-0.2,64.4,0.5c19.1,0.6,37.2-3.9,55.8-5.9C508.9,491.3,507.9,491.2,506.5,491z" opacity="0.4"/><path d="M533,422.9c-8.8-0.5-18.5,1.3-26.5,1c-12.9-0.5-25.7-1-38.6-1.1c-25.8-0.4-51.5-0.1-77.3,1.3   c-12.4,0.7-24.8,16.5-33.2,24.7c-7.5,7.3-15.5,14.6-20.7,23.9c0,0-0.1,0-0.1,0.1c0.1,0.2,0.2,0.3,0.2,0.5   c6.3-5.6,14.6-12.9,24.4-21.2c2.9-2.4,5.9-4.9,9-7.5c3.3-2.8,7.2-5.3,11.9-6.5c4.6-1.2,9.3-1.1,13.9-1.1c4.5,0.1,9.1,0.1,13.9,0   c4.7-0.1,9.5-0.2,14.4-0.3c4.9,0,9.8-0.1,14.8-0.2c9.9-0.2,20-0.4,30.1-0.5c5,0,10.1-0.1,15.1-0.2c4.9-0.1,9.9-0.4,14.8-0.8   c5-0.3,9.9-0.6,14.9-0.5c4.9,0,9.9,0.3,14.8,1.4c2.4,0.4,4.8,1.6,7.1,2.3c2,1.1,4.1,2.3,6,3.4c4,2.2,7.9,4.4,11.7,6.6   c7.5,4.3,14.7,8.4,21.3,12.2c5,3,9.7,5.9,13.9,8.6C572.5,450.8,554.9,434,533,422.9z" opacity="0.4"/><path d="M430.9,212.1c8.4,12.7,16.3,26.4,21.2,40.9c5.7-16.3,12.9-33.9,26.4-44.6   c8.1-6.4,17.3-11.6,27-14.7c-3.3,0.7-7.1,1.6-11.3,2.9c-3.5,1-7.3,2.3-11.2,3.9c-3.8,1.6-7.8,3.5-11.5,6c-2,1.1-3.7,2.6-5.5,4   c-1.7,1.5-3.4,3-4.8,4.8l-2.1,2.7l-1.7,2.9c-0.7,0.9-1,2-1.4,3.1l-0.3,0.8l-0.6,1.8c-0.4,1.4-0.6,2.6-0.9,3.8l-1.6,7.2   c0,1.1-0.4,0.1-0.6-0.4l-0.8-1.7l-1.6-3.4l-3.3-6.7c-0.6-1.1-1.2-2.1-1.8-3.2c-1.1-2.1-2.4-4.1-3.6-6.1c-1.3-1.9-2.6-3.9-3.9-5.7   c-2.6-3.7-5.6-6.9-8.6-9.8c-3-2.8-6.2-5-9.2-6.9c-5-3.1-9.8-4.8-13.7-5.8C415.9,193.1,424.3,202.2,430.9,212.1z" fill="#FFFFFF" opacity="0.6"/><path d="M353.4,325.8c1.1,24.1,6.6,49.3,23.2,65.6c22.2,21.7,53.9,9.3,67.4-15.5c0.8-1.5,3.6-1.7,4.3,0   c3.2,7.4,6.1,16.8,12.6,22.1c8.1,6.6,19.9,10.3,30.3,9.6c18.9-1.1,32.8-12.5,41.5-28.8c9.1-17.1,14.2-37.3,14.2-57.1   c0,0.1,0,0.2,0,0.3c-1.2,10.7-4,26.9-15.1,42.9c-2.9,3.9-6.2,7.7-10.4,10.9c-4,3.4-9.1,6-14.7,7.3c-5.5,1.3-11.7,1.4-17.5-0.4   c-5.8-1.8-11.1-5-15.6-9.1c-4.7-4-8.3-9.1-11.6-14.3c-3.3-5.3-5.6-11.1-7.8-17c-1.8-5.4-3.2-11-4.1-16.7   c-1.4,10.6-4.7,25.1-14.7,39.4c-2.9,3.9-6.2,7.7-10.4,10.9c-4.1,3.4-9.1,6-14.7,7.3c-5.5,1.3-11.7,1.4-17.5-0.4   c-5.8-1.8-11.1-5-15.7-9.1c-4.6-4-8.3-9.1-11.6-14.3c-3.3-5.3-5.7-11.1-7.8-17c-1.7-5.2-3.1-10.6-4-16.2   C353.4,326,353.4,325.9,353.4,325.8z" opacity="0.4"/><path d="M231.7,527.9l-0.8-4.5l-1.1-4.6l-2.3-9.2c-2.9-12.2-5.9-24.5-8.9-36.6   c-1.4-6-2.8-12-4.2-17.9c-1.3-5.9-2.7-11.8-4-17.5c-1.3-5.7-2.6-11.4-3.8-16.9c-1.2-5.5-2.7-11.1-3.5-16.5   c-1.8-10.7-3.2-20.8-5.9-29.7c-1.3-4.3-3-8.4-5.4-11.6c-1.8-2.6-4.5-4.4-7.1-6c-0.6-0.4-1.2-0.7-1.8-1c-0.1-0.1-0.2-0.1-0.3-0.2   c-6.5-3.5-12.7-5.7-17.7-7.7c-0.4-0.2-0.9-0.4-1.3-0.5c0,0-0.1,0.2-0.2,0.2c-2.8,3-6.6,6.7-11.5,11c-1.4,1.2-2.9,2.6-4.4,3.9   c-0.2,2-0.5,4.3-1.1,6.9c-2.2,10-9.5,23-10.5,40.1c-0.6,8.5-0.5,17.8,0.2,27.7c0.6,9.8,1.7,20.3,1.9,31.2c0.1,5.4,0.3,11,0.4,16.6   c0,3.5,0.1,7.1,0.2,10.7c0,0.7,0.1,1.5,0.1,2.3c0,1.3,0,2.6,0.1,3.9c0.2,11.4,0.5,23,0.7,34.6c0,1.3-0.1,2.6-0.1,3.9   c0.8-14.9,1-29.8,1.7-44.7c0.7-15.7,2.3-31.3,3.6-46.9c1.9-23.3,2-58.1,18.5-76.8c5.5-6.2,13.2-8.7,21-4.8c3.5,1.8,2.7,2.5,3.5,7   c1.3,7.9,2.7,15.8,4.3,23.7c3,14.2,6.3,28.4,9.4,42.6c3.2,14.6,4.6,29.6,8,44.1c2.9,12.3,9.7,22.7,13.1,34.6   c5.9,20.5,5.9,41.7,6,62.8c0-0.1,0-0.1,0-0.2c1-5.8,2.1-11.7,2.9-17.7c0.8-5.9,1.4-12,1.6-18.1C232.8,540,232.7,533.9,231.7,527.9z   " fill="#FFFFFF" opacity="0.6"/><g opacity="0.2"><path d="M263.6,406.9c0,3.3-8.8,6-19.7,6c-10.9,0-19.7-2.7-19.7-6c0-3.3,8.8-6,19.7-6C254.7,400.9,263.6,403.6,263.6,406.9z"/><path d="M277,425.5c0,2.7-7.2,4.9-16,4.9c-8.8,0-16-2.2-16-4.9c0-2.7,7.2-4.9,16-4.9C269.8,420.6,277,422.8,277,425.5z"/><path d="M312.4,407.5c0,2-5.5,3.7-12.2,3.7c-6.7,0-12.2-1.7-12.2-3.7c0-2.1,5.5-3.7,12.2-3.7C306.9,403.8,312.4,405.5,312.4,407.5    z"/></g><g opacity="0.2"><path d="M625.4,407.3c0,2.8-7.4,5-16.4,5c-9.1,0-16.4-2.2-16.4-5c0-2.8,7.3-5,16.4-5C618,402.3,625.4,404.5,625.4,407.3z"/><ellipse cx="623.2" cy="422.8" rx="13.3" ry="4.1"/><path d="M666.1,407.8c0,1.7-4.5,3.1-10.2,3.1c-5.6,0-10.1-1.4-10.1-3.1c0-1.7,4.5-3.1,10.1-3.1    C661.5,404.7,666.1,406.1,666.1,407.8z"/></g></g></svg>