<?xml version="1.0"?><svg enable-background="new 0 0 792 792" id="Layer_1" version="1.1" viewBox="0 0 792 792" xml:space="preserve" xmlns="http://www.w3.org/2000/svg" xmlns:xlink="http://www.w3.org/1999/xlink"><g><g><path d="M652.8,543c-1.1,0-2.2,0-3.3-0.2c-7.1-0.1-15.1-1.8-24.3-5.2c-7-2.8-14.1-6.5-21.7-11.4l-0.8-0.5    c-0.6-0.4-1.2-0.7-1.8-1.2l-2.5-2c-1.9-1.5-3.4-2.8-4.7-4.1c-2.5-2.3-5.5-5-8.4-8c-1.6-1.5-3.3-3.2-4.9-4.9    c-1-1.1-2.1-2.1-3.1-3.1c-2-2.1-4.5-4-7.9-5.9c-5.7-3.2-12.1-5.1-18.7-5.4c-0.9-0.1-1.8-0.1-2.6-0.1c-4.1,0-8.2,0.6-12.5,1.2    c-1.6,0.2-3.2,0.5-4.8,0.7c-3.4,0.5-7,0.7-10.5,0.8c-4.4-0.3-8.3-1.4-11.6-3.3c-3.4-1.8-6.3-3.9-9.2-6c-2.1-1.6-4.2-3.1-6.2-4.3    c-0.9-0.6-1.8-1-2.8-1.4l-1.9-0.9c-0.8-0.4-1.6-0.8-2.4-1.1c-0.7-0.2-1.6-0.5-2.5-0.7c-1.7-0.5-3.2-1-4.8-1.3    c-1.6-0.3-3.1-0.7-4.6-1c-3.6-0.8-7.1-1.6-10.3-2.1c-5.3-0.9-10.9-1.4-17.1-1.4c-2.4,0-4.7,0.1-6.9,0.1c-1.7,0.1-3.3,0.1-4.8,0.2    c-3.4,6.4-7.8,11.7-13.2,15.6c-7.4,5-16.3,8.2-26.5,9.5c-2.5,0.3-4.9,0.4-7.2,0.4c-2.7,0-5.4-0.2-7.9-0.6    c-5.4-0.8-10.4-2.5-14.8-5c-0.9,0.7-2,1.5-3.2,2.2c-1.3,0.9-3,1.7-4.6,2.4l-0.7,0.3c-0.7,0.3-1.4,0.5-2,0.7    c-0.4,0.1-0.7,0.2-1.1,0.4c-1.1,0.4-2.2,0.6-3.3,0.8l-0.3,0.1c-2.3,0.5-4.6,0.5-6.9,0.5l-3.4-0.3c-0.1,0-0.3,0-0.4-0.1l-3.1-0.7    c-0.8-0.1-1.7-0.4-2.3-0.7c-0.3-0.1-0.6-0.2-0.8-0.3c-1.2-0.4-2.3-0.9-3.4-1.4l-0.6-0.3c-0.7-0.3-1.4-0.7-2.1-1.1l-0.7-0.4    c-0.7-0.4-1.3-0.8-1.9-1.3c-1.2-0.7-2.2-1.6-3.2-2.3c-0.3-0.3-0.7-0.6-1-0.8c-0.6-0.6-1.2-1.1-1.6-1.6c-4.1,0.9-8.4,1.8-12.9,2.8    c-3.2,0.7-6.4,1.4-9.7,2.1c0,0-54.2,11.9-58,12.7c-10.2,2.3-20.6,4.5-30.9,6.8l-30.9,6.7c-3.7,0.8-7.5,1.6-11.2,2.3l-4,0.8    c-5.1,1-10,2-14.9,3c-10.1,2.1-19.9,4-28.2,5.6c0,0-20.7,4-25.2,4.8c-3.4,0.6-6.6,1.3-9.8,2.1c-4.1,1-8,1.9-11.9,2.3    c-1.9,0.2-3.4,0.3-4.8,0.3c-2.2,0-4.1-0.2-5.8-0.7c-3.3-0.9-6.3-3-8.3-5.8c-2.4-4.1-2.8-7.7-2.9-10.7l0-1.3c0-1.4,0.9-2.6,2.2-3.1    c0.2-0.1,0.6-0.1,0.7-0.2l2.5-0.5c3.2-0.7,6.8-1.4,10.8-2.2c5.5-1.2,11.8-2.7,18.7-4.3c3.9-0.8,22.3-4.8,22.3-4.8l6-1.4    c6-1.4,12.3-2.8,18.7-4.3c4.3-1,8.7-2,13.1-3c2.8-0.6,5.6-1.3,8.4-2c1.6-0.4,21.1-5.1,21.1-5.1l1.1,3l-0.8-3.1l6.1-1.5l-4.5,0.2    c-0.7,0-1.5,0.1-2.4,0.1l-6.2,0.3c-0.8,0-1.4,0.1-2,0.1l-2.1,0.1l-8.3,0.4c-0.8,0-1.4,0-2,0.1c-2,0.1-3.9,0.1-5.8,0.2l-0.5-3.2    l0.2,3.2l-11.7,0.4c-2.6,0.1-5.3,0.2-7.9,0.2c-1,0-1.7,0-2.4,0.1l-6.6,0.1c-0.2,0-0.7,0-1.1,0l-1.7,0c-1.9,0-3.7,0.1-5.6,0.1l-3,0    l-19.4,0.4l-2.7,0.1c-2.4,0.1-4.7,0.2-6.9,0.3c-1,0-1.9,0.1-2.8,0.1l-1.8,0.1c-2,0.1-4,0.2-5.9,0.2c-1,0-2,0-3,0    c-1.7,0-3.5,0-5.1,0h-3.7c-0.7,0-1.4,0-2.2,0l-5-0.5c-0.1,0-0.3,0-0.4-0.1l-2-0.2c-1.5-0.1-2.7-1.3-2.9-2.9c0,0-0.1-1-0.1-1    c0-0.5-0.1-1.1-0.1-1.7c0-0.7,0-1.5,0-2.4l0-1.3l0.1-6.3c0-0.8,0.1-1.6,0.1-2.3l0.2-4.2c-1.3-1-2.4-2.2-3.3-3.4    c-1.2-1.6-2.1-3.4-2.7-5.5l-0.2-0.6c-0.2-0.8-0.4-1.5-0.5-2.3c0-0.5-0.1-0.8-0.1-1c-0.1-0.7-0.2-1.4-0.2-2c-0.1-2,0-4,0.4-6    c0.1-1,0.4-2.2,0.9-3.3c0.3-1,1-2.1,1.5-3c0.7-1,1.6-2.2,2.9-3.2c0.9-0.7,2.1-1.4,3.4-1.8c1.5-0.6,3.2-0.9,5-0.9    c0.5,0,1,0,1.5,0.1c2.3,0.2,4,0.7,5.5,1.5c0,0,0.1,0,0.1,0c0.2-0.2,0.4-0.5,0.7-0.7c1.1-1.1,2.2-1.9,3.3-2.5    c1-0.6,2.3-1.2,3.7-1.6c2.3-0.8,4.8-0.9,6.6-0.9l0.9,0c2.9,0.1,5.8,1,8.3,2.7l0.5,0.4c0.8,0.6,1.7,1.3,2.5,2.1    c0.6,0.6,1.2,1.3,1.7,2l0.4,0.6c1.6,2.2,2.6,4.1,3.3,6c0.2,0.5,0.4,1,0.6,1.6c0.2,0,0.3-0.1,0.5-0.1c8.4-1.4,19.8-3,32.1-4.7    c6.7-0.8,13.9-1.8,21.4-2.8c6.4-0.8,13.1-1.6,20-2.4c0,0,25.2-3,29.6-3.5l7.4-0.9c6.3-0.7,12.7-1.5,19.1-2.1    c5.5-0.5,26.5-2.4,26.5-2.4s22.4-2,25.7-2.3l28.7-2.5l5.3-0.4c0.2-0.5,0.5-1,0.7-1.5c0.8-1.8,1.9-3.3,3.1-4.8l0.4-0.5    c0.4-0.6,1-1.2,1.5-1.8c0.2-0.2,0.4-0.4,0.6-0.6c0.1-0.1,0.2-0.2,0.2-0.2c0.2-0.2,0.4-0.4,0.7-0.7c0.5-0.6,1.1-1.2,1.9-1.8    l2.4-1.9c0.7-0.6,1.4-1,2.2-1.4c0.3-0.2,0.6-0.4,0.9-0.6c1.6-1.1,3.4-1.9,5.1-2.7l1.3-0.6c0.1,0,0.2-0.1,0.3-0.1l1.3-0.5    c1.8-0.6,3.6-1.3,5.6-1.7l0.6-0.1c0.9-0.2,1.9-0.5,3-0.6c0.9-0.1,2-0.3,3.1-0.4l1-0.1c1.2-0.1,2.3-0.1,3.5-0.1    c0.8,0,1.5,0,2.3,0.1l1,0.1c1.2,0.1,2.4,0.2,3.6,0.4c6.2-6.8,13.6-10.3,18.9-12.2c5.9-1.9,12-2.9,18.2-2.9c2.3,0,4.5,0.1,6.8,0.4    c6.5,0.6,12.9,2.6,20.1,6.4l1.8,1.1c1.3,0.8,2.6,1.6,3.8,2.5c0.7,0.5,1.4,1.1,2,1.7c0.3,0.2,0.7,0.6,1.1,1c0.4,0.4,1,0.8,1.5,1.3    c0.6,0.5,1.1,1.1,1.6,1.7c1.9-0.4,3.9-1,6.1-1.5c6.5-1.7,14.3-3.9,22.2-7.9l1.1-0.7c3.5-2,7.2-4.1,10.2-7.1    c3.8-3.5,7.2-7.7,10.8-12.1l1.1-1.4c3.4-4.2,7-8.6,11.4-12.7c2.2-2.2,5-4.2,8.5-6.3c3.3-1.8,7.1-3.1,10.8-3.7    c1.8-0.4,3.8-0.7,5.8-1c4.7-0.8,9.1-1.5,13-3.4c2.8-1.2,5.1-3.2,7.5-5.3l1.9-1.6l1.6-1.8c0.4-0.5,0.8-1,1.3-1.5    c0.7-0.8,1.3-1.5,1.8-2.3l3-4.5c0.4-0.7,0.9-1.6,1.4-2.4c0.4-0.7,0.9-1.5,1.3-2.2c1.1-1.9,2.3-3.9,3.5-5.9l2.2-3.7    c4.3-7.3,8.5-13.6,12.8-19.4c6-7.6,11.4-13.1,17.1-17.4c6.6-4.7,13.7-8.5,21.5-11.7c9.7-4,20-6.1,29.7-6.1c6.7,0,13.1,1,19,3    c7.5,2.4,14.8,6.7,21.2,12.4c1.8,1.7,3.5,3.4,5,5.2c0.6-0.3,1.3-0.5,2-0.8c1.8-0.7,3.7-1.6,5.6-2.5c2-0.9,4-2,6.2-3    c0.7-0.4,3.3-1.6,3.3-1.6c0.8-0.4,1.5-0.7,2.2-1.1l1.1-0.6c2.5-1.2,4.6-2.4,6.5-3.5c1.6-0.8,3-1.7,4.5-2.7    c0.6-0.4,1.3-0.8,1.9-1.2c0.9-0.5,1.7-1.1,2.5-1.7l3.4-2.4c1.3-1,2.5-2,3.7-3l1.5-1.3l4.3-4c0.6-0.6,1.1-1.1,1.6-1.7    c0.6-0.6,1.4-0.9,2.3-0.9c0.1,0,0.2,0,0.3,0c0.9,0.1,1.9,0.3,2.9,0.6c0,0,0,0,0,0c1.2,0.3,2.4,0.9,3.6,1.7c1,0.5,1.9,1.3,2.8,2.1    l0.4,0.3c0.1,0.1,0.2,0.2,0.3,0.3c0.4,0.5,0.8,0.9,1.2,1.3c0.5,0.5,0.9,1,1.2,1.5l0.2,0.3c0.8,1,1.4,2.1,2,3.2l0.3,0.5    c0,0.1,0.2,0.4,0.2,0.5c0.5,1.1,1.1,2.4,1.5,3.8c0.2,0.4,0.4,1.1,0.5,1.7c0.2,0.7,0.3,1.3,0.4,1.8c0,0.1,0.1,0.3,0.1,0.4    c0.1,0.4,0.1,0.8,0.2,1.1c0.1,0.5,0.2,1,0.2,1.5c0.1,0.3,0.1,0.5,0.1,0.6l0.2,1.8c0.2,1.7-0.9,3.2-2.5,3.5l-1.7,0.4    c-0.1,0-0.3,0.1-0.4,0.1c-2,0.5-3.9,1-6,1.5c-1.6,0.5-3.4,1.1-5.3,1.8l-1.4,0.5c-0.6,0.3-4.7,2-4.7,2c-0.7,0.3-1.5,0.6-2.2,1    c-0.9,0.4-1.7,0.8-2.6,1.2c-1.5,0.7-3.1,1.5-4.6,2.3c-2.5,1.3-4.9,2.6-7.2,3.9c-1.1,0.6-2.2,1.2-3.3,1.8l-1.1,0.6    c-0.9,0.5-1.7,0.9-2.6,1.4c-2.2,1.2-4.4,2.4-6.4,3.6c-1.8,1.2-3.6,2.3-5.2,3.4c-0.5,0.3-0.9,0.6-1.3,0.9c1.4,4.6,2.2,9.1,2.5,13.4    l0.1,1.1c0,0.6,0.1,1.2,0.1,1.8l-0.3,5.6c0,0.1,0,0.3-0.1,0.4l-0.5,2.6l-0.6,2.7c-0.2,0.7-0.4,1.4-0.6,2.1l-0.3,0.7    c-0.2,0.7-0.4,1.2-0.6,1.7c-0.4,1.2-0.8,2.3-1.4,3.5c-3,7.2-7.5,13.1-11.1,17.4c-4.8,5.7-10.2,10.2-13.9,13.1    c-8.2,6.3-17.6,11.5-28.9,15.8l-0.6,0.2l0.2,0.8c0.2,0.6,0.3,1.2,0.5,1.7c0,0,0.1,0.6,0.2,0.7c0.1,0.7,0.2,1.4,0.2,2.1l0.1,1    l0.1,1l0,0.5c0,0.4,0.1,0.8,0.1,1.2c0,0.9-0.4,1.8-1.1,2.5c-0.4,0.3-1.5,1.2-1.5,1.2c-0.4,0.3-0.9,0.7-1.4,1l-1,0.6    c-0.5,0.3-0.8,0.4-1.1,0.6c-0.6,0.3-1,0.5-1.5,0.7c-1.1,0.4-2.1,0.8-3,1.1l-2.9,0.6c-0.6,0.1-1.2,0.2-1.8,0.3l-1.6,0.1    c-0.4,0-0.7,0.1-1.1,0.1c-0.1,0-0.5,0-0.9,0c0,0-0.4,0-0.6,0l-1.2,0c-1.3,0-2.5-0.8-3-2c0,0-1.1-2.5-1.1-2.5l-0.4-1.1    c0,0-0.7-1.8-0.7-1.8l-0.7-2.6c-1,0.2-1.9,0.4-2.8,0.6c0,0-0.2,0-0.4,0.1c-0.1,0-1.5,0.3-1.5,0.3c-0.2,0-0.4,0.1-0.6,0.1    c-0.5,0-1.1-0.1-1.6-0.4c-0.4-0.2-0.8-0.5-1.2-0.8c-2.8-1.7-6.1-3.8-9.6-6.1c-2.6-1.7-5.4-3.5-8.3-5.4l-1.3-0.8    c-2-1.2-4-2.4-6.1-3.5c-2.3-1.3-4.7-2.3-7.3-3.4l-1.1-0.4c-5.9-2-11.6-3-17.3-3c-0.4,0-0.8,0-1.3,0c-0.6,0-0.8,0-1.1,0    c-0.8,0-1.6,0.1-2.4,0.1c-0.6,0-1.1,0.1-1.7,0.1c-1.6,0.1-3.3,0.3-5,0.6l-2.7,0.5l-5,1.4c-0.3,0.1-2.3,0.9-2.3,0.9    c-5.9,2.2-12,5.6-18.7,10.6l-3.6,2.7c-4.8,3.5-9.7,7.2-14.1,11.1l-2.1,1.7c-2.2,1.8-4.3,3.5-6.1,5.4c-2.7,2.7-5.3,5.2-7.9,7.6    c-1.5,1.6-3,3.3-4.5,5l-2.8,3.1c-2.2,2.4-4.2,4.7-6,7c0,0-4.5,5.8-5.2,6.8c1.2,0.6,2.5,1.2,3.8,1.7c3.7,1.6,7.6,3.4,12,5.3    c0,0,10.6,4.5,14.2,6c5,2,10.4,4.2,16,6.4c2.7,1.1,5.5,2.2,8.3,3.2c2.5,0.9,5.5,1.9,8.6,2.8c6.6,1.9,12.4,3.1,17.8,3.6    c2.4,0.2,4.8,0.4,7.1,0.4c3.7,0,7.2-0.3,10.5-1c3.3-0.7,5.8-1.5,8.1-2.4c2-0.7,3.8-1.7,5.7-2.7c0.7-0.4,1.3-0.7,2-1.1    c1.7-0.8,3.2-1.9,4.8-3c0.7-0.5,1.5-1,2.2-1.5c1.6-1,2.9-2.1,4.4-3.4c0.6-0.5,1.3-1.1,1.9-1.6c1.7-1.4,3.3-2.9,4.9-4.4l0.8-0.7    c1.8-1.7,3.6-3.4,5.2-5.1c2.2-2.3,4.3-4.4,6.2-6.4c2.2-2.3,4.2-4.4,6.1-6.2c0.2-0.2,0.4-0.4,0.7-0.7l0.3-0.3    c0.4-0.4,0.9-0.7,1.4-0.8c0.6-0.2,1.2-0.3,1.8-0.4l0.6-0.1c1-0.2,2-0.5,3.1-0.7c5.9-1.2,12-1.9,18-1.9c2.6,0,5.3,0.1,7.8,0.4    c4.8,0.2,10,0.7,15.4,1.4c5.8,0.7,11.7,1.9,17.3,3.6c6.6,2,12.6,4.8,17.9,8.1c5.4,3.3,10.7,8.1,15.6,14.3    c5.3,6.2,9.1,12.8,11.2,19.4c2.6,8,3.2,16.3,1.8,23.8c-0.9,3.9-1.9,8-3.9,11.8c-0.1,0.2-0.2,0.5-0.3,0.7c-0.3,0.7-0.6,1.5-1.1,2.1    l-1.5,2.5l-3.1,5c-0.1,0.1-0.1,0.2-0.2,0.3c-4.2,5.4-10,12.1-17.5,17.1c-2.2,1.8-5,3.4-7.7,4.8c-0.9,0.5-1.8,1-2.7,1.5    c-0.1,0.1-0.3,0.2-0.5,0.2c-1,0.4-1.9,0.8-2.9,1.1c-2.8,1.1-5.8,2.3-8.9,3c-3.3,1.1-6.9,1.6-10.4,2.1l-1.7,0.2    c-1.5,0.2-2.9,0.3-4.3,0.3c-0.7,0-1.4,0-2,0.1C655,542.9,653.9,543,652.8,543z M617.2,505c0.6,0.4,1.1,0.8,1.7,1.2    c1,0.7,1.9,1.4,2.8,1.9c1.6,0.9,3.3,1.8,5.1,2.6c3.5,1.5,7.4,2.7,11.4,3.5c3.7,0.8,7.7,1.2,12.3,1.3l0.8,0    c8.5,0,16.7-1.4,23.9-4.1c8.2-3.1,15-8.1,19-14c2.1-3.1,3.6-6.7,4.4-10.4c0.8-3.5,1-7.3,0.6-11.3c-0.6-6.8-4.3-13-10-17.2    c-5.7-4.3-12.5-6.9-18.3-8.9c-7.7-2.7-15.4-4.1-23.1-4.1c-2.5,0-5,0.2-7.3,0.5l-0.9,0.1c-1.5,0.2-2.8,0.4-3.9,0.6l-0.7,0.1    c-1.1,0.2-2.1,0.4-2.9,0.6c-1.4,0.4-2.3,0.7-2.9,0.8c-0.5,0.3-1.3,0.7-2.5,1.4c-2,0.9-4.8,2.9-7.3,4.7l-0.1,0.1    c-2.8,2.3-6.4,5.3-9.3,9c-2.1,3.2-3.5,8.4-3.8,15.3c-0.4,6.6,1.2,13.1,4.4,18.5C612,499.8,614,502.2,617.2,505z M599.7,354.3    c0.6,0.2,1.2,0.5,1.9,0.7c1.1,0.5,2.2,0.9,3.3,1.2c1.8,0.5,3.6,0.9,5.6,1.2c2.7,0.4,5.5,0.6,8.3,0.6c1.2,0,2.4,0,3.6-0.1    c3.9-0.2,8-0.8,12.2-1.8c8.5-2.1,16.4-5.6,22.9-10.1c7.2-5,12.5-11.5,14.9-18.3c1.3-3.5,1.9-7.3,1.7-11.2    c-0.1-3.6-0.9-7.4-2.2-11.1c-2.3-6.5-7.4-11.6-14-14.2c-6.6-2.8-13.5-3.6-20-4c-2.2-0.2-4.4-0.3-6.6-0.3    c-10.6,0-18.8,2.4-23.8,4.4c-1.7,0.7-3.3,1.3-4.5,1.9l-0.9,0.4c-0.9,0.4-1.7,0.8-2.4,1.2l-2.5,1.5c-0.4,0.3-1.1,1-2.2,2    c-1.5,1.2-3.4,3.5-5.8,6.4l-0.3,0.4c-2.1,2.9-4.8,6.6-6.6,10.8c-1.3,3.7-1.3,8.9,0.2,15.8c1.3,6.5,4.4,12.4,8.8,16.8    C593.8,351,597.1,352.9,599.7,354.3z"/><g><path d="M691.9,296.8c-0.9,0.7-1.6,1.4-2.3,2.2c-0.5-1.4-1.1-2.8-1.8-4.2c-1.6-3.4-3.6-6.6-5.9-9.7     c1.2-0.3,2.5-0.6,3.9-1.1c1.9-0.6,3.9-1.4,5.9-2.3c2.1-0.9,4.2-1.8,6.4-2.9c1.1-0.5,2.2-1,3.3-1.5c1.1-0.5,2.3-1.1,3.4-1.6     c2.3-1.1,4.7-2.3,6.9-3.7c2.3-1.3,4.5-2.7,6.6-4.2c1.1-0.7,2.1-1.5,3.1-2.2c1-0.8,2-1.5,3-2.3c1.9-1.6,3.7-3.2,5.3-4.7     c1.6-1.6,3.1-3.2,4.4-4.6c0.2-0.3,0.4-0.5,0.6-0.7c0.2,0.1,0.3,0.2,0.5,0.3c0.7,0.4,1.5,0.8,2.3,1.4c0.8,0.5,1.5,1.3,2.2,1.9     c0.4,0.4,0.7,0.8,1,1.2c0.4,0.4,0.6,0.9,1,1.3c0.6,0.9,1.2,1.9,1.7,2.9c0.5,1,1,2.1,1.4,3.2c0.2,0.5,0.4,1,0.6,1.6     c0.2,0.5,0.4,1.1,0.5,1.6c0.2,0.8,0.4,1.6,0.6,2.4c-1.9,0.4-3.9,0.8-6,1.3c-2.3,0.6-4.8,1.4-7.3,2.2c-1.2,0.4-2.5,0.9-3.7,1.4     c-1.3,0.5-2.6,0.9-3.8,1.5c-2.5,1.2-5.1,2.3-7.5,3.6c-2.5,1.3-5,2.5-7.3,3.9c-1.2,0.7-2.4,1.4-3.5,2c-1.2,0.7-2.3,1.4-3.4,2     c-2.3,1.3-4.4,2.6-6.5,3.9C695.4,294.1,693.5,295.4,691.9,296.8z" fill="#C1BC9A"/><path d="M619.1,390.3l-0.3-0.8c-0.2-0.5-0.4-1-0.5-1.5c0-0.1-0.1-0.3-0.1-0.4c4-1,8.4-2.4,13.1-4.1     c0,0,0,0.1,0,0.1c0.2,0.5,0.2,1.1,0.4,1.6l0.2,0.8l0.2,0.9l0.5,1.8c0.1,0.6,0.2,1.2,0.3,1.8l0.2,0.9l0.2,0.8c0,0,0,0.1,0,0.1     c-0.5,0.4-1.2,0.5-1.8,0.8c-0.4,0.2-0.7,0.3-1.1,0.5c-0.4,0.2-0.7,0.3-1.1,0.4c-0.8,0.2-1.5,0.4-2.3,0.7     c-0.8,0.2-1.6,0.4-2.4,0.5c-0.4,0.1-0.8,0.2-1.2,0.2c-0.4,0-0.8,0.1-1.2,0.2c-0.5,0.1-1,0.2-1.5,0.3l-0.2-0.7l-0.2-0.8l-0.5-1.7     c-0.1-0.5-0.3-1.1-0.4-1.6L619.1,390.3z" fill="#C1BC9A"/><path d="M439.9,466c-2.2,0.2-4.3,0.4-6.2,0.6c0.3-0.7,0.6-1.4,0.9-2c1.5-3.7,2.5-7.4,3.2-10.9     c4.7-3.2,9.8-7.9,14.7-13.8c1-1.2,2.1-2.4,3.1-3.7c2.2,1.3,4.6,2.9,7.6,4.3c3.5,1.8,7.4,3.8,11.7,6c4.3,2,9.1,4.1,14.2,6.3     c5.1,2.1,10.4,4.3,16,6.7c2.8,1.2,5.6,2.3,8.6,3.4c2.9,1,5.9,2.1,9,3c6.1,1.8,12.5,3.2,18.9,3.9c6.5,0.6,13.1,0.5,19.5-0.8     c3.1-0.7,6.3-1.6,9.2-2.8c3-1.2,5.6-2.8,8.3-4.2c2.8-1.4,5.1-3.3,7.5-4.9c2.5-1.6,4.5-3.6,6.7-5.4c2.2-1.7,4.1-3.7,5.9-5.5     c1.9-1.8,3.6-3.6,5.2-5.4c5.2-5.7,9.5-10.7,12.8-14.7c1.3-0.2,2.6-0.5,4.1-0.7c6.8-1.1,15.1-1.8,24.7-0.6c4.8,0.3,9.8,1,15.2,1.7     c5.3,0.7,10.8,1.9,16.4,3.6c11.1,3.5,22.4,10,30.5,20.7c4.3,5.2,7.9,10.9,10.1,17.6c2.1,6.5,2.8,13.8,1.4,20.8     c-0.8,3.5-1.7,7-3.4,10.2c-0.4,0.8-0.7,1.7-1.2,2.5l-1.5,2.3c-1,1.5-2,3.1-3,4.7c-4.6,5.8-9.7,11.4-16.1,15.6     c-3,2.4-6.5,4-9.8,5.9c-3.6,1.3-7,3-10.8,3.8c-3.7,1.2-7.5,1.6-11.3,2.2c-1.9,0.3-3.9,0.2-5.8,0.3c-1.9,0.1-3.9,0.2-5.8-0.1     c-7.8-0.1-15.3-2.1-22.5-4.8c-7.2-2.8-14-6.6-20.5-10.7c-0.8-0.5-1.6-1-2.4-1.6l-2.2-1.8c-1.4-1.2-2.9-2.3-4.3-3.7     c-2.8-2.6-5.6-5.2-8.3-7.8c-2.8-2.6-5.2-5.3-8-8c-2.7-2.8-6-5.1-9.3-6.9c-6.7-3.7-14.1-5.8-21.5-6.1c-7.4-0.4-14.4,1.1-21,2     c-3.3,0.5-6.6,0.7-9.8,0.8c-3-0.2-5.9-0.9-8.6-2.5c-5.5-2.8-10.1-7-15.4-10c-1.3-0.8-2.7-1.4-4.1-2c-1.4-0.6-2.7-1.2-4.1-1.7     c-2.8-0.7-5.5-1.7-8.2-2.1c-5.4-1.1-10.3-2.1-15.1-2.8C455.3,465,446.8,465.5,439.9,466z M705.1,488.3c1-4.5,1.1-9,0.6-13.4     c-0.5-4.4-1.9-8.7-4.2-12.4c-2.2-3.7-5.3-6.7-8.5-9.1c-6.5-4.8-13.6-7.5-20.2-9.5c-6.5-2-12.8-3.3-18.5-3.4     c-5.6-0.3-10.5,0.4-14.4,1.1c-2,0.4-3.7,0.7-5.2,1.2c-1.5,0.4-2.8,0.8-3.8,1.2c-1.5,0.6-2.4,1-2.8,1.1l-0.4,0.2     c-0.4,0.2-1.4,0.6-2.8,1.2c-2,0.7-4.7,2.3-8.1,4.4c-3.2,2.4-7.2,5.1-10.9,9.5c-3.5,4.7-4.9,11.2-5.4,18     c-0.5,6.9,0.8,14.8,4.9,21.8c1.9,3.6,4.8,6.7,7.9,9.5c1.7,1.2,3.3,2.6,5.2,3.7c1.8,1.1,3.8,2.1,5.8,3c4,1.8,8.2,3.1,12.6,4     c4.4,0.9,8.9,1.4,13.4,1.5c9.1,0.2,18.4-1.2,27.1-4.4c8.7-3.3,16.9-8.7,22.1-16.5C702.3,497.1,704.1,492.7,705.1,488.3z" fill="#BCBEC0"/><path d="M365.1,482.2c-2.2-1.7-4.2-3.8-5.8-6.1c-0.1-0.1-0.2-0.3-0.3-0.4c-0.1-0.2-0.2-0.3-0.3-0.4     c-1.1-1.6-2.1-3.3-3.1-5.1c2.3,0.1,4.5-0.7,6.5-2c1.1-0.5,1.8-1.6,2.7-2.5c0.6-1.1,1.4-2.1,1.7-3.3c0.9-2.3,1.2-4.7,1.4-7     c0.1-1.2,0.1-2.3,0.1-3.4c0-1.3-0.1-2.4-0.3-3.6c-0.2-1.1-0.4-2.2-0.6-3.3c-0.2-1.1-0.4-2.2-0.7-3.2c-0.5-2.1-1.1-4.1-1.8-5.9     c-0.7-1.9-1.5-3.6-2.5-5.1c-0.5-0.8-1.2-1.6-1.9-2.2c2.2-1.9,4.5-4,7.1-5.9c1.3-1.1,2.6-2,4-3c1.4-0.9,2.7-2,4.2-2.8     c0.2-0.1,0.4-0.3,0.7-0.4c1.3,1.5,2.5,3.5,3.6,5.8c1,2.2,2,4.5,2.7,7.2c0.8,2.6,1.3,5.5,1.7,8.5c0.2,1.5,0.4,3,0.5,4.6     c0.1,1.5,0.2,3.1,0.2,4.7c0,3.2-0.1,6.4-0.5,9.5c-0.5,3.2-1,6.4-1.7,9.5c-0.4,1.5-0.8,3-1.2,4.5c-0.5,1.4-1,2.9-1.6,4.1     c-1.2,2.6-2.9,4.9-4.9,6.2c-1.8,1.1-3.9,1.5-5.9,1.5c-0.3,0-0.6,0-0.9,0c-0.4,0-0.8-0.1-1.2-0.1     C366.5,482.4,365.8,482.3,365.1,482.2z" fill="#51AD91"/><path d="M362.1,375.8c1.2-1.9,3-3.7,4.5-5.9c1.8-2,3.6-4.1,5.8-6.1c1.1-1,2.1-2,3.3-3c1.1-0.9,2.3-1.8,3.5-2.8     c1.2-1,2.5-1.7,3.8-2.5l1.9-1.2l2-1c2.7-1.2,5.6-1.8,8.5-1.7c1.4,0,2.8,0.3,4.2,0.7l2,0.7l1.9,0.9c2.4,1.3,4.3,3.1,5.6,5.3     c1.3,2.2,2.1,4.5,2.7,6.7c0.5,2,0.8,3.9,1.2,5.7c0,0-0.1-0.1-0.1-0.1c-1.4-1.3-2.8-3-4.8-4c-1-0.5-1.9-1.3-3-1.7     c-1.1-0.4-2.3-0.8-3.4-1.3c-1.2-0.4-2.4-0.4-3.7-0.7c-1.3-0.3-2.5-0.2-3.8-0.2c-1.3,0-2.6,0-3.9,0.3c-1.3,0.2-2.6,0.3-3.8,0.6     c-2.5,0.6-5,1.3-7.3,2.3c-1.2,0.4-2.3,0.9-3.4,1.4c-1.1,0.5-2.2,1-3.2,1.5c-2.1,1.2-4.1,2.2-5.9,3.3     C364.9,373.9,363.4,374.8,362.1,375.8z"/><path d="M358.3,480.2c0.9,1.1,1.8,2.1,2.9,3c0.7,0.7,1.5,1.4,2.3,2c-1.2,0.8-2.4,1.7-3.8,2.4     c-1.4,0.9-3.1,1.5-4.8,2.2c-0.9,0.3-1.8,0.5-2.6,0.8c-0.9,0.3-1.8,0.4-2.8,0.5c-1.8,0.4-3.8,0.4-5.7,0.3l-2.9-0.3     c-0.9-0.2-1.9-0.4-2.8-0.6c-0.9-0.1-1.8-0.5-2.7-0.8c-0.9-0.3-1.8-0.5-2.6-1c-0.8-0.4-1.6-0.7-2.4-1.1c-0.8-0.4-1.5-0.9-2.2-1.3     c-1.5-0.8-2.7-1.9-4-2.6c-0.5-0.4-1-0.7-1.4-1c7-1.5,13.5-2.5,19.3-3.6c5.1-0.9,9.6-1.7,13.6-2.4c0.2,0.3,0.3,0.5,0.5,0.8     C356.9,478.5,357.6,479.4,358.3,480.2z" fill="#FFFFFF"/><path d="M354.2,467.1c-0.6-1.3-1.2-2.5-1.7-3.8c-1.8-4.3-3.1-8.8-3.8-13.5c-0.5-3.2-0.7-6.5-0.7-9.8c1.8-1.6,3.8-3.4,6-5.4     c1.5-1.4,3.1-2.9,4.8-4.4c0.5,0.5,0.9,1.2,1.3,2c0.7,1.4,1.4,3,1.9,4.8c0.6,1.8,1.1,3.7,1.5,5.7c0.2,1,0.4,2.1,0.6,3.1     c0.2,1,0.4,2.1,0.5,3.2c0.1,1.1,0.3,2.2,0.2,3.1c0,1.1,0,2.2-0.1,3.3c-0.1,2.1-0.4,4.2-1.1,6.1c-0.3,1-0.8,1.7-1.3,2.5     c-0.6,0.6-1.1,1.5-1.9,1.9c-1.4,1.1-3.2,1.8-4.7,1.7C355.2,467.4,354.7,467.3,354.2,467.1z"/><path d="M355.8,428.8c-1.4,1.3-2.6,2.6-3.8,3.8c-1.5,1.6-2.9,3.1-4.2,4.5c0-0.4,0-0.9,0-1.4     c0.1-3.8,0.3-7.6,0.9-11.2c0-0.4,0.1-0.8,0.2-1.2c0.1-0.4,0.2-0.9,0.3-1.3c1.1-4.4,2.3-8.7,4.8-12.2c0.5-0.8,1-1.5,1.6-2.2     c0.4-0.6,0.8-1.1,1.4-1.6c4.5-5.2,10.5-8.9,16.6-11.1c7.6-2.6,15.4-3.2,22.4-2.6c7.1,0.5,13.3,2.8,18.5,5.2     c1.1,0.7,2.3,1.3,3.3,1.9c-0.1,0-0.2,0-0.4,0c-1.5,0.1-3,0.1-4.5,0.4c-1.5,0.3-3.1,0.5-4.7,0.8c-1.6,0.3-3.2,0.5-4.9,1     c-1.6,0.4-3.3,0.9-5,1.3c-1.7,0.4-3.3,1-5,1.7c-1.7,0.6-3.3,1.3-5,1.9c-1.7,0.6-3.3,1.5-4.9,2.3c-1.6,0.8-3.2,1.6-4.8,2.4     c-1.2,0.7-2.3,1.4-3.4,2.1c-0.4,0.2-0.8,0.4-1.2,0.7c0,0,0,0,0,0c-1.6,0.9-2.9,2-4.4,3c-1.4,1-2.8,2-4.1,3.1     c-1.1,0.8-2.1,1.7-3.1,2.5c0,0,0,0,0,0c-1.5,1.3-2.9,2.5-4.2,3.8c-0.2,0.2-0.4,0.4-0.6,0.6C357,427.7,356.4,428.3,355.8,428.8z" fill="#BCBEC0"/><path d="M132.9,506.2c4.3-0.9,8.7-1.9,13.1-2.9c4.4-1,8.9-2.1,13.4-3.2c9-2.2,18.2-4.4,27.3-6.6     c8.4-2,16.9-3.8,25.2-5.6c0.1,0,0.2-0.1,0.3-0.1c0.6-0.2,1.3-0.3,1.9-0.4c2.2-0.5,4.3-0.9,6.4-1.4c0.5-0.1,1-0.2,1.5-0.3     c1.8-0.4,3.7-0.8,5.5-1.2c0.9-0.2,1.9-0.4,2.8-0.6c0.7-0.2,1.5-0.3,2.2-0.5c2.4-0.5,4.9-1,7.3-1.6c0.1,0,0.2,0,0.3-0.1     c0.2,0,0.3-0.1,0.5-0.1c0.6-0.1,1.2-0.3,1.8-0.4c1.3-0.3,2.6-0.6,3.8-0.9c2.1-0.4,4.2-0.9,6.2-1.4c0.6-0.1,1.2-0.3,1.8-0.4     c2-0.4,4-0.9,5.9-1.3h0c0.9-0.2,1.7-0.4,2.5-0.6c0.9-0.2,1.8-0.4,2.7-0.6c1.5-0.4,3-0.7,4.5-1c0.6-0.1,1.3-0.3,2-0.4     c2.6-0.6,5.2-1.2,7.7-1.8c1-0.2,1.9-0.4,2.8-0.6c1.8-0.4,3.5-0.8,5.3-1.3c0.8-0.2,1.6-0.4,2.4-0.6c0.9-0.3,1.8-0.5,2.6-0.7     c2.3-0.6,4.5-1.1,6.6-1.7c0.8-0.2,1.6-0.4,2.4-0.6c1.6-0.4,3.2-0.9,4.7-1.4c0.7-0.2,1.3-0.4,2-0.6c1-0.3,1.9-0.6,2.9-0.9     c1-0.3,2-0.6,2.9-1c2.3-1,4.4-2,6.1-3.2c3.5-2.3,5.7-4.9,6.6-7c0.7-1.6,0.9-2.7,0.9-3.1c0-0.1,0-0.1,0-0.1l3.1-7.4     c0.4,0.1,0.8,0.3,1.2,0.5c0.7,0.4,1.4,0.8,2,1.3c0.3,0.3,0.6,0.5,0.9,0.8l0.7,0.8c0.3,0.6,0.7,1.2,0.7,1.8c0.2,0.6,0,1.2,0,1.8     c-0.3,1.2-0.5,2.3-0.9,3c-0.1,0.4-0.2,0.7-0.3,1c-0.1,0.3-0.1,0.4-0.1,0.4s0.1-0.1,0.3-0.2c0.2-0.1,0.5-0.3,0.9-0.6     c0.8-0.5,1.7-1.5,2.4-3c0.2-0.8,0.5-1.7,0.4-2.7c0,0,0-0.1,0-0.1l5.9-0.6c0.1,1.2,0.2,2.3,0.4,3.5c0.6,4,1.6,7.9,3,11.7     c0.3,0.8,0.6,1.7,0.9,2.5c0.5,1.3,1.1,2.5,1.7,3.8c1.2,2.5,2.5,5,4.1,7.3c-3.9,0.5-8.3,1.1-13.3,1.7c-6.4,0.9-13.6,1.8-21.5,3.4     c0,0,0,0,0,0c-0.6,0.1-1.3,0.2-1.9,0.4c-7.3,1.4-15.1,3.1-23.3,4.8c-4.5,0.9-9.1,1.9-13.7,2.9c-4.7,1-9.5,2-14.3,3     c-4.9,1-9.8,2.1-14.8,3.1c-5,1.1-10.1,2.2-15.2,3.2c-10.2,2.2-20.6,4.4-31,6.7c-10.4,2.3-20.8,4.5-31,6.8     c-5.1,1.1-10.2,2.2-15.1,3.2c-5,1-10,2.1-14.8,3.1c-9.7,2-19.2,3.9-28.1,5.8c-8.9,1.8-17.4,3.6-25.2,5.1c-7.9,1.5-14.8,4-21.1,5     c-3.1,0.4-6.1,0.7-8.7,0.1c-2.6-0.6-4.6-2-6-3.7c-0.5-1-1.2-1.8-1.5-2.8c-0.3-1-0.6-1.9-0.9-2.7c-0.1-1.1-0.3-2-0.5-2.9     c3.9-0.5,8.5-1.2,13.6-2c5.6-1.1,12-2.3,18.9-3.6c6.9-1.4,14.4-2.9,22.4-4.5C115.9,509.9,124.3,508.1,132.9,506.2z" fill="#BCBEC0"/><path d="M317.3,418.7c0.7-0.6,1.3-1.4,2.1-1.9c0.8-0.6,1.6-1.2,2.4-1.8c0.8-0.6,1.7-1.1,2.6-1.6     c1.7-1.2,3.7-1.9,5.6-2.9c2-0.7,3.9-1.5,5.9-2c1-0.2,2-0.6,3-0.7c1-0.2,2-0.4,3-0.5c2-0.2,3.9-0.4,5.7-0.3     c1.6,0.1,3.1,0.1,4.5,0.3c-0.3,0.4-0.5,0.7-0.7,1.1c-2.7,3.9-4.1,8.6-5.3,13.2c-0.2,0.7-0.3,1.4-0.4,2.2     c-7.3,0.5-16.6,1.2-27.4,2c-2.3,0.2-4.6,0.4-7,0.6c0.3-0.5,0.7-1,1-1.6c0.8-1.4,1.9-2.7,3-4.1     C315.9,419.9,316.6,419.3,317.3,418.7z" fill="#BCBEC0"/><path d="M309.7,398.2c-1.2,1.3-1.8,2.8-2.6,4.1c-0.1,0.3-0.2,0.5-0.3,0.7c-0.1-0.2-0.1-0.5-0.2-0.7c-0.4-1.6-0.7-3.4-1-5.3     c-0.2-1.9-0.4-3.9-0.1-5.8c0-0.5,0.1-1,0.3-1.4c0.1-0.4,0.2-0.9,0.4-1.4c0.3-0.9,0.8-1.6,1.4-2.2c0.6-0.6,1.3-1,2.2-1.4     c1-0.3,2.1-0.7,3.1-1c2.1-0.5,4.2-0.9,6.3-0.8c1,0,2.1,0.1,3.1,0.2c1,0.1,2,0.4,3,0.6c1.9,0.7,3.7,1.4,5.3,2.4     c1.1,0.6,2.1,1.4,3,2c-0.4,0-0.7,0.1-1.1,0.1c-1.5,0.1-3,0.4-4.6,0.7c-0.8,0.1-1.6,0.4-2.4,0.5c-0.8,0.2-1.6,0.4-2.4,0.6     c-1.6,0.4-3.3,1.2-5,1.7c-1.6,0.8-3.2,1.5-4.7,2.6c-0.7,0.6-1.4,1.1-2.1,1.7C310.8,396.8,310.3,397.6,309.7,398.2z"/><path d="M106,477.2c0.1,1,0.1,2,0.2,3.1c0.1,1,0.2,2.1,0.3,3.1c0,0.4,0.1,0.7,0.1,1.1c-2.9,0.1-5.8,0.2-8.6,0.2     c0-0.4,0-0.9,0-1.3c0-0.4,0-0.8,0-1.2v-1.2c0-0.8,0-1.7-0.1-2.5c-0.1-0.8-0.1-1.7-0.2-2.5l-0.1-1.2c-0.1-0.4-0.1-0.8-0.2-1.2     c-0.1-0.8-0.2-1.5-0.3-2.3c-0.2-0.7-0.3-1.4-0.5-2c-0.4-1.3-0.9-2.2-1.3-2.9c-0.4-0.6-0.7-1-0.7-1s-0.2,0.5-0.4,1.3     c-0.2,0.8-0.3,1.8-0.2,3.1c0,0.6,0.1,1.3,0.2,2c0,0.7,0.1,1.4,0.1,2.2c0,0.4,0,0.8,0.1,1.2l0.1,1.2c0.1,0.8,0.1,1.6,0.2,2.4     c0.1,0.8,0.1,1.6,0.2,2.5l0.1,1.2c0,0.4,0.1,0.8,0.1,1.2c0.1,0.4,0.1,0.9,0.1,1.3c-2,0.1-3.9,0.2-5.8,0.3c-0.6,0-1.2,0-1.8,0.1     l0-1.3c0-0.9,0-1.8-0.1-2.7c0-0.9-0.1-1.8-0.1-2.6l-0.1-1.3c0-0.5-0.1-0.9-0.1-1.3c-0.1-0.8-0.1-1.6-0.2-2.4     c-0.1-0.8-0.1-1.5-0.2-2.2c-0.2-1.3-0.5-2.4-0.9-3.2c-0.3-0.8-0.6-1.2-0.6-1.2l-0.4-4.9c0.1-0.1,0.2-0.3,0.5-0.5     c0.3-0.4,0.8-0.9,1.2-1.8c0.9-1.6,1.5-4.4,1.1-7.6c1.1-0.1,2.2-0.2,3.5-0.3c7.8-0.7,18.9-1.7,32.2-3.2c6.7-0.8,13.9-1.6,21.5-2.5     c7.6-0.8,15.6-1.8,23.9-2.7c4.1-0.5,8.4-1,12.7-1.4c4.2-0.5,8.6-1,12.9-1.5c8.7-1,17.6-2.1,26.4-3c8.9-0.8,17.8-1.7,26.5-2.5     c4.4-0.4,8.7-0.9,13-1.3c4.3-0.4,8.5-0.8,12.7-1.3c8.3-0.8,16.4-1.6,24-2.4c3.8-0.4,7.4-0.7,11-1.1c0.7-0.1,1.3-0.1,2-0.2     c2.9-0.3,5.8-0.6,8.6-0.9c10.6-1.1,19.7-2.2,26.9-3.1c-0.5,3.6-0.7,7.2-0.8,10.8c0,1.7,0,3.4,0.1,5c0,0.6,0,1.2,0.1,1.8     c0.1,1.4,0.1,2.8,0.3,4.2l-5.9,0.6c0-1-0.4-2-0.8-2.9c-0.3-0.4-0.6-0.9-0.9-1.4c-0.3-0.4-0.7-0.8-1.1-1.2     c-0.8-0.8-1.7-1.3-2.7-1.8c-1-0.4-2-0.9-3-1.1c-0.5-0.2-1-0.2-1.5-0.3c-0.5,0-1-0.1-1.5-0.2c-1,0-2,0-2.9,0.2     c-0.9,0.1-1.7,0.3-2.5,0.7c-0.7,0.3-1.4,0.7-1.8,1.2c-0.5,0.4-0.9,0.8-1.1,1.2c-0.5,0.8-0.6,1.3-0.6,1.3s0.5-0.1,1.3-0.4     c0.4-0.2,0.9-0.3,1.4-0.4c0.5-0.1,1.1-0.3,1.7-0.4c0.6-0.1,1.3-0.3,2-0.3c0.7-0.1,1.5,0.1,2.3,0.1c0.4,0,0.8,0.1,1.2,0.2     c0.4,0.1,0.8,0.1,1.2,0.3c0.4,0.1,0.8,0.3,1.2,0.4l-3.1,7.4c0,0,0,0.1,0,0.1c-0.1,0.4-0.5,1.4-1.2,2.9c-1,2-3.3,4.2-6.8,6.3     c-1.7,1.1-3.8,1.9-6.1,2.8c-0.7,0.3-1.5,0.5-2.3,0.7c0-0.3,0-0.5,0-0.8c0-0.4,0-0.9,0-1.4c0-0.9,0-1.9,0-2.9     c-0.1-1-0.1-1.9-0.1-2.9c0-0.4-0.1-0.9-0.1-1.4c0-0.5-0.1-0.9-0.1-1.4c-0.1-0.9-0.1-1.8-0.2-2.6c-0.1-0.8-0.1-1.6-0.2-2.3     c-0.2-1.4-0.6-2.6-0.9-3.5c-0.4-0.8-0.6-1.4-0.6-1.4s-0.2,0.5-0.5,1.4c-0.3,0.8-0.5,2.1-0.6,3.5c-0.1,0.7-0.1,1.5-0.1,2.4     c0,0.8,0,1.7,0,2.6c0,0.5,0,0.9,0,1.4c0,0.5,0,1,0,1.4c0,0.9,0.1,1.9,0.1,2.9c0.1,1,0.1,1.9,0.2,2.9c0.1,0.5,0.1,0.9,0.1,1.4     c0,0.5,0.1,0.9,0.1,1.4c0,0,0,0.1,0,0.1c-0.8,0.2-1.5,0.4-2.3,0.6c-1.3,0.4-2.7,0.7-4.1,1.1c0-0.6,0.1-1.4,0.1-2.1     c0-0.4,0-0.8,0.1-1.3l0.1-1.3c0.1-0.9,0.1-1.8,0.2-2.7c0-0.9,0.1-1.8,0.1-2.8c0-0.5,0-0.9,0-1.4c0-0.5,0-0.9-0.1-1.4     c-0.1-0.9-0.1-1.7-0.2-2.5c-0.1-0.8-0.3-1.6-0.4-2.2c-0.3-1.4-1.1-2.5-1.5-3.2c-0.5-0.7-0.9-1.1-0.9-1.1s-0.1,0.5-0.2,1.4     c-0.2,0.8,0,1.9-0.1,3.3c0,0.6,0,1.4,0.1,2.1c0.1,0.7,0,1.6,0,2.4c0,0.4,0,0.8,0,1.3l-0.1,1.3c0,0.9,0,1.8-0.1,2.7     c0,0.9,0,1.8-0.1,2.7l0,1.4c0,0.4,0,0.9,0,1.3c0.1,0.9,0.1,1.7,0.2,2.5c0,0.1,0,0.1,0,0.2c-2,0.5-4.1,0.9-6.3,1.4     c0-0.4-0.1-0.8-0.1-1.2c0-0.5,0-1-0.1-1.4c0-0.5-0.1-1-0.1-1.5c-0.1-1-0.1-2-0.2-3c-0.1-1-0.2-2-0.3-3c-0.1-0.5-0.1-1-0.2-1.5     c-0.1-0.4-0.2-0.9-0.2-1.4c-0.1-0.9-0.3-1.8-0.4-2.7c-0.1-0.9-0.2-1.7-0.3-2.4c-0.3-1.5-0.7-2.7-1-3.6c-0.4-0.9-0.7-1.4-0.7-1.4     s-0.2,0.5-0.5,1.4c-0.3,0.9-0.4,2.2-0.5,3.7c0,0.7,0,1.6,0,2.5c0,0.9,0.1,1.8,0.2,2.7c0,0.5,0.1,0.9,0.1,1.4c0,0.5,0.1,1,0.1,1.5     c0.1,1,0.2,2,0.3,3c0.1,1,0.2,2,0.4,3c0.1,0.5,0.1,1,0.2,1.5c0.1,0.5,0.1,0.9,0.2,1.4c0.1,0.5,0.2,1.1,0.2,1.6     c-0.9,0.2-1.8,0.4-2.8,0.7c-1.5,0.3-3.1,0.7-4.6,1c0-0.2,0-0.4,0-0.7c0-0.5,0-1.1,0-1.7c0-1.2,0-2.3,0-3.5     c-0.1-1.2-0.2-2.3-0.3-3.5c-0.1-0.6-0.1-1.2-0.2-1.7c0-0.6-0.1-1.1-0.2-1.7c-0.1-1.1-0.2-2.2-0.4-3.2c-0.1-1-0.2-2-0.4-2.8     c-0.3-1.7-0.7-3.2-1.1-4.1c-0.4-1-0.7-1.5-0.7-1.5s-0.2,0.6-0.5,1.7c-0.2,1.1-0.4,2.5-0.4,4.3c0,0.9,0,1.8,0.1,2.8     c0,1,0.1,2.1,0.1,3.2c0,0.5,0,1.1,0.1,1.6c0,0.6,0.1,1.1,0.1,1.7c0.1,1.1,0.2,2.3,0.3,3.4c0,1.2,0.1,2.3,0.1,3.5     c0,0.6,0,1.2,0.1,1.7c0,0.5,0,0.9,0.1,1.3c-2.4,0.5-4.9,1.1-7.4,1.6c0-0.3,0-0.6,0-1c0-0.9,0-1.8,0-2.7c0-0.5,0-1,0-1.4     c0-0.5,0-1,0-1.5c0-1,0-2-0.1-3c-0.1-1-0.1-2-0.2-3c0-0.5-0.1-1-0.1-1.5c0-0.5-0.1-0.9-0.1-1.4c-0.1-0.9-0.2-1.8-0.3-2.7     c-0.1-0.9-0.2-1.7-0.3-2.4c-0.3-1.5-0.6-2.7-1-3.6c-0.4-0.9-0.7-1.4-0.7-1.4s-0.2,0.5-0.5,1.4c-0.3,0.9-0.5,2.2-0.6,3.7     c0,0.7,0,1.6,0,2.4c0,0.9,0,1.8,0.1,2.7c0,0.4,0,0.9,0,1.4c0,0.5,0,1,0.1,1.5c0,1,0.1,2,0.2,3c0.1,1,0.1,2,0.2,3     c0,0.5,0.1,1,0.1,1.5c0,0.5,0.1,0.9,0.1,1.4c0.1,0.9,0.2,1.8,0.3,2.7c0,0.5,0.1,1,0.1,1.4c-1.5,0.3-3.1,0.7-4.6,1     c-0.7,0.1-1.4,0.3-2.1,0.4c0-0.4,0-0.9,0-1.3c0-0.5,0-1.1,0-1.6c0-0.5,0-1.1,0-1.7c0-1.1-0.1-2.2-0.1-3.4c0-1.1-0.1-2.2-0.2-3.3     c0-0.5-0.1-1.1-0.1-1.6c0-0.5-0.1-1.1-0.1-1.6c-0.1-1-0.2-2.1-0.3-3c-0.1-1-0.2-1.9-0.3-2.7c-0.2-1.7-0.6-3.1-0.9-4.1     c-0.4-1-0.6-1.5-0.6-1.5s-0.3,0.5-0.5,1.5c-0.3,1-0.5,2.4-0.6,4.1c0,0.9,0,1.8,0,2.8c0,1,0,2,0,3.1c0,0.5,0,1.1,0,1.6     c0,0.5,0,1.1,0,1.7c0.1,1.1,0.1,2.2,0.2,3.4c0.1,1.1,0.1,2.2,0.2,3.3c0.1,0.5,0.1,1.1,0.1,1.6c0.1,0.5,0.1,1.1,0.1,1.6     c0.1,0.6,0.1,1.2,0.2,1.8c-1.8,0.4-3.5,0.7-5.3,1.1c0-0.4,0.1-0.8,0.1-1.3c0-0.9,0.1-1.9,0.1-2.8c0-0.5,0-1,0-1.5     c0-0.5,0-1,0-1.5c0-1,0-2.1,0-3.2c-0.1-1-0.2-2.1-0.2-3.2c-0.1-0.5-0.1-1-0.1-1.5c-0.1-0.5-0.1-1-0.2-1.5c-0.1-1-0.2-1.9-0.4-2.8     c-0.2-0.9-0.3-1.8-0.5-2.5c-0.4-1.5-0.9-2.8-1.3-3.7c-0.4-0.9-0.8-1.4-0.8-1.4s-0.2,0.6-0.4,1.5c-0.2,0.9-0.3,2.3-0.2,3.8     c0,0.8,0.1,1.6,0.2,2.5c0.1,0.9,0.1,1.8,0.1,2.8c0,0.5,0,1,0.1,1.5c0,0.5,0,1,0.1,1.5c0.1,1,0.1,2.1,0.2,3.1     c0.1,1,0.1,2.1,0.2,3.1c0,0.5,0.1,1,0.1,1.5c0,0.5,0.1,1,0.1,1.5c0.1,1,0.1,1.9,0.2,2.8c0,0.6,0.1,1.2,0.1,1.8     c-3.1,0.6-6.3,1.3-9.5,2c0-1,0.1-2.1,0.1-3.2c0-0.5,0-1.1,0.1-1.7c0-0.6,0-1.2,0-1.8c0-1.2,0-2.3,0-3.5c-0.1-1.2-0.1-2.3-0.2-3.5     c-0.1-0.6-0.1-1.2-0.1-1.7c-0.1-0.5-0.1-1.1-0.2-1.7c-0.1-1.1-0.2-2.2-0.3-3.2c-0.1-1-0.2-2-0.3-2.9c-0.3-1.8-0.7-3.2-1-4.2     c-0.4-1-0.6-1.6-0.6-1.6s-0.2,0.6-0.5,1.7c-0.2,1-0.5,2.5-0.5,4.3c-0.1,0.9,0,1.8,0,2.9c0,1,0,2.1,0.1,3.2c0,0.5,0,1.1,0,1.7     c0,0.6,0.1,1.2,0.1,1.7c0.1,1.2,0.1,2.3,0.2,3.5c0,1.2,0.1,2.3,0.1,3.5c0,0.6,0.1,1.2,0.1,1.7c0,0.6,0.1,1.1,0.1,1.7     c0,1.1,0.1,2.2,0.2,3.2c0,0.2,0,0.4,0,0.5c-2.4,0.5-4.9,1-7.4,1.5c0-0.1,0-0.3,0-0.4c0-1.1,0-2.2,0-3.3c0-0.5,0-1.1,0-1.7     c0-0.6,0-1.2-0.1-1.8c0-1.2-0.1-2.4-0.1-3.6c-0.1-1.2-0.1-2.4-0.2-3.6c0-0.6-0.1-1.2-0.1-1.8c-0.1-0.6-0.1-1.2-0.2-1.7     c-0.1-1.2-0.2-2.3-0.3-3.3c-0.1-1-0.2-2-0.3-2.9c-0.3-1.8-0.6-3.3-1-4.4c-0.4-1.1-0.6-1.7-0.6-1.7s-0.2,0.6-0.5,1.7     c-0.2,1.1-0.5,2.6-0.5,4.4c0,0.9,0,1.9,0,3c0,1.1,0,2.2,0.1,3.3c0,0.6,0,1.2,0,1.7c0,0.6,0.1,1.2,0.1,1.8     c0.1,1.2,0.1,2.4,0.2,3.7c0.1,1.2,0.2,2.4,0.3,3.6c0,0.6,0.1,1.2,0.1,1.8c0.1,0.6,0.1,1.2,0.2,1.7c0.1,1.2,0.2,2.3,0.3,3.3     c0,0.2,0,0.3,0,0.5c-2.3,0-4.8,0.1-7.3,0.1c0-0.2,0-0.4,0-0.6c0-1,0.1-2.1,0.1-3.1c0-0.5,0-1.1,0.1-1.7c0-0.5,0-1.1,0.1-1.7     c0-1.2,0-2.3,0.1-3.5c0-1.2,0-2.3,0-3.5c0-0.5,0-1.1,0-1.7c0-0.6,0-1.1-0.1-1.7c0-1.1-0.1-2.1-0.1-3.1c0-1-0.1-1.9-0.2-2.8     c-0.2-1.7-0.5-3.2-0.8-4.2c-0.3-1-0.6-1.6-0.6-1.6s-0.3,0.6-0.5,1.6c-0.3,1-0.6,2.5-0.8,4.2c-0.1,0.9-0.1,1.8-0.2,2.8     c0,1-0.1,2-0.1,3.1c0,0.5,0,1.1-0.1,1.7c0,0.5,0,1.1,0,1.7c0,1.1,0,2.3,0,3.4c0,1.2,0,2.3,0.1,3.4c0,0.6,0,1.1,0.1,1.7     c0,0.6,0,1.1,0.1,1.7c0,1.1,0.1,2.1,0.1,3.1c0,0.2,0,0.5,0,0.7c-1.9,0.1-3.9,0.1-5.9,0.2c0-0.2,0-0.4,0.1-0.6     c0.1-0.9,0.1-1.9,0.2-3c0-0.5,0-1.1,0-1.6c0-0.5,0-1.1,0-1.6c0-1.1-0.1-2.2-0.1-3.3c-0.1-1.1-0.2-2.2-0.2-3.2     c0-0.5-0.1-1.1-0.1-1.6c-0.1-0.5-0.1-1-0.2-1.5c-0.1-1-0.2-2-0.3-2.9c-0.1-0.9-0.2-1.8-0.3-2.6c-0.3-1.6-0.6-2.9-0.9-3.9     c-0.3-0.9-0.6-1.5-0.6-1.5s-0.3,0.5-0.5,1.5c-0.3,1-0.6,2.3-0.6,4c0,0.8,0,1.7,0,2.6c0,0.9,0.1,1.9,0.1,2.9c0,0.5,0,1,0.1,1.6     c0,0.5,0,1,0.1,1.6c0.1,1.1,0.1,2.1,0.2,3.2c0.1,1.1,0.1,2.2,0.2,3.2c0.1,0.5,0.1,1,0.1,1.5c0,0.5,0,1,0.1,1.5c0,1,0.1,2,0.1,2.9     c0,0.3,0,0.5,0,0.8c-2.2,0.1-4.4,0.1-6.7,0.2c0-0.1,0-0.2,0-0.2c0-0.9,0-1.9,0.1-2.9c0-0.5,0-1,0-1.5c0-0.5,0-1.1,0-1.6     c0-1.1,0-2.2,0-3.2c0-1.1-0.1-2.2-0.1-3.2c0-0.5-0.1-1.1-0.1-1.6c0-0.5-0.1-1-0.1-1.5c-0.1-1-0.1-2-0.2-2.9     c-0.1-0.9-0.1-1.8-0.2-2.6c-0.2-1.6-0.5-3-0.9-3.9c-0.3-1-0.6-1.5-0.6-1.5s-0.3,0.5-0.5,1.5c-0.3,0.9-0.5,2.3-0.7,3.9     c-0.1,0.8-0.1,1.7-0.1,2.6c0,0.9,0,1.9,0,2.9c0,0.5,0,1,0,1.5c0,0.5,0,1.1,0,1.6c0,1.1,0,2.2,0.1,3.2c0,1.1,0.1,2.2,0.1,3.2     c0,0.5,0.1,1,0.1,1.6c0,0.5,0.1,1,0.1,1.5c0.1,1,0.1,2,0.2,2.9c0,0.1,0,0.2,0,0.2c-2.4,0.1-5,0.2-7.5,0.3c0-0.4,0-0.7,0-1.1     c0-0.9,0-1.9,0-2.9c0-0.5,0-1,0-1.5c0-0.5,0-1,0-1.5c0-1-0.1-2.1-0.1-3.2c-0.1-1-0.1-2.1-0.2-3.1c0-0.5-0.1-1-0.1-1.5     c-0.1-0.5-0.1-1-0.2-1.5c-0.1-1-0.2-1.9-0.3-2.8c-0.1-0.9-0.2-1.7-0.3-2.5c-0.3-1.5-0.6-2.8-1-3.7c-0.4-0.9-0.6-1.4-0.6-1.4     s-0.3,0.5-0.5,1.4c-0.3,0.9-0.5,2.3-0.5,3.8c-0.1,0.8,0,1.6,0,2.5c0,0.9,0,1.8,0.1,2.8c0,0.5,0,1,0,1.5c0,0.5,0,1,0.1,1.5     c0.1,1,0.1,2.1,0.2,3.1c0.1,1,0.1,2.1,0.2,3.1c0,0.5,0.1,1,0.1,1.5c0,0.5,0.1,1,0.1,1.5c0.1,1,0.2,1.9,0.3,2.8     c0,0.4,0.1,0.7,0.1,1.1c-1.8,0.1-3.6,0.1-5.4,0.2c-0.6,0-1.3,0-2,0.1c0-0.5,0-1.1,0.1-1.7c0-0.8,0-1.7,0.1-2.6c0-0.5,0-0.9,0-1.4     c0-0.4,0-0.9,0-1.4c0-1,0-2,0-2.9c0-1-0.1-2-0.1-2.9c0-0.5-0.1-1-0.1-1.4c0-0.5-0.1-0.9-0.1-1.4c-0.1-0.9-0.1-1.8-0.2-2.6     c-0.1-0.8-0.1-1.6-0.2-2.3c-0.2-1.5-0.5-2.7-0.9-3.6c-0.3-0.8-0.6-1.3-0.6-1.3s-0.3,0.5-0.5,1.3c-0.3,0.9-0.5,2.1-0.7,3.6     c-0.1,0.7-0.1,1.5-0.1,2.4c0,0.8,0,1.7,0,2.7c0,0.5,0,0.9,0,1.4c0,0.5,0,1,0,1.4c0,1,0,2,0.1,2.9c0,1,0.1,2,0.1,2.9     c0,0.5,0.1,1,0.1,1.4c0,0.4,0.1,0.9,0.1,1.4c0.1,0.9,0.1,1.8,0.2,2.7c0,0.6,0.1,1.2,0.2,1.7c-1.7,0-3.4,0.1-5.1,0.1     c-0.3,0-0.5,0-0.7,0c0-0.3,0-0.5,0-0.8c0-0.5,0-1.1,0-1.7c0-0.6,0-1.2,0-1.7c0-1.2,0-2.4,0-3.6c0-1.2,0-2.3-0.1-3.5     c0-0.6,0-1.2,0-1.7c0-0.6-0.1-1.1-0.1-1.7c-0.1-1.1-0.1-2.2-0.2-3.2c-0.1-1-0.1-2-0.2-2.9c-0.2-1.8-0.5-3.3-0.8-4.3     c-0.3-1.1-0.6-1.7-0.6-1.7s-0.3,0.6-0.5,1.6c-0.3,1-0.6,2.5-0.7,4.3c-0.1,0.9-0.1,1.9-0.1,2.9c0,1,0,2.1-0.1,3.2     c0,0.6,0,1.1,0,1.7c0,0.6,0,1.2,0,1.8c0,1.2,0,2.4,0.1,3.6c0,1.2,0.1,2.4,0.2,3.6c0,0.6,0.1,1.2,0.1,1.7c0,0.6,0.1,1.1,0.1,1.7     c0,0.3,0,0.5,0.1,0.8c-2,0.1-4.1,0.2-6.1,0.2c-0.5,0-1,0-1.5,0.1c0-0.3,0-0.6-0.1-1c0-0.8,0-1.7,0-2.7c0-0.5,0-1,0-1.4     c0-0.5,0-1,0-1.4c0-1,0-2-0.1-3c0-1,0-2,0-3c0-0.5,0-1-0.1-1.4c0-0.5,0-1,0-1.4c0-0.9-0.1-1.8-0.1-2.7c0-0.9-0.1-1.7-0.1-2.4     c-0.2-1.5-0.5-2.8-0.8-3.6c-0.3-0.9-0.5-1.4-0.5-1.4s-0.3,0.5-0.6,1.4c-0.3,0.9-0.6,2.1-0.8,3.6c-0.1,0.7-0.1,1.6-0.2,2.4     c0,0.9-0.1,1.8-0.1,2.7c0,0.5,0,1,0,1.4c0,0.5,0,1,0,1.5c0,1,0,2,0,3c0.1,1,0.1,2,0.2,3.1c0,0.5,0.1,1,0.1,1.5     c0,0.5,0.1,1,0.1,1.4c0.1,0.9,0.1,1.9,0.3,2.7c0,0.3,0.1,0.6,0.1,0.9c-2.6,0.1-5.2,0.2-7.8,0.3c0-0.8,0-1.7,0-2.6     c0-0.4,0-0.9,0-1.4c0-0.4,0-0.9,0-1.4c0-0.9-0.1-1.9-0.1-2.9c0-1,0-2,0-2.9c0-0.5,0-0.9,0-1.4c0-0.5,0-0.9,0-1.4     c0-0.9-0.1-1.8-0.1-2.6c-0.1-0.8-0.1-1.6-0.2-2.4c-0.2-1.4-0.5-2.7-0.8-3.5c-0.3-0.9-0.5-1.4-0.5-1.4s-0.3,0.5-0.6,1.4     c-0.3,0.9-0.6,2.1-0.8,3.6c-0.1,0.7-0.1,1.5-0.2,2.4c0,0.8-0.1,1.7-0.1,2.6c0,0.5,0,0.9,0,1.4c0,0.4,0,0.9,0,1.4c0,1,0,2,0,2.9     c0.1,1,0.2,2,0.2,3c0,0.5,0.1,1,0.1,1.4c0,0.5,0.1,1,0.1,1.4c0.1,0.9,0.2,1.7,0.3,2.6c-1.8,0.1-3.6,0.1-5.3,0.2     c-0.2,0-0.3,0-0.5,0c0-0.4,0-0.7,0-1c0-0.5,0-1,0-1.5c0-0.5,0-1.1,0-1.6c0-1.1,0-2.1,0-3.2c-0.1-1.1-0.1-2.2-0.2-3.2     c0-0.5-0.1-1.1-0.1-1.6c-0.1-0.5-0.1-1-0.1-1.5c-0.1-1-0.1-2-0.3-2.9c-0.2-0.9-0.3-1.8-0.5-2.6c-0.4-1.6-0.9-2.9-1.3-3.8     c-0.4-0.9-0.8-1.4-0.8-1.4s-0.2,0.6-0.3,1.6c-0.2,1-0.3,2.3-0.2,3.9c0,0.8,0.1,1.6,0.2,2.5c0.1,0.9,0,1.9,0.1,2.9     c0,0.5,0,1,0,1.5c0,0.5,0,1,0.1,1.5c0,1.1,0.1,2.1,0.2,3.2c0,1.1,0.1,2.2,0.1,3.2c0,0.5,0.1,1.1,0.1,1.6c0,0.5,0.1,1,0.1,1.5     c0,0.4,0.1,0.7,0.1,1c-1.9,0.1-3.9,0.2-5.8,0.2c0-0.2,0-0.5,0-0.7c0-0.5,0-1,0.1-1.5c0-0.5,0-1,0-1.5c0-1,0-2.1,0-3.2     c-0.1-1-0.1-2.1-0.2-3.2c0-0.5-0.1-1-0.1-1.5c0-0.5-0.1-1-0.1-1.5c-0.1-1-0.2-1.9-0.4-2.8c-0.2-0.9-0.4-1.8-0.6-2.5     c-0.4-1.5-1-2.8-1.4-3.7c-0.5-0.8-0.8-1.3-0.8-1.3s-0.2,0.6-0.3,1.5c-0.2,1-0.3,2.3-0.2,3.8c0,0.8,0.1,1.6,0.3,2.5     c0.1,0.9,0.1,1.8,0.1,2.8c0,0.5,0,1,0.1,1.5c0,0.5,0.1,1,0.1,1.5c0.1,1,0.1,2,0.2,3.1c0,1,0.1,2.1,0.1,3.1c0,0.5,0.1,1,0.1,1.5     c0,0.5,0.1,1,0.1,1.5c0,0.3,0,0.5,0.1,0.7c-2.6,0.1-5.1,0.2-7.6,0.2c0-0.3,0-0.5,0-0.8c0-0.5,0-1,0-1.4c0-0.5,0-1,0-1.5     c0-1,0-2-0.1-3c-0.1-1-0.1-2-0.2-3c0-0.5-0.1-1-0.1-1.5c-0.1-0.5-0.1-1-0.1-1.4c-0.1-0.9-0.2-1.9-0.3-2.7     c-0.1-0.9-0.1-1.7-0.3-2.4c-0.3-1.5-0.6-2.8-1-3.7c-0.3-0.9-0.6-1.4-0.6-1.4s-0.2,0.5-0.5,1.4c-0.3,0.9-0.5,2.2-0.6,3.7     c-0.1,0.8,0,1.6,0,2.5c0,0.9,0,1.8,0,2.8c0,0.5,0,1,0,1.5c0,0.5,0,1,0.1,1.5c0,1,0.1,2,0.1,3.1c0.1,1,0.2,2,0.2,3     c0,0.5,0.1,1,0.1,1.5c0,0.5,0.1,1,0.1,1.5c0,0.2,0,0.4,0.1,0.6c-2.1,0.1-4.2,0.1-6.2,0.2c0-0.2,0-0.5,0-0.7c0-0.5-0.1-1-0.1-1.4     c-0.1-1-0.1-2-0.2-3c0-1-0.1-2-0.1-3c0-0.5,0-1-0.1-1.4c0-0.5,0-1-0.1-1.4c-0.1-0.9-0.1-1.8-0.2-2.7c-0.1-0.9-0.1-1.7-0.2-2.4     c-0.2-1.5-0.5-2.8-0.8-3.6c-0.3-0.9-0.6-1.4-0.6-1.4s-0.3,0.5-0.5,1.4c-0.3,0.9-0.5,2.2-0.7,3.7c-0.1,0.8-0.1,1.6-0.1,2.4     c0,0.9,0,1.8,0,2.7c0,0.5,0,1,0,1.4c0,0.5,0,1,0,1.5c0,1,0,2,0.1,3c0.1,1,0.2,2,0.3,3c0.1,0.5,0.1,1,0.2,1.5     c0,0.2,0.1,0.4,0.1,0.6c-1.8,0.1-3.6,0.1-5.3,0.2c0-0.4-0.1-0.8-0.1-1.2c-0.1-1-0.1-2-0.2-3.1c-0.1-1-0.2-2.1-0.3-3.1     c0-0.5-0.1-1-0.1-1.5c0-0.5-0.1-1-0.2-1.5c-0.1-1-0.2-1.9-0.3-2.8c-0.1-0.9-0.2-1.7-0.4-2.5c-0.3-1.5-0.7-2.8-1-3.7     c-0.4-0.9-0.7-1.4-0.7-1.4s-0.2,0.5-0.5,1.4c-0.2,0.9-0.4,2.2-0.5,3.8c0,0.8,0,1.6,0,2.5c0,0.9,0.1,1.8,0.1,2.8     c0,0.5,0,1,0.1,1.5C106,476.2,106,476.7,106,477.2z" fill="#BCBEC0"/><path d="M67.5,445.6c-1.2-0.2-2.2,0-2.9,0.3c-0.6,0.3-1,0.5-1,0.5s0.4,0.3,0.9,0.6c0.6,0.3,1.3,0.7,2.2,1.1     c0.4,0.2,0.9,0.4,1.3,0.7c0.5,0.2,0.9,0.6,1.4,0.9l0.6,0.6c0.2,0.2,0.4,0.4,0.6,0.6c0.4,0.4,0.7,0.9,1.1,1.4     c0.3,0.5,0.6,1,0.9,1.5c0.1,0.3,0.3,0.5,0.3,0.8l0.3,0.8c0.1,0.5,0.3,1.1,0.3,1.6c0.1,0.5,0.1,1,0.1,1.5c0,0.9,0,1.8,0,2.4     c0,0.3,0,0.6,0,0.8c0,0.2,0,0.3,0,0.3s0.1-0.1,0.2-0.2c0.2-0.1,0.4-0.3,0.6-0.5c0.5-0.4,1.1-1.3,1.4-2.4c0.2-0.6,0.3-1.2,0.3-1.9     c0.1-0.7,0-1.4-0.1-2.2c-0.1-0.4-0.2-0.7-0.2-1.1c-0.1-0.4-0.2-0.7-0.4-1.1c-0.2-0.8-0.7-1.4-1.1-2.2c-0.5-0.6-0.9-1.4-1.5-1.9     c-0.3-0.3-0.5-0.6-0.9-0.8l-0.9-0.7c-0.7-0.4-1.3-0.8-1.9-1C68.8,445.8,68.2,445.6,67.5,445.6z M49.5,478.1     c0.1-0.7,0.1-1.4,0.1-2.2c0.1-0.7,0.1-1.4,0.1-2.2c0.1-1.3,0.1-2.6,0.2-4c0-0.2,0-0.4,0-0.5c0-0.5,0-0.9,0-1.4     c0-1,0.1-2.1,0.2-3.1c0.1-0.7,0.2-1.4,0.4-2.1c0.1-0.6,0.3-1.3,0.5-1.9c0-0.1,0-0.1,0.1-0.2c0.4-1.1,0.9-2,1.7-2.6     c0.3-0.2,0.5-0.4,0.8-0.5c0.4-0.2,0.9-0.4,1.3-0.6c0.1,1.6,0.3,2.5,0.3,2.5s0.3-1,0.8-2.7c0-0.1,0-0.1,0.1-0.2     c0.2-0.7,0.4-1.5,0.6-2.4c0.4-1.3,0.8-2.7,1.3-4.3c0.4-1.2,0.9-2.5,1.5-3.8c0.1-0.1,0.1-0.3,0.2-0.4c0.1-0.3,0.3-0.5,0.5-0.8v0     c0.7-1.1,1.5-2.2,2.4-3.1c0.6-0.6,1.3-1.1,2.1-1.5c0.7-0.4,1.5-0.7,2.3-1c1.7-0.5,3.5-0.6,5.4-0.6c1.7,0.1,3.3,0.6,4.8,1.5     c0.7,0.5,1.4,1,2.1,1.6c0.7,0.6,1.2,1.3,1.8,1.9c1.1,1.4,2,2.9,2.6,4.3c0.6,1.2,1,2.4,1.3,3.5c0.1,0.2,0.1,0.4,0.2,0.6     c0,0.1,0,0.2,0.1,0.2c0.7,2.8,0.7,5.2,0.4,6.8c-0.1,0.8-0.4,1.5-0.5,1.9c-0.1,0.4-0.2,0.6-0.2,0.7l0.4,4.9c0,0-0.3,0.4-0.5,1.2     c-0.3,0.8-0.5,1.9-0.7,3.2c-0.1,0.7-0.1,1.4-0.1,2.2c0,0.8,0,1.6,0,2.4c0,0.4,0,0.8,0,1.3l0,1.3c0,0.9,0,1.8,0.1,2.7     c0.1,0.9,0.2,1.8,0.2,2.6l0.1,1.3c-2.3,0.1-4.5,0.3-6.7,0.4v0l0-1.4c0-0.9-0.1-1.8-0.1-2.7c0-0.9-0.1-1.8-0.1-2.7l-0.1-1.3     c0-0.4-0.1-0.9-0.1-1.3c-0.1-0.9-0.1-1.7-0.2-2.5c-0.1-0.8-0.1-1.5-0.3-2.2c-0.2-1.4-0.6-2.5-0.9-3.3c-0.3-0.8-0.6-1.3-0.6-1.3     s-0.3,0.4-0.5,1.3c-0.3,0.8-0.5,2-0.6,3.4c-0.1,0.7-0.1,1.4-0.1,2.2c0,0.8,0,1.6,0,2.5c0,0.4,0,0.9,0,1.3l0,1.4     c0.1,0.9,0.1,1.9,0.1,2.8c0.1,0.9,0.2,1.8,0.2,2.7l0.2,1.3c0,0,0,0,0,0.1c-0.5,0-1.1,0.1-1.6,0.1c-2,0.2-3.8,0.3-5.6,0.4     c0-0.1,0-0.1,0-0.2c0-0.5,0-0.9,0-1.4c0-0.9,0-1.9,0-2.8c0-1-0.1-1.9-0.1-2.8l-0.1-1.4c0-0.5-0.1-0.9-0.1-1.3     c-0.1-0.9-0.1-1.7-0.2-2.5c-0.1-0.8-0.1-1.6-0.2-2.3c-0.2-1.4-0.5-2.6-0.8-3.4c-0.3-0.8-0.6-1.3-0.6-1.3s-0.3,0.5-0.5,1.3     c-0.3,0.8-0.5,2-0.7,3.5c-0.1,0.7-0.1,1.5-0.1,2.3c0,0.8,0,1.7,0,2.6c0,0.4,0,0.9,0,1.4l0,1.4c0,0.9,0.1,1.9,0.1,2.8     c0,0.9,0.1,1.9,0.1,2.8l0.1,1.4c0,0.1,0,0.3,0,0.4c-1.7,0.1-3.4,0.2-5,0.3c-0.2,0-0.4,0-0.5,0c0-0.4-0.1-0.9-0.1-1.4     c-0.1-1.2-0.1-2.3-0.2-3.5c0-0.6-0.1-1.1-0.1-1.7c0-0.5,0-1.1-0.1-1.6c0-1.1-0.1-2.1-0.1-3.1c0-1,0-1.9,0-2.8     c-0.1-1.7-0.2-3.2-0.3-4.2c-0.1-1-0.3-1.7-0.3-1.7s-0.4,0.5-0.8,1.5c-0.4,1-1,2.4-1.2,4.2c-0.2,0.9-0.3,1.9-0.3,2.9     c0,1-0.1,2.1-0.1,3.2c0,0.6,0,1.1,0,1.7s0,1.2,0,1.7c0.1,1.2,0.1,2.3,0.2,3.5c0,0.5,0.1,1,0.1,1.4c-0.6,0.1-1.3,0.1-1.9,0.1     c-1.8,0-3.4,0-4.9,0c0,0-0.1,0-0.1,0c0.1-0.4,0.1-0.9,0.2-1.4c0.1-1.1,0.2-2.4,0.3-3.7C49.3,480.9,49.4,479.6,49.5,478.1z" fill="#BCBEC0"/><path d="M44.9,462.5c-0.7-1.1-1.3-2.3-1.6-3.7c-0.1-0.7-0.3-1.4-0.4-2.2c0-0.8-0.2-1.5-0.2-2.3     c0-1.5,0.1-3.1,0.4-4.6c0.1-0.8,0.3-1.5,0.6-2.2c0.2-0.7,0.6-1.3,0.9-1.9c0.3-0.6,0.7-1.1,1.3-1.4c0.4-0.4,1-0.7,1.6-1     c1.2-0.5,2.5-0.7,3.8-0.7c1.3,0.1,2.5,0.3,3.5,0.6c0.9,0.3,1.6,0.6,2.3,1c0,0.1-0.1,0.1-0.1,0.2c-0.8,1.7-1.3,3.3-1.6,4.9     c-0.4,2-0.5,3.7-0.6,5.2c-0.6,0.1-1.4,0.3-2.1,0.6c-0.2-0.4-0.5-0.9-0.7-1.3c-0.1-0.3-0.3-0.5-0.5-0.7l-0.5-0.6     c-0.4-0.4-0.7-0.8-1.1-1.1c-0.4-0.3-0.7-0.6-1.1-0.8c-0.7-0.5-1.5-0.6-2-0.6c-0.5,0-0.9,0-0.9,0s0.1,0.4,0.3,0.9     c0.2,0.5,0.5,1.1,0.9,1.7c0.2,0.3,0.4,0.6,0.7,0.9c0.3,0.3,0.5,0.7,0.7,1l0.4,0.5c0.1,0.2,0.3,0.4,0.4,0.5     c0.2,0.4,0.4,0.8,0.6,1.2l0.1,0.3c-0.7,0.8-1.3,1.7-1.7,2.7c-0.4,0.7-0.5,1.5-0.8,2.3c-0.2,0.7-0.4,1.5-0.5,2.3     c0,0.2-0.1,0.4-0.1,0.5C46.2,464.2,45.5,463.4,44.9,462.5z" fill="#BCBEC0"/><path d="M622.7,364.3c4.5-0.2,8.9-0.9,13.4-1.9c8.8-2.1,17.5-5.7,25.2-11c7.6-5.3,14.2-12.6,17.3-21.5     c1.6-4.4,2.2-9.1,2.1-13.6c-0.2-4.6-1.2-9-2.8-13.1c-1.6-4.1-4-7.9-7.1-10.9c-3.1-3.1-6.8-5.2-10.5-6.7     c-7.5-3.1-15.1-3.9-21.9-4.2c-6.8-0.3-13.3,0-18.7,1.3c-5.5,1.2-10.1,2.9-13.7,4.6c-1.8,0.9-3.4,1.6-4.7,2.5     c-1.3,0.8-2.5,1.4-3.3,2.1c-1.5,1.1-2.4,1.7-2.6,1.9l-0.2,0.2c-0.4,0.3-1.2,0.9-2.4,1.8c-1.8,1.2-4,3.4-6.8,6.3     c-2.6,3.1-5.7,6.8-8.2,11.9c-2.2,5.4-2,12.1-0.7,18.8c1.2,6.9,4.4,14.2,10.2,19.9c2.8,3,6.3,5.2,10.1,7.2c2,0.7,3.9,1.7,6,2.3     c2.1,0.6,4.2,1.1,6.3,1.5C613.8,364.3,618.2,364.5,622.7,364.3z M428,406.7c2.3-0.4,4.9-0.9,7.8-1.5c6.7-1.4,14.8-3.4,23.5-7.5     c4.2-2.3,8.8-4.6,12.9-8.4c4.1-3.6,7.7-7.9,11.5-12.4c3.8-4.5,7.6-9.2,12.1-13.3c2.2-2.1,4.8-3.9,7.4-5.4c2.8-1.4,5.6-2.4,8.9-3     c6.4-1.4,13.5-1.6,20.3-4.8c1.7-0.7,3.3-1.7,4.9-2.8c1.5-1,2.8-2.3,4.2-3.5l2.1-1.8l1.8-2.1c1.2-1.4,2.5-2.8,3.5-4.3     c1.1-1.5,2.1-3.1,3.2-4.6c1-1.6,1.9-3.2,2.9-4.8c1.9-3.2,3.8-6.4,5.8-9.6c3.9-6.4,7.9-12.7,12.4-18.8c4.7-5.9,9.8-11.6,15.9-16.1     c6.1-4.3,13-8,20-10.9c7.1-2.9,14.5-4.9,22-5.5c7.5-0.6,15.1,0,22.2,2.3c7.1,2.2,13.5,6.1,19,11c1.9,1.7,3.6,3.5,5.2,5.4     c0.4,0.4,0.7,0.9,1.1,1.3c2.6,3.3,4.8,6.8,6.6,10.5c0.8,1.8,1.6,3.6,2.3,5.4c0.2,0.6,0.4,1.3,0.7,1.9c1.4,4.2,2.3,8.5,2.6,12.7     c0.5,6.8-1,13.4-3.5,19.4c-5.2,12.1-14,21.4-23,28.6c-9.1,7.1-18.6,11.9-27.3,15.6c-1.2,0.5-2.5,1-3.7,1.5     c-0.8,0.4-1.6,0.6-2.3,1c-4.7,1.8-9,3.3-13,4.5c-0.9,0.3-1.7,0.5-2.5,0.7c-0.5,0.2-1,0.3-1.5,0.4c-1.9,0.5-3.6,0.9-5.2,1.3     c-5.1-3.4-11.3-8.2-18.7-13.2c-2.4-1.6-5-3.3-7.8-4.7c-2.7-1.6-5.8-2.9-8.9-4.1c-6.3-2.3-13.5-3.8-20.8-3.7     c-1.8-0.1-3.7,0.1-5.6,0.2c-1.9,0-3.7,0.3-5.6,0.6l-2.8,0.4l-2.8,0.7l-2.8,0.7c-0.9,0.3-1.8,0.6-2.7,1     c-7.3,2.6-14.1,6.8-20.4,11.3c-6.2,4.6-12.5,9-18.2,14.1c-2.9,2.5-5.9,4.8-8.5,7.5c-2.7,2.6-5.3,5.2-7.9,7.8     c-2.5,2.6-4.8,5.4-7.1,8c-2.3,2.6-4.5,5.2-6.5,7.9c-2.8,3.7-5.3,7.2-7.9,10.5c-0.2,0.3-0.4,0.5-0.6,0.8c-0.9,1.2-1.8,2.3-2.7,3.5     c-4.1,5.2-8.3,9.6-12.2,12.9c1.3-8.4,0.7-15.9-0.3-21.4c-0.8-4.2-1.8-7.4-2.6-9.5c-0.8-1.8-1.2-2.9-1.3-3.2l-0.1-0.3     c-0.2-0.4-0.6-1.4-1.3-3c-0.5-1-1.2-2.2-2-3.6C429.8,409.2,429,408,428,406.7z" fill="#BCBEC0"/><path d="M413.2,402.6c1.5-0.4,2.9-0.4,4.3-0.5c1.3-0.1,2.4-0.2,3.6-0.3c0,0,0,0,0.1,0.1c1,0.7,1.9,1.5,2.8,2.2     c0.9,0.7,1.6,1.5,2.3,2.2c0,0,0,0,0.1,0.1c0.2,0.2,0.4,0.4,0.5,0.5c1.3,1.3,2.2,2.6,3.1,3.7c0.9,1.4,1.7,2.4,2.3,3.4     c0.8,1.5,1.4,2.4,1.6,2.8l0.1,0.3c0.1,0.2,0.4,1.4,1,3.3c0.6,2.2,1.4,5.4,1.9,9.5c0.6,6,0.7,14.3-1.4,23.4     c-0.2,0.7-0.4,1.5-0.6,2.3c-0.7,2.6-1.6,5.3-2.8,8c-0.5,1.1-1.1,2.3-1.7,3.4c-0.1,0.3-0.2,0.5-0.4,0.7c-2.7,5-6.4,9.8-11.5,13.5     c-6.6,4.3-15,7.1-23.6,8.1c-4.4,0.5-8.9,0.5-13.3-0.2c-4-0.6-7.9-1.8-11.5-3.7c2.1,0,4.4-0.5,6.5-1.7c2.8-1.7,4.8-4.4,6.2-7.3     c0.7-1.4,1.3-3,1.9-4.5c0.5-1.6,1-3.2,1.4-4.8c0.8-3.2,1.3-6.5,1.8-9.8c0.4-3.4,0.5-6.8,0.4-10.1c0-1.6-0.2-3.3-0.3-4.9     c-0.2-1.6-0.4-3.2-0.6-4.7c-0.6-3.1-1.2-6.1-2.1-8.8c-0.8-2.8-1.9-5.3-3.2-7.6c-1.2-2.3-2.7-4.1-4.2-5.6c0.7-0.4,1.5-0.9,2.3-1.4     c1.5-0.8,3.1-1.5,4.7-2.3c1.6-0.7,3.1-1.6,4.7-2.3c1.6-0.6,3.2-1.3,4.8-1.9c1.6-0.7,3.2-1.3,4.8-1.7c1.6-0.5,3.2-1,4.8-1.4     c1.5-0.5,3.2-0.9,4.7-1.2C410.2,403.2,411.8,402.9,413.2,402.6z" fill="#FFFFFF"/><path d="M613.4,509.8c-3.1-2.9-6-6-7.9-9.5c-4.1-7-5.5-14.9-4.9-21.8c0.5-6.8,1.9-13.3,5.4-18c3.8-4.4,7.7-7.1,10.9-9.5     c3.4-2.1,6.1-3.7,8.1-4.4c1.4-0.6,2.4-1,2.8-1.2c-0.4,0.2-1.3,0.7-2.7,1.4c-1.9,0.9-4.5,2.7-7.7,5c-3,2.5-6.8,5.6-10.1,9.7     c-3,4.4-4.1,10.5-4.4,17.2c-0.4,6.6,1,13.8,4.9,20.3c1.8,3.3,4.5,6.1,7.4,8.7c1.6,1.1,3.1,2.4,4.9,3.4c1.7,1,3.6,1.9,5.5,2.7     c3.8,1.6,7.8,2.9,12,3.7c4.2,0.9,8.5,1.3,12.9,1.4c8.7,0.1,17.7-1.2,25.9-4.3c8.2-3.1,15.8-8.2,20.6-15.2     c2.4-3.5,4.1-7.5,4.9-11.5c0.9-4.1,1.1-8.3,0.6-12.4c-0.7-8.1-5.2-15.1-11.3-19.5c-6-4.5-12.8-7.2-19.2-9.3     c-12.7-4.5-24.1-4.8-31.9-3.8c-2,0.3-3.7,0.4-5.2,0.8c-1.5,0.3-2.8,0.5-3.8,0.8c-1.5,0.5-2.5,0.7-2.9,0.8     c0.4-0.2,1.4-0.5,2.8-1.1c1-0.4,2.3-0.8,3.8-1.2c1.5-0.5,3.2-0.8,5.2-1.2c3.9-0.7,8.8-1.4,14.4-1.1c5.6,0.2,11.9,1.4,18.5,3.4     c6.5,2,13.7,4.7,20.2,9.5c3.2,2.4,6.3,5.4,8.5,9.1c2.3,3.7,3.7,8,4.2,12.4c0.5,4.4,0.4,8.9-0.6,13.4c-1,4.4-2.8,8.8-5.4,12.7     c-5.2,7.8-13.5,13.3-22.1,16.5c-8.7,3.2-18,4.6-27.1,4.4c-4.5-0.1-9-0.6-13.4-1.5c-4.4-0.9-8.6-2.2-12.6-4c-2-0.9-4-1.9-5.8-3     C616.7,512.4,615.1,510.9,613.4,509.8z"/><path d="M589,350.6c2.6,2.7,5.9,4.8,9.4,6.6c1.8,0.7,3.6,1.5,5.6,2.1c2,0.6,4,1,6,1.3c4.1,0.6,8.3,0.8,12.6,0.5     c4.2-0.2,8.6-0.9,12.8-1.9c8.5-2.1,16.8-5.6,24-10.6c7.2-5,13.2-11.9,16.1-19.9c1.4-4,2.1-8.2,1.9-12.4c-0.1-4.1-1-8.3-2.4-12.1     c-2.7-7.7-8.8-13.3-15.8-16c-6.9-2.9-14.2-3.8-20.9-4.2c-13.4-1.2-24.5,1.4-31.8,4.3c-1.8,0.7-3.4,1.4-4.8,2.1     c-1.4,0.7-2.6,1.2-3.5,1.8c-1.6,0.9-2.5,1.5-2.8,1.6c0.2-0.2,1.1-0.8,2.6-1.9c0.8-0.6,2-1.3,3.3-2.1c1.3-0.8,2.9-1.6,4.7-2.5     c3.6-1.7,8.2-3.5,13.7-4.6c5.5-1.3,11.9-1.6,18.7-1.3c6.8,0.3,14.4,1.1,21.9,4.2c3.7,1.5,7.4,3.6,10.5,6.7     c3.1,3,5.6,6.8,7.1,10.9c1.6,4.1,2.6,8.5,2.8,13.1c0.2,4.6-0.5,9.2-2.1,13.6c-3.2,8.9-9.7,16.2-17.3,21.5     c-7.7,5.3-16.3,9-25.2,11c-4.4,1-8.9,1.7-13.4,1.9c-4.5,0.2-8.9,0-13.2-0.7c-2.1-0.4-4.2-0.8-6.3-1.5c-2.1-0.6-4-1.5-6-2.3     c-3.7-2-7.3-4.2-10.1-7.2c-5.7-5.8-9-13.1-10.2-19.9c-1.3-6.7-1.5-13.4,0.7-18.8c2.6-5.2,5.7-8.8,8.2-11.9c2.8-2.9,5-5.1,6.8-6.3     c1.3-1,2.1-1.6,2.4-1.8c-0.3,0.3-1.1,1-2.2,2.1c-1.6,1.4-3.7,3.7-6.2,6.7c-2.3,3.2-5.2,7.1-7.3,11.9c-1.8,5-1.4,11.2,0,17.8     C580.5,338.7,583.7,345.4,589,350.6z"/><path d="M689.6,299c0.7-0.7,1.5-1.5,2.3-2.2c1.6-1.4,3.5-2.7,5.5-4.1c2-1.3,4.2-2.6,6.5-3.9c1.1-0.6,2.3-1.3,3.4-2     c1.2-0.6,2.3-1.3,3.5-2c2.3-1.4,4.8-2.7,7.3-3.9c2.4-1.3,5-2.4,7.5-3.6c1.3-0.6,2.6-1,3.8-1.5c1.3-0.5,2.5-1,3.7-1.4     c2.5-0.7,5-1.5,7.3-2.2c2.1-0.4,4.1-0.9,6-1.3c-0.2-0.8-0.4-1.6-0.6-2.4c-0.2-0.5-0.4-1-0.5-1.6c-0.2-0.5-0.4-1.1-0.6-1.6     c-0.4-1.1-0.9-2.1-1.4-3.2c-0.5-1-1.1-2-1.7-2.9c-0.3-0.5-0.6-0.9-1-1.3c-0.4-0.4-0.7-0.8-1-1.2c-0.8-0.7-1.4-1.4-2.2-1.9     c-0.8-0.6-1.5-1-2.3-1.4c-0.2-0.1-0.4-0.2-0.5-0.3c-0.2,0.2-0.4,0.5-0.6,0.7c-1.4,1.4-2.8,3-4.4,4.6c-1.7,1.5-3.4,3.1-5.3,4.7     c-1,0.7-2,1.5-3,2.3c-1,0.7-2,1.5-3.1,2.2c-2.2,1.4-4.3,2.9-6.6,4.2c-2.2,1.4-4.5,2.6-6.9,3.7c-1.2,0.6-2.3,1.2-3.4,1.6     c-1.1,0.5-2.2,1-3.3,1.5c-2.2,1-4.3,2-6.4,2.9c-2.1,0.9-4,1.7-5.9,2.3c-1.4,0.5-2.6,0.8-3.9,1.1c2.3,3.1,4.2,6.3,5.9,9.7     C688.5,296.1,689.1,297.5,689.6,299z M618.9,389.6l0.3,0.8l0.3,0.8c0.2,0.5,0.3,1.1,0.4,1.6l0.5,1.7l0.2,0.8l0.2,0.7     c0.5-0.1,1-0.2,1.5-0.3c0.4-0.1,0.8-0.1,1.2-0.2c0.4-0.1,0.8-0.1,1.2-0.2c0.8-0.2,1.6-0.4,2.4-0.5c0.8-0.2,1.5-0.4,2.3-0.7     c0.4-0.1,0.8-0.2,1.1-0.4c0.4-0.2,0.7-0.3,1.1-0.5c0.6-0.3,1.3-0.5,1.8-0.8c0,0,0-0.1,0-0.1l-0.2-0.8l-0.2-0.9     c-0.1-0.6-0.2-1.2-0.3-1.8l-0.5-1.8l-0.2-0.9l-0.2-0.8c-0.1-0.5-0.2-1.1-0.4-1.6c0,0,0-0.1,0-0.1c-4.7,1.7-9.1,3-13.1,4.1     c0,0.1,0.1,0.3,0.1,0.4C618.5,388.5,618.7,389,618.9,389.6z M435.5,404.1c6.6-1.7,14.6-4,22.9-8.2c4.1-2.3,8.5-4.7,12.2-8.4     c3.8-3.5,7.4-7.8,11-12.4c3.7-4.5,7.5-9.4,12.2-13.7c2.3-2.3,5-4.2,8-5.9c3-1.6,6.4-2.8,9.7-3.3c6.6-1.4,13.6-1.8,19.6-4.7     c3.1-1.3,5.7-3.5,8.2-5.9l2-1.7l1.7-2c1.1-1.4,2.3-2.6,3.3-4.1l3-4.4c1-1.5,1.9-3.2,2.8-4.7c1.9-3.2,3.8-6.4,5.7-9.6     c3.8-6.5,8-12.9,12.6-19.1c4.8-6.1,10.1-12,16.5-16.8c6.5-4.6,13.5-8.3,20.8-11.3c14.5-6,31.4-8.1,46.5-3.1     c7.5,2.4,14.3,6.6,20,11.7c2.3,2.1,4.3,4.3,6.2,6.7c1.3-0.5,2.8-1.1,4.3-1.8c1.7-0.7,3.6-1.5,5.6-2.5c2-1,4.1-2,6.2-3.1     c1.1-0.5,2.2-1.1,3.3-1.6c1.2-0.5,2.2-1.1,3.3-1.7c2.3-1.1,4.5-2.3,6.7-3.6c2.3-1.2,4.3-2.6,6.5-4c1.1-0.6,2.1-1.4,3.1-2.1     c1-0.7,2-1.4,3-2.1c1.9-1.4,3.6-2.9,5.3-4.3c1.6-1.5,3.1-2.9,4.5-4.2c0,0,0.1-0.1,0.1-0.1c0.5-0.5,1-1.1,1.5-1.6     c0.7,0.1,1.4,0.2,2.2,0.5c0,0,0.1,0,0.1,0c0.9,0.3,1.9,0.7,2.8,1.3c1,0.5,1.9,1.4,2.9,2.2c0.4,0.4,0.8,0.9,1.3,1.4     c0.4,0.4,0.8,1,1.2,1.5c0.8,1,1.4,2.2,2,3.3c0.5,1.2,1.1,2.3,1.4,3.5c0.2,0.6,0.4,1.2,0.5,1.8c0.1,0.6,0.3,1.2,0.4,1.8     c0.1,1,0.3,1.9,0.4,2.8c0.1,0.2,0.1,0.4,0.1,0.6c0.1,0.5,0.1,1.1,0.2,1.6c-0.6,0.1-1.2,0.3-1.9,0.4c-0.2,0.1-0.4,0.1-0.6,0.2     c-1.8,0.5-3.7,1-5.8,1.5c-2.3,0.7-4.6,1.5-7,2.3c-1.2,0.5-2.4,1-3.6,1.5c-1.2,0.5-2.4,1-3.7,1.6c-2.4,1.2-4.9,2.3-7.3,3.6     c-2.4,1.3-4.9,2.5-7.2,3.9c-1.2,0.7-2.3,1.3-3.5,2c-1.2,0.6-2.3,1.3-3.5,1.9c-2.2,1.2-4.4,2.4-6.4,3.6c-2,1.3-3.8,2.4-5.4,3.6     c-1.2,0.8-2.2,1.6-3.1,2.4c1.6,4.8,2.7,9.6,3,14.6c0,0.9,0.1,1.8,0.1,2.7l-0.2,2.7l-0.2,2.7l-0.5,2.6l-0.5,2.6     c-0.2,0.8-0.5,1.7-0.8,2.5c-0.6,1.6-1,3.3-1.8,4.9c-2.6,6.4-6.5,11.8-10.6,16.7c-4.1,4.9-8.7,9-13.4,12.6     c-9.4,7.2-19.2,11.9-28.1,15.3c-1.2,0.4-2.3,0.9-3.5,1.3c0,0.1,0,0.1,0.1,0.2c0.3,0.5,0.4,1.1,0.6,1.7l0.3,0.9l0.3,0.9     c0.2,0.6,0.4,1.3,0.5,1.9c0.1,0.7,0.2,1.3,0.2,2l0.1,0.6l0,0.3l0.1,0.9c0,0.5,0.1,1,0.1,1.4c-0.4,0.4-0.9,0.8-1.4,1.2     c-0.4,0.3-0.7,0.5-1.2,0.8c-0.3,0.2-0.6,0.4-0.9,0.5c-0.4,0.2-0.8,0.4-1.2,0.6c-0.4,0.2-0.8,0.4-1.2,0.5     c-0.8,0.4-1.7,0.7-2.6,0.9c-0.9,0.2-1.8,0.4-2.7,0.6c-0.5,0.1-0.9,0.2-1.3,0.2c-0.4,0-0.8,0.1-1.3,0.1c-0.4,0-0.8,0.1-1.2,0.1     c-0.4,0-0.8,0.1-1.2,0c-0.5,0-1,0-1.4,0c-0.1-0.2-0.1-0.3-0.2-0.5c-0.2-0.5-0.4-1-0.6-1.5l-0.3-0.6l-0.1-0.2l-0.3-0.8l-0.2-0.6     l-0.3-0.8l-0.1-0.3l-0.4-1.7l-0.2-0.9l-0.2-0.8c-0.1-0.5-0.3-1.1-0.3-1.6c0-0.1,0-0.3,0-0.4c-0.4,0.1-0.9,0.2-1.4,0.3     c-1.6,0.4-3.1,0.7-4.6,0.9c-0.3,0.1-0.5,0.1-0.8,0.2l-0.1-0.8c1.6-0.4,3.4-0.8,5.2-1.3c0.5-0.1,1-0.3,1.5-0.4     c0.8-0.2,1.6-0.5,2.5-0.7c4-1.2,8.3-2.7,13-4.5c0.8-0.3,1.5-0.6,2.3-1c1.2-0.5,2.4-1,3.7-1.5c8.7-3.6,18.2-8.4,27.3-15.6     c8.9-7.2,17.8-16.5,23-28.6c2.5-6,4-12.6,3.5-19.4c-0.3-4.2-1.2-8.5-2.6-12.7c-0.2-0.6-0.4-1.3-0.7-1.9c-0.7-1.8-1.5-3.6-2.3-5.4     c-1.8-3.7-4-7.2-6.6-10.5c-0.4-0.4-0.7-0.9-1.1-1.3c-1.6-1.9-3.3-3.7-5.2-5.4c-5.4-4.8-11.9-8.8-19-11c-7-2.3-14.7-3-22.2-2.3     c-7.5,0.6-15,2.6-22,5.5c-7.1,2.8-13.9,6.5-20,10.9c-6,4.5-11.2,10.2-15.9,16.1c-4.5,6.1-8.6,12.4-12.4,18.8     c-1.9,3.2-3.8,6.4-5.8,9.6c-1,1.6-1.9,3.2-2.9,4.8c-1.1,1.5-2.1,3.1-3.2,4.6c-1,1.5-2.4,2.9-3.5,4.3l-1.8,2.1l-2.1,1.8     c-1.4,1.2-2.7,2.5-4.2,3.5c-1.6,1.1-3.1,2.1-4.9,2.8c-6.8,3.2-13.9,3.5-20.3,4.8c-3.3,0.5-6.1,1.5-8.9,3     c-2.7,1.6-5.2,3.3-7.4,5.4c-4.5,4.1-8.3,8.8-12.1,13.3c-3.7,4.5-7.4,8.8-11.5,12.4c-4,3.7-8.7,6.1-12.9,8.4     c-8.7,4.1-16.9,6.1-23.5,7.5c-2.8,0.6-5.4,1.1-7.8,1.5l-0.2-0.7C430.1,405.5,432.7,404.8,435.5,404.1z"/><path d="M362.1,375.8c1.3-1,2.8-1.9,4.3-2.8c1.8-1.2,3.9-2.2,5.9-3.3c1.1-0.5,2.2-1,3.2-1.5c1.1-0.5,2.3-1,3.4-1.4     c2.3-1,4.8-1.6,7.3-2.3c1.2-0.3,2.5-0.4,3.8-0.6c1.3-0.3,2.6-0.3,3.9-0.3c1.3,0,2.5-0.1,3.8,0.2c1.3,0.2,2.5,0.3,3.7,0.7     c1.2,0.4,2.3,0.8,3.4,1.3c1.1,0.4,2.1,1.2,3,1.7c2.1,1,3.4,2.7,4.8,4c0,0,0.1,0.1,0.1,0.1c-0.3-1.7-0.7-3.6-1.2-5.7     c-0.6-2.2-1.4-4.6-2.7-6.7c-1.3-2.2-3.2-4-5.6-5.3l-1.9-0.9l-2-0.7c-1.4-0.4-2.8-0.7-4.2-0.7c-2.9-0.1-5.8,0.5-8.5,1.7l-2,1     l-1.9,1.2c-1.3,0.8-2.6,1.6-3.8,2.5c-1.2,1-2.4,1.9-3.5,2.8c-1.1,1-2.2,2-3.3,3c-2.1,2-4,4.1-5.8,6.1     C365.1,372,363.4,373.8,362.1,375.8z M359.8,374.4c1.1-2.2,2.9-4.1,4.5-6.4c1.8-2.1,3.6-4.4,5.8-6.5c1.1-1.1,2.2-2.1,3.3-3.2     c1.2-1,2.5-2,3.7-3c1.2-1.1,2.6-1.9,4-2.7l2.1-1.3l2.3-1.1c3.1-1.4,6.6-2.1,10-1.8c1.7,0,3.3,0.4,4.9,0.9     c0.8,0.3,1.5,0.5,2.3,0.8c0.7,0.4,1.4,0.7,2.1,1.1c2.8,1.6,5.1,4,6.5,6.5c1.4,2.5,2.2,5.2,2.6,7.6c0.6,3.3,0.7,6.3,0.7,8.7     c0,1.1,0,2.1,0,2.9c0,0.1,0,0.2,0,0.2c-0.4-0.4-0.8-0.9-1.2-1.4c-0.7-0.8-1.6-1.7-2.5-2.6c-1.4-1.1-2.7-2.6-4.5-3.4     c-0.9-0.4-1.7-1.1-2.7-1.4c-1-0.3-2-0.6-3-1c-1.1-0.3-2.2-0.3-3.3-0.5c-1.1-0.2-2.2-0.1-3.4-0.1c-1.2,0-2.3,0-3.5,0.3     c-1.2,0.2-2.3,0.3-3.5,0.6c-2.3,0.6-4.6,1.2-6.8,2.1c-1.1,0.4-2.2,0.8-3.3,1.3c-1.1,0.4-2.2,0.9-3.2,1.4c-2,1.1-4,2-5.9,3.1     c-1.8,1-3.5,2-5.1,3c-1.5,0.9-3,1.7-4.2,2.4c-1.1,0.6-2,1.2-2.9,1.6c0.3-0.9,0.7-1.9,1.2-2.9C357.7,378,358.7,376.2,359.8,374.4z     "/><path d="M319.3,441.9c0.2-0.4,0.6-0.8,1.1-1.2c0.5-0.4,1.1-0.9,1.8-1.2c0.7-0.4,1.6-0.6,2.5-0.7c0.9-0.2,1.9-0.2,2.9-0.2     c0.5,0,1,0.1,1.5,0.2c0.5,0.1,1,0.1,1.5,0.3c1,0.2,2,0.6,3,1.1c0.9,0.5,1.9,1.1,2.7,1.8c0.4,0.4,0.8,0.7,1.1,1.2     c0.3,0.4,0.6,0.9,0.9,1.4c0.4,1,0.8,1.9,0.8,2.9c0,0,0,0.1,0,0.1c0.2,1-0.2,1.9-0.4,2.7c-0.7,1.5-1.6,2.5-2.4,3     c-0.4,0.3-0.7,0.5-0.9,0.6c-0.2,0.1-0.3,0.2-0.3,0.2s0-0.1,0.1-0.4c0.1-0.2,0.2-0.5,0.3-1c0.4-0.7,0.6-1.9,0.9-3     c0-0.6,0.2-1.2,0-1.8c0-0.6-0.4-1.2-0.7-1.8l-0.7-0.8c-0.2-0.3-0.6-0.5-0.9-0.8c-0.6-0.5-1.3-0.9-2-1.3c-0.4-0.2-0.8-0.4-1.2-0.5     c-0.4-0.1-0.8-0.3-1.2-0.4c-0.4-0.2-0.8-0.2-1.2-0.3c-0.4-0.1-0.8-0.2-1.2-0.2c-0.8,0-1.6-0.2-2.3-0.1c-0.7,0-1.4,0.2-2,0.3     c-0.7,0.1-1.2,0.2-1.7,0.4c-0.5,0.1-1,0.2-1.4,0.4c-0.8,0.3-1.3,0.4-1.3,0.4S318.7,442.7,319.3,441.9z"/><path d="M309.8,384.8c-0.9,0.4-1.6,0.8-2.2,1.4c-0.6,0.6-1.1,1.4-1.4,2.2c-0.2,0.4-0.3,0.9-0.4,1.4c-0.1,0.5-0.2,1-0.3,1.4     c-0.3,1.9-0.1,3.9,0.1,5.8c0.2,1.9,0.6,3.7,1,5.3c0.1,0.3,0.1,0.5,0.2,0.7c0.1-0.3,0.2-0.5,0.3-0.7c0.8-1.4,1.4-2.9,2.6-4.1     c0.6-0.6,1.1-1.4,1.7-1.9c0.7-0.6,1.4-1.1,2.1-1.7c1.4-1.1,3.1-1.8,4.7-2.6c1.7-0.6,3.3-1.3,5-1.7c0.8-0.2,1.6-0.5,2.4-0.6     c0.8-0.2,1.6-0.4,2.4-0.5c1.6-0.3,3.2-0.6,4.6-0.7c0.4,0,0.7-0.1,1.1-0.1c-0.9-0.7-1.9-1.4-3-2c-1.6-1-3.4-1.8-5.3-2.4     c-1-0.2-2-0.6-3-0.6c-1-0.2-2.1-0.3-3.1-0.2c-2.1,0-4.2,0.3-6.3,0.8C311.9,384.1,310.9,384.4,309.8,384.8z M302.7,397.5     c-0.3-2-0.5-4.2-0.3-6.6c0-0.6,0.1-1.2,0.3-1.8c0.1-0.6,0.2-1.2,0.5-1.8c0.4-1.2,1.1-2.4,2.1-3.4c0.9-1.1,2.2-1.8,3.4-2.2     c1.2-0.4,2.3-0.8,3.5-1.1c2.3-0.5,4.8-1,7.2-0.8c1.2,0,2.4,0.2,3.6,0.4c1.2,0.1,2.3,0.6,3.4,0.9c2.1,0.8,4.1,1.8,5.8,3     c1.7,1.1,3.2,2.4,4.5,3.6c0.2,0.2,0.5,0.4,0.7,0.7c0.8,0.9,1.5,1.7,2.2,2.5c-0.8,0-1.7,0.1-2.6,0.1c0,0,0,0-0.1,0     c-1.2,0.2-2.5,0.2-3.8,0.4c-1.4,0.2-2.8,0.5-4.3,0.9c-0.7,0.2-1.5,0.4-2.3,0.6c-0.7,0.2-1.5,0.4-2.3,0.7c-1.5,0.4-3,1.1-4.5,1.6     c-1.4,0.7-2.9,1.4-4.1,2.2c-0.6,0.5-1.2,0.9-1.8,1.4c-0.6,0.5-1,1.1-1.5,1.6c-1.1,1-1.7,2.3-2.4,3.4c-0.6,1.2-1,2.4-1.6,3.5     c0,0.1-0.1,0.3-0.1,0.4c-0.3,0.9-0.5,1.7-0.8,2.4c-0.5-0.8-1-1.8-1.5-3c-0.5-1.2-1.1-2.5-1.5-4     C303.5,401.4,303.1,399.5,302.7,397.5z"/><path d="M63.7,446.4c0,0,0.3-0.3,1-0.5c0.7-0.3,1.7-0.5,2.9-0.3c0.6,0.1,1.2,0.3,1.9,0.5c0.7,0.2,1.3,0.6,1.9,1l0.9,0.7     c0.3,0.2,0.6,0.5,0.9,0.8c0.6,0.5,1,1.2,1.5,1.9c0.4,0.7,0.8,1.4,1.1,2.2c0.1,0.4,0.3,0.7,0.4,1.1c0.1,0.4,0.2,0.8,0.2,1.1     c0,0.8,0.2,1.5,0.1,2.2c0,0.7-0.1,1.3-0.3,1.9c-0.4,1.1-0.9,2-1.4,2.4c-0.3,0.2-0.5,0.4-0.6,0.5c-0.1,0.1-0.2,0.2-0.2,0.2     s0-0.1,0-0.3c0-0.2,0-0.5,0-0.8c0-0.6,0-1.5,0-2.4c0-0.5,0-1-0.1-1.5c0-0.5-0.2-1.1-0.3-1.6l-0.3-0.8c-0.1-0.3-0.2-0.5-0.3-0.8     c-0.2-0.5-0.6-1-0.9-1.5c-0.4-0.5-0.7-1-1.1-1.4c-0.2-0.2-0.4-0.5-0.6-0.6l-0.6-0.6c-0.5-0.3-0.9-0.7-1.4-0.9     c-0.5-0.3-0.9-0.5-1.3-0.7c-0.8-0.4-1.6-0.8-2.2-1.1C64.1,446.7,63.7,446.4,63.7,446.4z"/><path d="M433.7,466.6c1.9-0.2,4-0.4,6.2-0.6c6.9-0.5,15.4-1,25,0.4c4.9,0.7,9.8,1.7,15.1,2.8c2.7,0.5,5.4,1.4,8.2,2.1     c1.4,0.5,2.7,1.1,4.1,1.7c1.4,0.6,2.8,1.2,4.1,2c5.3,3,9.9,7.2,15.4,10c2.7,1.5,5.6,2.2,8.6,2.5c3.2-0.1,6.5-0.3,9.8-0.8     c6.6-0.9,13.6-2.4,21-2c7.4,0.4,14.7,2.4,21.5,6.1c3.3,1.9,6.6,4.1,9.3,6.9c2.8,2.7,5.2,5.4,8,8c2.7,2.7,5.5,5.3,8.3,7.8     c1.4,1.4,2.8,2.5,4.3,3.7l2.2,1.8c0.7,0.5,1.6,1,2.4,1.6c6.5,4.1,13.3,7.9,20.5,10.7c7.2,2.6,14.7,4.7,22.5,4.8     c1.9,0.2,3.8,0.2,5.8,0.1c1.9-0.1,3.9,0,5.8-0.3c3.8-0.5,7.7-1,11.3-2.2c3.8-0.8,7.3-2.4,10.8-3.8c3.3-1.9,6.8-3.4,9.8-5.9     c6.4-4.2,11.5-9.8,16.1-15.6c1-1.6,2-3.2,3-4.7l1.5-2.3c0.5-0.8,0.8-1.6,1.2-2.5c1.7-3.2,2.6-6.7,3.4-10.2     c1.4-7,0.7-14.2-1.4-20.8c-2.1-6.6-5.7-12.4-10.1-17.6c-8.1-10.8-19.4-17.2-30.5-20.7c-5.6-1.7-11.1-3-16.4-3.6     c-5.3-0.7-10.4-1.4-15.2-1.7c-9.6-1.1-17.8-0.5-24.7,0.6c-1.4,0.2-2.8,0.5-4.1,0.7c-3.3,4-7.6,9.1-12.8,14.7     c-1.6,1.8-3.3,3.6-5.2,5.4c-1.9,1.8-3.8,3.8-5.9,5.5c-2.1,1.8-4.2,3.8-6.7,5.4c-2.4,1.6-4.7,3.6-7.5,4.9     c-2.7,1.4-5.3,3.1-8.3,4.2c-2.9,1.2-6,2.1-9.2,2.8c-6.4,1.4-13,1.4-19.5,0.8c-6.5-0.6-12.9-2-18.9-3.9c-3.1-0.9-6-1.9-9-3     c-2.9-1.1-5.8-2.2-8.6-3.4c-5.5-2.3-10.9-4.6-16-6.7c-5-2.3-9.8-4.3-14.2-6.3c-4.3-2.2-8.2-4.2-11.7-6c-2.9-1.4-5.4-3.1-7.6-4.3     c-1,1.3-2.1,2.5-3.1,3.7c-4.9,5.9-10,10.6-14.7,13.8c-0.6,3.5-1.7,7.2-3.2,10.9C434.3,465.3,434,465.9,433.7,466.6z M359.3,476     c1.6,2.3,3.6,4.4,5.8,6.1c0.6,0.2,1.4,0.3,2.1,0.4c0.4,0.1,0.8,0.1,1.2,0.1c0.3,0,0.6,0,0.9,0c2,0,4.1-0.4,5.9-1.5     c2-1.4,3.7-3.6,4.9-6.2c0.6-1.3,1.2-2.7,1.6-4.1c0.5-1.5,0.9-3,1.2-4.5c0.7-3.1,1.2-6.3,1.7-9.5c0.4-3.1,0.5-6.4,0.5-9.5     c0-1.6-0.1-3.2-0.2-4.7c-0.1-1.6-0.3-3.1-0.5-4.6c-0.4-3-0.9-5.9-1.7-8.5c-0.7-2.7-1.7-5.1-2.7-7.2c-1.1-2.3-2.3-4.2-3.6-5.8     c-0.2,0.1-0.4,0.3-0.7,0.4c-1.5,0.8-2.8,1.9-4.2,2.8c-1.4,0.9-2.7,1.9-4,3c-2.5,1.9-4.9,4-7.1,5.9c0.7,0.6,1.3,1.4,1.9,2.2     c1,1.5,1.8,3.3,2.5,5.1c0.7,1.9,1.3,3.9,1.8,5.9c0.3,1,0.5,2.1,0.7,3.2c0.2,1.1,0.4,2.2,0.6,3.3c0.2,1.1,0.3,2.3,0.3,3.6     c0,1.1,0,2.3-0.1,3.4c-0.2,2.3-0.5,4.7-1.4,7c-0.4,1.2-1.1,2.2-1.7,3.3c-0.9,0.9-1.6,2-2.7,2.5c-2,1.3-4.1,2.1-6.5,2     c0.9,1.7,2,3.4,3.1,5.1c0.1,0.2,0.2,0.3,0.3,0.4C359.1,475.8,359.2,475.9,359.3,476z M355.5,407.7c-0.6,0.7-1.1,1.4-1.6,2.2     c-2.4,3.5-3.7,7.8-4.8,12.2c-0.1,0.4-0.2,0.9-0.3,1.3c-0.1,0.4-0.2,0.8-0.2,1.2c-0.6,3.6-0.8,7.4-0.9,11.2c0,0.4,0,0.9,0,1.4     c1.3-1.4,2.6-2.9,4.2-4.5c1.2-1.2,2.4-2.5,3.8-3.8c0.6-0.5,1.2-1.1,1.8-1.7c0.2-0.2,0.4-0.4,0.6-0.6c1.4-1.3,2.7-2.5,4.2-3.8     c0,0,0,0,0,0c1-0.9,2-1.7,3.1-2.5c1.3-1.1,2.6-2.2,4.1-3.1c1.4-1,2.8-2.1,4.4-3c0,0,0,0,0,0c0.4-0.2,0.8-0.5,1.2-0.7     c1.1-0.7,2.2-1.4,3.4-2.1c1.6-0.8,3.2-1.6,4.8-2.4c1.6-0.7,3.2-1.6,4.9-2.3c1.7-0.6,3.3-1.3,5-1.9c1.7-0.6,3.3-1.3,5-1.7     c1.7-0.5,3.3-0.9,5-1.3c1.6-0.5,3.2-0.8,4.9-1c1.6-0.3,3.2-0.5,4.7-0.8c1.5-0.3,3.1-0.3,4.5-0.4c0.1,0,0.2,0,0.4,0     c-1.1-0.6-2.2-1.2-3.3-1.9c-5.2-2.4-11.4-4.8-18.5-5.2c-7-0.6-14.8,0-22.4,2.6c-6.1,2.2-12.2,5.9-16.6,11.1     C356.3,406.6,355.9,407.1,355.5,407.7z M352.4,463.3c0.5,1.3,1.1,2.6,1.7,3.8c0.5,0.2,1,0.3,1.6,0.3c1.5,0.1,3.3-0.6,4.7-1.7     c0.8-0.4,1.3-1.2,1.9-1.9c0.4-0.8,1-1.6,1.3-2.5c0.7-1.8,1-4,1.1-6.1c0.1-1.1,0.1-2.2,0.1-3.3c0-0.9-0.1-2-0.2-3.1     c-0.2-1.1-0.3-2.1-0.5-3.2c-0.2-1-0.4-2.1-0.6-3.1c-0.5-2-0.9-3.9-1.5-5.7c-0.6-1.8-1.2-3.4-1.9-4.8c-0.4-0.8-0.8-1.4-1.3-2     c-1.7,1.5-3.3,3-4.8,4.4c-2.2,2-4.2,3.9-6,5.4c0.1,3.3,0.3,6.6,0.7,9.8C349.3,454.4,350.6,459,352.4,463.3z M322.9,482.7     c0.4,0.3,0.9,0.7,1.4,1c1.3,0.8,2.5,1.9,4,2.6c0.7,0.4,1.5,0.9,2.2,1.3c0.8,0.4,1.6,0.7,2.4,1.1c0.8,0.4,1.7,0.7,2.6,1     c0.9,0.3,1.7,0.7,2.7,0.8c0.9,0.2,1.9,0.4,2.8,0.6l2.9,0.3c1.9,0,3.8,0,5.7-0.3c0.9-0.2,1.9-0.3,2.8-0.5c0.9-0.3,1.8-0.5,2.6-0.8     c1.7-0.7,3.3-1.3,4.8-2.2c1.4-0.7,2.6-1.6,3.8-2.4c-0.8-0.6-1.6-1.3-2.3-2c-1-0.9-2-1.9-2.9-3c-0.7-0.8-1.4-1.7-2-2.6     c-0.2-0.3-0.4-0.5-0.5-0.8c-4,0.7-8.5,1.5-13.6,2.4C336.3,480.2,329.8,481.3,322.9,482.7z M311.3,426.3c2.4-0.2,4.7-0.4,7-0.6     c10.7-0.9,20.1-1.5,27.4-2c0.1-0.7,0.3-1.4,0.4-2.2c1.2-4.6,2.6-9.3,5.3-13.2c0.3-0.4,0.5-0.7,0.7-1.1c-1.4-0.2-2.9-0.2-4.5-0.3     c-1.8-0.1-3.7,0.1-5.7,0.3c-1,0.2-2,0.3-3,0.5c-1,0.1-2,0.5-3,0.7c-2,0.4-4,1.3-5.9,2c-1.9,0.9-3.9,1.7-5.6,2.9     c-0.9,0.5-1.8,1-2.6,1.6c-0.8,0.6-1.6,1.2-2.4,1.8c-0.8,0.5-1.4,1.3-2.1,1.9c-0.7,0.7-1.4,1.3-1.9,2c-1.1,1.4-2.3,2.7-3,4.1     C312,425.3,311.6,425.8,311.3,426.3z M123.4,448.8c-13.3,1.4-24.4,2.5-32.2,3.2c-1.3,0.1-2.4,0.2-3.5,0.3l-0.1-0.8     c1.1-0.2,2.2-0.4,3.5-0.6c7.7-1.3,18.8-2.9,32-4.7c6.7-0.8,13.8-1.8,21.4-2.8c7.6-0.9,15.7-1.9,24-2.9c4.1-0.5,8.4-1,12.6-1.5     c4.3-0.5,8.6-1,13-1.5c8.7-1,17.6-2.1,26.5-3c8.9-0.8,17.8-1.6,26.5-2.4c4.4-0.4,8.7-0.8,13-1.2c4.3-0.4,8.5-0.8,12.7-1.1     c8.3-0.7,16.4-1.4,24-2.1c4.1-0.4,8.1-0.7,12-1c0.1-0.3,0.2-0.6,0.2-0.9c0.4-0.7,0.7-1.4,1.1-2.2c0.7-1.6,1.9-3.1,3.1-4.6     c0.5-0.8,1.3-1.5,2-2.2c0.8-0.7,1.4-1.6,2.3-2.2c0.8-0.7,1.7-1.4,2.5-2.1c0.9-0.7,1.9-1.2,2.8-1.8c1.9-1.3,4-2.1,6-3.1     c2.1-0.7,4.2-1.6,6.4-2c1.1-0.3,2.2-0.6,3.3-0.7c1.1-0.2,2.2-0.3,3.2-0.4c2.1-0.1,4.2-0.2,6.1-0.1c2,0.2,3.8,0.3,5.4,0.8     c0.2,0,0.4,0.1,0.6,0.2c5.1-6.2,11.9-10.4,18.8-12.7c8.1-2.6,16.2-3.2,23.6-2.3c7.4,0.7,13.8,3.3,19,6c1.8,1.2,3.7,2.2,5.2,3.3     c0.6,0.5,1.2,0.9,1.7,1.4c0.4,0.4,0.8,0.7,1.2,1.1c0.5,0.4,1.1,0.9,1.6,1.4c0.9,0.8,1.6,1.7,2.3,2.5c0.1,0.1,0.2,0.3,0.3,0.4     c0.1,0,0.3-0.1,0.4-0.1l0.2,0.7c1,1.2,1.8,2.4,2.5,3.5c0.8,1.4,1.6,2.6,2,3.6c0.7,1.6,1.2,2.6,1.3,3c-0.2-0.4-0.7-1.4-1.6-2.8     c-0.5-1-1.4-2.1-2.3-3.4c-0.9-1.1-1.9-2.4-3.1-3.7c-0.1-0.2-0.3-0.4-0.5-0.5c0,0,0,0-0.1-0.1c-0.7-0.7-1.4-1.5-2.3-2.2     c-0.9-0.7-1.8-1.4-2.8-2.2c0,0,0,0-0.1-0.1c-1.2,0-2.3,0.2-3.6,0.3c-1.4,0.1-2.8,0.2-4.3,0.5c-1.5,0.3-3,0.6-4.5,0.9     c-1.5,0.3-3.2,0.6-4.7,1.2c-1.6,0.4-3.2,0.9-4.8,1.4c-1.6,0.4-3.2,1-4.8,1.7c-1.6,0.6-3.2,1.3-4.8,1.9c-1.6,0.6-3.2,1.5-4.7,2.3     c-1.5,0.8-3.1,1.5-4.7,2.3c-0.8,0.5-1.5,0.9-2.3,1.4c1.5,1.4,3,3.3,4.2,5.6c1.2,2.3,2.3,4.8,3.2,7.6c0.9,2.8,1.5,5.7,2.1,8.8     c0.2,1.5,0.5,3.1,0.6,4.7c0.1,1.6,0.3,3.2,0.3,4.9c0.1,3.3,0,6.7-0.4,10.1c-0.5,3.3-1,6.6-1.8,9.8c-0.4,1.6-0.8,3.2-1.4,4.8     c-0.5,1.5-1.1,3.1-1.9,4.5c-1.5,2.9-3.5,5.6-6.2,7.3c-2.1,1.2-4.4,1.7-6.5,1.7c3.6,1.9,7.5,3,11.5,3.7c4.4,0.7,8.9,0.7,13.3,0.2     c8.7-1,17.1-3.8,23.6-8.1c5.1-3.6,8.8-8.5,11.5-13.5c0.2-0.2,0.3-0.5,0.4-0.7c0.6-1.1,1.2-2.3,1.7-3.4c1.2-2.7,2.1-5.4,2.8-8     c0.2-0.7,0.4-1.5,0.6-2.3c2.1-9.1,2-17.4,1.4-23.4c-0.5-4.1-1.2-7.4-1.9-9.5c-0.5-1.9-0.9-3-1-3.3c0.1,0.2,0.5,1.3,1.3,3.2     c0.8,2.1,1.8,5.3,2.6,9.5c0.9,5.5,1.5,12.9,0.3,21.4c3.9-3.3,8-7.7,12.2-12.9c0.9-1.1,1.8-2.3,2.7-3.5c0.2-0.3,0.4-0.5,0.6-0.8     c2.6-3.3,5.1-6.8,7.9-10.5c2-2.7,4.2-5.2,6.5-7.9c2.3-2.6,4.6-5.4,7.1-8c2.6-2.5,5.2-5.1,7.9-7.8c2.6-2.7,5.6-5,8.5-7.5     c5.7-5.1,12-9.5,18.2-14.1c6.3-4.5,13.1-8.7,20.4-11.3c0.9-0.3,1.8-0.7,2.7-1l2.8-0.7l2.8-0.7l2.8-0.4c1.9-0.3,3.8-0.6,5.6-0.6     c1.9-0.1,3.7-0.3,5.6-0.2c7.3-0.1,14.5,1.4,20.8,3.7c3.1,1.3,6.1,2.5,8.9,4.1c2.8,1.4,5.3,3.1,7.8,4.7c7.5,5,13.7,9.8,18.7,13.2     l0.1,0.8c-0.4,0.1-0.8,0.1-1.1,0.2c-0.3-0.2-0.6-0.4-0.9-0.6c-5.1-3.1-11.1-7.2-18.1-11.6c-2.4-1.5-5-3.1-7.7-4.4     c-2.7-1.5-5.6-2.7-8.6-3.9c-6.1-2.1-12.7-3.4-19.9-3.3c-1.8-0.1-3.5,0.1-5.3,0.2c-1.8,0.1-3.5,0.4-5.3,0.7l-2.7,0.4l-2.6,0.7     l-2.6,0.7c-0.9,0.3-1.7,0.6-2.6,1c-6.9,2.6-13.4,6.5-19.5,11c-6.1,4.6-12.4,9-18,14c-2.9,2.4-5.8,4.7-8.4,7.3     c-2.6,2.6-5.2,5.1-7.8,7.6c-2.4,2.6-4.7,5.3-7,7.8c-2.3,2.6-4.6,5-6.5,7.7c-2.6,3.4-5.1,6.8-7.6,9.9c2.2,1,4.7,2.3,7.6,3.5     c3.6,1.6,7.6,3.4,11.9,5.3c4.4,1.9,9.2,3.9,14.2,6c5.1,2.1,10.5,4.2,16,6.4c2.8,1.1,5.6,2.2,8.5,3.2c2.9,1,5.8,2,8.8,2.9     c6,1.7,12.1,3.1,18.4,3.7c6.2,0.6,12.5,0.5,18.5-0.7c3-0.6,5.9-1.4,8.7-2.5c2.8-1,5.4-2.6,8-3.9c2.7-1.3,4.9-3.1,7.3-4.6     c2.4-1.5,4.4-3.4,6.6-5.1c2.1-1.7,4-3.5,5.9-5.3c1.9-1.7,3.6-3.5,5.3-5.2c4.7-4.8,8.8-9.2,12.3-12.6c0.3-0.4,0.6-0.6,1-1     c0.7-0.2,1.4-0.3,2.2-0.5c1-0.2,2-0.4,3-0.6c6.7-1.4,15.3-2.3,25-1.4c4.8,0.2,9.9,0.7,15.3,1.4c5.4,0.6,11.1,1.7,16.8,3.5     c5.8,1.8,11.6,4.2,17.1,7.8c5.6,3.4,10.6,8.2,14.8,13.6c4.4,5.1,8.4,11.4,10.6,18.4c2.3,6.9,3.2,14.7,1.7,22.2     c-0.8,3.7-1.8,7.5-3.6,11c-0.4,0.9-0.7,1.8-1.3,2.6l-1.5,2.5c-1,1.6-2.1,3.3-3.1,4.9c-4.8,6.1-10.2,12.1-16.8,16.4     c-3.1,2.5-6.8,4.2-10.3,6.2c-3.7,1.4-7.4,3.2-11.4,4c-3.9,1.2-7.8,1.7-11.8,2.3c-2,0.3-4,0.2-6,0.4c-2,0.1-4,0.2-6,0     c-8.1-0.1-16-2.2-23.5-5c-7.5-2.9-14.4-6.8-21-11.1c-0.8-0.5-1.7-1-2.5-1.6l-2.3-1.9c-1.6-1.3-3.1-2.5-4.5-3.9     c-2.9-2.6-5.7-5.2-8.4-7.9c-2.8-2.6-5.4-5.5-8-8.1c-2.5-2.6-5.5-4.7-8.6-6.4c-6.2-3.5-13.2-5.5-20.1-5.9     c-6.9-0.5-13.7,1-20.5,1.8c-3.4,0.5-6.8,0.7-10.2,0.8c-3.6-0.2-7-1.2-9.9-2.9c-5.9-3.1-10.4-7.4-15.4-10.3     c-1.2-0.8-2.5-1.3-3.8-1.9c-1.3-0.6-2.5-1.2-3.8-1.7c-2.7-0.7-5.2-1.7-7.8-2.2c-5.2-1.1-10.3-2.4-14.9-3.2     c-9.4-1.6-17.8-1.5-24.7-1.3c-2.4,0.1-4.7,0.2-6.7,0.4c-2.8,5.9-7,11.7-13,16.1c-7.2,4.9-15.8,7.7-25,8.9     c-4.6,0.5-9.4,0.6-14.2-0.2c-4.7-0.7-9.5-2.2-13.8-4.7c-0.6-0.4-1.2-0.7-1.8-1.1c-0.1,0.1-0.2,0.2-0.4,0.3c-1.2,1-2.5,2.1-4.1,3     c-1.5,1-3.3,1.8-5.1,2.6c-0.9,0.4-1.9,0.6-2.9,1c-1,0.4-2,0.5-3.1,0.7c-2.1,0.5-4.2,0.5-6.4,0.5l-3.2-0.3     c-1.1-0.2-2.1-0.4-3.1-0.7c-1-0.2-2-0.6-3-0.9c-1-0.3-1.9-0.7-2.8-1.2c-0.9-0.4-1.8-0.9-2.6-1.3c-0.8-0.5-1.6-1-2.3-1.5     c-1.6-0.9-2.8-2.1-4.1-3.1c-0.9-0.9-1.8-1.7-2.5-2.5c-7.6,1.5-15.7,3.4-24.4,5.3c-8.9,2-18.3,4-28,6.1c-4.9,1.1-9.8,2.2-14.8,3.2     c-5,1.1-10.1,2.2-15.2,3.3c-10.2,2.3-20.6,4.5-30.9,6.8c-10.4,2.2-20.7,4.5-30.9,6.7c-5.1,1.1-10.2,2.1-15.2,3.2     c-5.1,1-10,2-14.9,3c-9.8,2-19.2,3.9-28.2,5.6c-8.9,1.7-17.4,3.3-25.2,4.8c-7.8,1.3-14.8,3.6-21.4,4.3c-3.3,0.4-6.5,0.5-9.3-0.3     c-2.9-0.8-5.1-2.6-6.6-4.6c-2-3.4-2.3-6.6-2.3-9c0,0,0,0,0-0.1h0.4c0.1,0.9,0.3,1.8,0.5,2.9c0.2,0.8,0.5,1.7,0.9,2.7     c0.3,1,1,1.8,1.5,2.8c1.4,1.7,3.4,3.1,6,3.7c2.6,0.6,5.6,0.3,8.7-0.1c6.2-0.9,13.2-3.4,21.1-5c7.8-1.6,16.3-3.3,25.2-5.1     c8.9-1.8,18.4-3.8,28.1-5.8c4.9-1,9.8-2.1,14.8-3.1c5-1,10.1-2.1,15.1-3.2c10.2-2.3,20.6-4.5,31-6.8c10.4-2.2,20.8-4.5,31-6.7     c5.1-1.1,10.2-2.2,15.2-3.2c5-1,10-2.1,14.8-3.1c4.9-1,9.6-2,14.3-3c4.7-1,9.3-1.9,13.7-2.9c8.2-1.7,16-3.4,23.3-4.8     c0.6-0.2,1.3-0.3,1.9-0.4c0,0,0,0,0,0c7.9-1.6,15.1-2.5,21.5-3.4c4.9-0.6,9.4-1.2,13.3-1.7c-1.5-2.3-2.9-4.8-4.1-7.3     c-0.6-1.3-1.2-2.5-1.7-3.8c-0.3-0.8-0.6-1.7-0.9-2.5c-1.4-3.8-2.4-7.7-3-11.7c-0.2-1.2-0.3-2.3-0.4-3.5c-0.1-1.4-0.2-2.8-0.3-4.2     c0-0.6-0.1-1.2-0.1-1.8c-0.1-1.7-0.1-3.4-0.1-5c0.1-3.6,0.3-7.2,0.8-10.8c-7.2,0.9-16.3,2-26.9,3.1c-2.8,0.3-5.6,0.6-8.6,0.9     c-0.6,0.1-1.3,0.1-2,0.2c-3.5,0.4-7.2,0.7-11,1.1c-7.6,0.8-15.7,1.6-24,2.4c-4.1,0.4-8.4,0.8-12.7,1.3c-4.3,0.4-8.6,0.8-13,1.3     c-8.7,0.8-17.6,1.7-26.5,2.5c-8.8,0.9-17.7,2-26.4,3c-4.3,0.5-8.7,1-12.9,1.5c-4.3,0.4-8.5,0.9-12.7,1.4     c-8.3,0.9-16.3,1.8-23.9,2.7C137.3,447.2,130.1,448,123.4,448.8z"/><path d="M43.3,458.8c0.3,1.4,0.8,2.6,1.6,3.7c0.6,0.9,1.3,1.7,2,2.4c0-0.2,0.1-0.4,0.1-0.5c0.1-0.8,0.3-1.5,0.5-2.3     c0.2-0.8,0.4-1.5,0.8-2.3c0.4-1,1-2,1.7-2.7l-0.1-0.3c-0.2-0.4-0.5-0.8-0.6-1.2c-0.1-0.2-0.2-0.4-0.4-0.5l-0.4-0.5     c-0.3-0.4-0.5-0.7-0.7-1c-0.3-0.3-0.5-0.6-0.7-0.9c-0.4-0.6-0.7-1.2-0.9-1.7c-0.2-0.5-0.3-0.9-0.3-0.9s0.4-0.1,0.9,0     c0.5,0.1,1.3,0.2,2,0.6c0.4,0.2,0.7,0.5,1.1,0.8c0.4,0.3,0.7,0.7,1.1,1.1l0.5,0.6c0.2,0.2,0.4,0.4,0.5,0.7     c0.3,0.4,0.5,0.9,0.7,1.3c0.7-0.3,1.4-0.5,2.1-0.6c0-1.5,0.2-3.2,0.6-5.2c0.3-1.5,0.9-3.2,1.6-4.9c0-0.1,0.1-0.1,0.1-0.2     c-0.7-0.4-1.4-0.8-2.3-1c-1.1-0.4-2.3-0.6-3.5-0.6c-1.3-0.1-2.6,0.2-3.8,0.7c-0.6,0.2-1.2,0.5-1.6,1c-0.5,0.4-0.9,0.9-1.3,1.4     c-0.4,0.6-0.7,1.2-0.9,1.9c-0.3,0.7-0.5,1.4-0.6,2.2c-0.3,1.5-0.4,3.1-0.4,4.6c0,0.8,0.1,1.5,0.2,2.3     C43,457.4,43.2,458.1,43.3,458.8z M106.2,480.3c-0.1-1-0.1-2.1-0.2-3.1c0-0.5-0.1-1-0.1-1.5c0-0.5,0-1-0.1-1.5     c0-1-0.1-1.9-0.1-2.8c0-0.9-0.1-1.7,0-2.5c0.1-1.5,0.3-2.9,0.5-3.8c0.2-0.9,0.5-1.4,0.5-1.4s0.3,0.5,0.7,1.4     c0.4,0.9,0.7,2.2,1,3.7c0.2,0.8,0.2,1.6,0.4,2.5c0.1,0.9,0.2,1.8,0.3,2.8c0.1,0.5,0.1,1,0.2,1.5c0.1,0.5,0.1,1,0.1,1.5     c0.1,1,0.2,2.1,0.3,3.1c0,1,0.1,2.1,0.2,3.1c0,0.4,0,0.8,0.1,1.2c1.7-0.1,3.5-0.1,5.3-0.2c0-0.2,0-0.4-0.1-0.6     c0-0.5-0.1-1-0.2-1.5c-0.1-1-0.2-2-0.3-3c0-1,0-2-0.1-3c0-0.5,0-1,0-1.5c0-0.5,0-1,0-1.4c0-0.9,0-1.9,0-2.7c0-0.9,0-1.7,0.1-2.4     c0.2-1.5,0.4-2.8,0.7-3.7c0.3-0.9,0.5-1.4,0.5-1.4s0.3,0.5,0.6,1.4c0.3,0.9,0.6,2.1,0.8,3.6c0.1,0.7,0.2,1.5,0.2,2.4     c0.1,0.9,0.1,1.8,0.2,2.7c0,0.5,0.1,1,0.1,1.4c0,0.5,0.1,1,0.1,1.4c0,1,0.1,2,0.1,3c0,1,0.1,2,0.2,3c0,0.5,0,1,0.1,1.4     c0,0.2,0,0.5,0,0.7c2.1,0,4.1-0.1,6.2-0.2c0-0.2,0-0.4-0.1-0.6c0-0.5-0.1-1-0.1-1.5c-0.1-0.5-0.1-1-0.1-1.5c-0.1-1-0.2-2-0.2-3     c0-1-0.1-2.1-0.1-3.1c0-0.5,0-1-0.1-1.5c0-0.5,0-1,0-1.5c0-0.9,0-1.9,0-2.8c0-0.9,0-1.7,0-2.5c0.1-1.5,0.3-2.8,0.6-3.7     c0.3-0.9,0.5-1.4,0.5-1.4s0.3,0.5,0.6,1.4c0.4,0.9,0.7,2.2,1,3.7c0.1,0.7,0.2,1.6,0.3,2.4c0.1,0.9,0.2,1.8,0.3,2.7     c0,0.5,0.1,1,0.1,1.4c0,0.5,0.1,1,0.1,1.5c0,1,0.1,2,0.2,3c0,1,0,2,0.1,3c0,0.5,0,1,0,1.5c0,0.5,0,1,0,1.4c0,0.3,0,0.5,0,0.8     c2.5-0.1,5-0.1,7.6-0.2c0-0.3,0-0.5-0.1-0.7c0-0.5-0.1-1-0.1-1.5c0-0.5,0-1-0.1-1.5c0-1-0.1-2.1-0.1-3.1c-0.1-1-0.2-2.1-0.2-3.1     c0-0.5,0-1-0.1-1.5c0-0.5,0-1-0.1-1.5c0-1,0-1.9-0.1-2.8c-0.1-0.9-0.2-1.7-0.3-2.5c-0.1-1.5,0-2.9,0.2-3.8     c0.1-0.9,0.3-1.5,0.3-1.5s0.4,0.5,0.8,1.3c0.4,0.8,1,2.1,1.4,3.7c0.2,0.8,0.4,1.6,0.6,2.5c0.2,0.9,0.2,1.8,0.4,2.8     c0,0.5,0.1,1,0.1,1.5c0.1,0.5,0.1,1,0.1,1.5c0.1,1.1,0.2,2.1,0.2,3.2c0,1.1,0,2.1,0,3.2c0,0.5,0,1,0,1.5c0,0.5,0,1-0.1,1.5     c0,0.2,0,0.4,0,0.7c1.9-0.1,3.9-0.1,5.8-0.2c0-0.4-0.1-0.7-0.1-1c0-0.5-0.1-1-0.1-1.5c0-0.5-0.1-1.1-0.1-1.6     c0-1.1-0.1-2.1-0.1-3.2c-0.1-1-0.1-2.1-0.2-3.2c0-0.5,0-1-0.1-1.5c0-0.5,0-1,0-1.5c0-1,0-2-0.1-2.9c-0.1-0.9-0.2-1.7-0.2-2.5     c-0.1-1.6,0.1-2.9,0.2-3.9c0.2-1,0.3-1.6,0.3-1.6s0.4,0.5,0.8,1.4c0.4,0.9,0.9,2.2,1.3,3.8c0.2,0.8,0.4,1.7,0.5,2.6     c0.2,0.9,0.2,1.9,0.3,2.9c0,0.5,0.1,1,0.1,1.5c0,0.5,0.1,1.1,0.1,1.6c0.1,1.1,0.1,2.2,0.2,3.2c0,1.1,0,2.1,0,3.2     c0,0.5,0,1.1,0,1.6c0,0.5,0,1,0,1.5c0,0.4,0,0.7,0,1c0.2,0,0.3,0,0.5,0c1.8-0.1,3.6-0.1,5.3-0.2c-0.1-0.8-0.2-1.7-0.3-2.6     c0-0.5-0.1-0.9-0.1-1.4c0-0.5-0.1-1-0.1-1.4c-0.1-1-0.2-2-0.2-3c0-1,0-2,0-2.9c0-0.5,0-1,0-1.4c0-0.5,0-1,0-1.4     c0-0.9,0.1-1.8,0.1-2.6c0-0.9,0.1-1.7,0.2-2.4c0.2-1.5,0.5-2.7,0.8-3.6c0.3-0.9,0.6-1.4,0.6-1.4s0.3,0.5,0.5,1.4     c0.3,0.9,0.6,2.1,0.8,3.5c0.1,0.7,0.1,1.5,0.2,2.4c0,0.8,0.1,1.7,0.1,2.6c0,0.5,0,0.9,0,1.4c0,0.5,0,0.9,0,1.4c0,1,0,2,0,2.9     c0,1,0.1,2,0.1,2.9c0,0.5,0,1,0,1.4c0,0.5,0,0.9,0,1.4c0,0.9,0,1.8,0,2.6c2.6-0.1,5.2-0.2,7.8-0.3c0-0.3-0.1-0.6-0.1-0.9     c-0.2-0.9-0.2-1.8-0.3-2.7c0-0.5-0.1-1-0.1-1.4c0-0.5-0.1-1-0.1-1.5c-0.1-1-0.1-2-0.2-3.1c0-1,0-2,0-3c0-0.5,0-1,0-1.5     c0-0.5,0-1,0-1.4c0-0.9,0.1-1.8,0.1-2.7c0.1-0.9,0.1-1.7,0.2-2.4c0.2-1.5,0.5-2.8,0.8-3.6c0.3-0.9,0.6-1.4,0.6-1.4     s0.3,0.5,0.5,1.4c0.3,0.9,0.6,2.1,0.8,3.6c0.1,0.8,0.1,1.6,0.1,2.4c0,0.9,0.1,1.8,0.1,2.7c0,0.5,0,1,0,1.4c0,0.5,0,1,0.1,1.4     c0,1,0,2,0,3c0,1,0.1,2,0.1,3c0,0.5,0,1,0,1.4c0,0.5,0,1,0,1.4c0,0.9,0,1.8,0,2.7c0,0.4,0,0.7,0.1,1c0.5,0,1,0,1.5-0.1     c2.1-0.1,4.1-0.1,6.1-0.2c0-0.3,0-0.5-0.1-0.8c0-0.5-0.1-1.1-0.1-1.7c0-0.6-0.1-1.2-0.1-1.7c-0.1-1.2-0.1-2.4-0.2-3.6     c0-1.2,0-2.4-0.1-3.6c0-0.6,0-1.2,0-1.8c0-0.6,0-1.1,0-1.7c0-1.1,0.1-2.2,0.1-3.2c0-1,0-2,0.1-2.9c0.1-1.8,0.4-3.3,0.7-4.3     c0.3-1,0.5-1.6,0.5-1.6s0.3,0.6,0.6,1.7c0.3,1.1,0.6,2.5,0.8,4.3c0.1,0.9,0.1,1.8,0.2,2.9c0,1,0.1,2.1,0.2,3.2     c0,0.5,0,1.1,0.1,1.7c0,0.6,0,1.2,0,1.7c0,1.2,0.1,2.3,0.1,3.5c0,1.2,0,2.4,0,3.6c0,0.6,0,1.2,0,1.7c0,0.6,0,1.2,0,1.7     c0,0.3,0,0.5,0,0.8c0.3,0,0.5,0,0.7,0c1.7-0.1,3.4-0.1,5.1-0.1c-0.1-0.5-0.1-1.1-0.2-1.7c-0.1-0.9-0.1-1.7-0.2-2.7     c0-0.4-0.1-0.9-0.1-1.4c0-0.5-0.1-1-0.1-1.4c0-1-0.1-1.9-0.1-2.9c0-1-0.1-2-0.1-2.9c0-0.5,0-1,0-1.4c0-0.5,0-0.9,0-1.4     c0-0.9,0-1.8,0-2.7c0-0.8,0-1.6,0.1-2.4c0.1-1.5,0.4-2.7,0.7-3.6c0.3-0.8,0.5-1.3,0.5-1.3s0.3,0.5,0.6,1.3     c0.3,0.9,0.6,2.1,0.9,3.6c0.1,0.7,0.2,1.5,0.2,2.3c0,0.8,0.1,1.7,0.2,2.6c0,0.5,0.1,0.9,0.1,1.4c0,0.5,0,0.9,0.1,1.4     c0,1,0,2,0.1,2.9c0,1,0,2,0,2.9c0,0.5,0,1,0,1.4c0,0.5,0,0.9,0,1.4c0,0.9,0,1.8-0.1,2.6c0,0.6,0,1.2-0.1,1.7c0.7,0,1.3,0,2-0.1     c1.8-0.1,3.6-0.1,5.4-0.2c0-0.4-0.1-0.7-0.1-1.1c-0.1-0.9-0.2-1.8-0.3-2.8c0-0.5-0.1-1-0.1-1.5c-0.1-0.5-0.1-1-0.1-1.5     c-0.1-1-0.1-2.1-0.2-3.1c0-1.1-0.1-2.1-0.2-3.1c0-0.5,0-1-0.1-1.5c0-0.5,0-1,0-1.5c0-1,0-1.9-0.1-2.8c0-0.9,0-1.8,0-2.5     c0.1-1.6,0.3-2.9,0.5-3.8c0.2-0.9,0.5-1.4,0.5-1.4s0.3,0.5,0.6,1.4c0.4,0.9,0.7,2.2,1,3.7c0.1,0.8,0.2,1.6,0.3,2.5     c0.1,0.9,0.2,1.8,0.3,2.8c0.1,0.5,0.1,1,0.2,1.5c0,0.5,0.1,1,0.1,1.5c0.1,1,0.1,2.1,0.2,3.1c0,1.1,0,2.1,0.1,3.2c0,0.5,0,1,0,1.5     c0,0.5,0,1,0,1.5c0,1,0,1.9,0,2.9c0,0.4,0,0.7,0,1.1c2.5-0.1,5.1-0.2,7.5-0.3c0-0.1,0-0.2,0-0.2c-0.1-0.9-0.1-1.9-0.2-2.9     c0-0.5-0.1-1-0.1-1.5c0-0.5-0.1-1.1-0.1-1.6c0-1.1-0.1-2.2-0.1-3.2c0-1.1-0.1-2.2-0.1-3.2c0-0.5,0-1.1,0-1.6c0-0.5,0-1,0-1.5     c0-1,0-2,0-2.9c0-0.9,0-1.8,0.1-2.6c0.1-1.6,0.4-3,0.7-3.9c0.3-1,0.5-1.5,0.5-1.5s0.3,0.5,0.6,1.5c0.3,0.9,0.6,2.3,0.9,3.9     c0.1,0.8,0.2,1.7,0.2,2.6c0,0.9,0.1,1.9,0.2,2.9c0,0.5,0.1,1,0.1,1.5c0,0.5,0,1.1,0.1,1.6c0,1.1,0,2.2,0.1,3.2c0,1.1,0,2.2,0,3.2     c0,0.5,0,1.1,0,1.6c0,0.5,0,1.1,0,1.5c0,1,0,2-0.1,2.9c0,0.1,0,0.2,0,0.2c2.3-0.1,4.5-0.1,6.7-0.2c0-0.3,0-0.5,0-0.8     c0-0.9-0.1-1.9-0.1-2.9c0-0.5,0-1-0.1-1.5c0-0.5-0.1-1-0.1-1.5c-0.1-1.1-0.1-2.1-0.2-3.2c-0.1-1.1-0.2-2.1-0.2-3.2     c0-0.5-0.1-1.1-0.1-1.6c0-0.5-0.1-1.1-0.1-1.6c0-1-0.1-2-0.1-2.9c0-0.9,0-1.8,0-2.6c0.1-1.6,0.4-3,0.6-4c0.3-1,0.5-1.5,0.5-1.5     s0.3,0.5,0.6,1.5c0.3,1,0.6,2.3,0.9,3.9c0.1,0.8,0.2,1.7,0.3,2.6c0.1,0.9,0.2,1.9,0.3,2.9c0.1,0.5,0.1,1,0.2,1.5     c0,0.5,0.1,1.1,0.1,1.6c0.1,1.1,0.2,2.2,0.2,3.2c0,1.1,0.1,2.2,0.1,3.3c0,0.5,0,1.1,0,1.6c0,0.5,0,1,0,1.6c-0.1,1-0.1,2-0.2,3     c0,0.2,0,0.4-0.1,0.6c2,0,4-0.1,5.9-0.2c0-0.2,0-0.5,0-0.7c0-1-0.1-2.1-0.1-3.1c0-0.5-0.1-1.1-0.1-1.7c0-0.5,0-1.1-0.1-1.7     c0-1.1,0-2.3-0.1-3.4c0-1.2,0-2.3,0-3.4c0-0.6,0-1.1,0-1.7c0-0.6,0-1.1,0.1-1.7c0-1.1,0.1-2.1,0.1-3.1c0-1,0.1-1.9,0.2-2.8     c0.2-1.7,0.5-3.2,0.8-4.2c0.3-1,0.5-1.6,0.5-1.6s0.3,0.6,0.6,1.6c0.3,1,0.6,2.4,0.8,4.2c0.1,0.9,0.1,1.8,0.2,2.8     c0,1,0.1,2,0.1,3.1c0,0.5,0,1.1,0.1,1.7c0,0.5,0,1.1,0,1.7c0,1.2,0,2.3,0,3.5c0,1.2-0.1,2.3-0.1,3.5c0,0.5,0,1.1-0.1,1.7     c0,0.6,0,1.1-0.1,1.7c0,1.1-0.1,2.1-0.1,3.1c0,0.2,0,0.4,0,0.6c2.6-0.1,5-0.1,7.3-0.1c0-0.2,0-0.3,0-0.5     c-0.1-1.1-0.2-2.2-0.3-3.3c-0.1-0.5-0.1-1.1-0.2-1.7c0-0.6-0.1-1.2-0.1-1.8c-0.1-1.2-0.2-2.4-0.3-3.6c-0.1-1.2-0.1-2.4-0.2-3.7     c0-0.6,0-1.2-0.1-1.8c0-0.6,0-1.2,0-1.7c0-1.2,0-2.3-0.1-3.3c0-1.1,0-2,0-3c0.1-1.8,0.3-3.4,0.5-4.4c0.3-1.1,0.5-1.7,0.5-1.7     s0.3,0.6,0.6,1.7c0.4,1,0.7,2.5,1,4.4c0.2,0.9,0.2,1.9,0.3,2.9c0.1,1.1,0.2,2.2,0.3,3.3c0.1,0.5,0.1,1.1,0.2,1.7     c0,0.6,0.1,1.2,0.1,1.8c0.1,1.2,0.1,2.4,0.2,3.6c0.1,1.2,0.1,2.4,0.1,3.6c0,0.6,0,1.2,0.1,1.8c0,0.6,0,1.2,0,1.7     c0,1.2,0,2.3,0,3.3c0,0.1,0,0.3,0,0.4c2.5-0.5,5-1,7.4-1.5c0-0.2,0-0.4,0-0.5c-0.1-1-0.1-2.1-0.2-3.2c0-0.6-0.1-1.1-0.1-1.7     c0-0.5,0-1.1-0.1-1.7c0-1.2-0.1-2.3-0.1-3.5c-0.1-1.2-0.1-2.3-0.2-3.5c0-0.6-0.1-1.2-0.1-1.7c0-0.5,0-1.1,0-1.7     c0-1.1,0-2.2-0.1-3.2c0-1-0.1-2,0-2.9c0.1-1.8,0.3-3.3,0.5-4.3c0.3-1.1,0.5-1.7,0.5-1.7s0.3,0.6,0.6,1.6c0.4,1,0.7,2.5,1,4.2     c0.1,0.9,0.2,1.8,0.3,2.9c0.1,1,0.2,2.1,0.3,3.2c0.1,0.5,0.1,1.1,0.2,1.7c0,0.6,0.1,1.2,0.1,1.7c0.1,1.2,0.1,2.3,0.2,3.5     c0,1.2,0,2.4,0,3.5c0,0.6,0,1.2,0,1.8c0,0.5,0,1.1-0.1,1.7c0,1.1-0.1,2.2-0.1,3.2c3.2-0.7,6.4-1.3,9.5-2     c-0.1-0.6-0.1-1.2-0.1-1.8c-0.1-0.9-0.1-1.8-0.2-2.8c0-0.5-0.1-1-0.1-1.5c0-0.5-0.1-1-0.1-1.5c-0.1-1-0.1-2.1-0.2-3.1     c-0.1-1-0.1-2.1-0.2-3.1c0-0.5-0.1-1-0.1-1.5c0-0.5-0.1-1-0.1-1.5c-0.1-1,0-1.9-0.1-2.8c-0.1-0.9-0.2-1.7-0.2-2.5     c-0.1-1.5,0.1-2.9,0.2-3.8c0.2-1,0.4-1.5,0.4-1.5s0.4,0.5,0.8,1.4c0.4,0.8,0.9,2.1,1.3,3.7c0.2,0.8,0.4,1.6,0.5,2.5     c0.2,0.9,0.3,1.8,0.4,2.8c0.1,0.5,0.1,1,0.2,1.5c0,0.5,0.1,1,0.1,1.5c0.1,1.1,0.2,2.1,0.2,3.2c0,1.1,0,2.1,0,3.2c0,0.5,0,1,0,1.5     c0,0.5,0,1,0,1.5c0,1,0,1.9-0.1,2.8c0,0.4,0,0.9-0.1,1.3c1.8-0.4,3.6-0.7,5.3-1.1c-0.1-0.6-0.1-1.2-0.2-1.8c0-0.5-0.1-1-0.1-1.6     c0-0.5-0.1-1.1-0.1-1.6c-0.1-1.1-0.1-2.3-0.2-3.3c-0.1-1.2-0.1-2.3-0.2-3.4c0-0.6,0-1.1,0-1.7c0-0.5,0-1.1,0-1.6     c0-1.1,0-2.1,0-3.1c0-1,0-1.9,0-2.8c0.1-1.7,0.4-3.1,0.6-4.1c0.2-1,0.5-1.5,0.5-1.5s0.3,0.5,0.6,1.5c0.3,1,0.7,2.4,0.9,4.1     c0.1,0.9,0.2,1.8,0.3,2.7c0.1,1,0.2,2,0.3,3c0,0.5,0.1,1.1,0.1,1.6c0,0.5,0.1,1.1,0.1,1.6c0.1,1.1,0.1,2.3,0.2,3.3     c0,1.2,0.1,2.3,0.1,3.4c0,0.6,0,1.1,0,1.7c0,0.5,0,1.1,0,1.6c0,0.5,0,0.9,0,1.3c0.7-0.2,1.4-0.3,2.1-0.4c1.6-0.3,3.1-0.7,4.6-1     c-0.1-0.4-0.1-0.9-0.1-1.4c-0.1-0.9-0.2-1.8-0.3-2.7c0-0.5-0.1-0.9-0.1-1.4c0-0.5-0.1-1-0.1-1.5c-0.1-1-0.1-2-0.2-3     c-0.1-1-0.1-2-0.2-3c0-0.5-0.1-1-0.1-1.5c0-0.5,0-1,0-1.4c0-1-0.1-1.9-0.1-2.7c0-0.9,0-1.7,0-2.4c0.1-1.5,0.3-2.8,0.6-3.7     c0.2-0.9,0.5-1.4,0.5-1.4s0.3,0.5,0.7,1.4c0.3,0.9,0.7,2.1,1,3.6c0.1,0.7,0.2,1.5,0.3,2.4c0.1,0.9,0.2,1.8,0.3,2.7     c0,0.5,0.1,0.9,0.1,1.4c0,0.5,0.1,1,0.1,1.5c0.1,1,0.1,2,0.2,3c0,1,0.1,2,0.1,3c0,0.5,0,1,0,1.5c0,0.5,0,1,0,1.4c0,1,0,1.9,0,2.7     c0,0.3,0,0.6,0,1c2.5-0.5,5-1.1,7.4-1.6c0-0.4-0.1-0.8-0.1-1.3c0-0.5-0.1-1.1-0.1-1.7c-0.1-1.1-0.1-2.3-0.1-3.5     c-0.1-1.2-0.2-2.3-0.3-3.4c0-0.6-0.1-1.1-0.1-1.7c0-0.5,0-1.1-0.1-1.6c-0.1-1.1-0.1-2.2-0.1-3.2c0-1-0.1-1.9-0.1-2.8     c0-1.7,0.2-3.2,0.4-4.3c0.2-1.1,0.5-1.7,0.5-1.7s0.3,0.5,0.7,1.5c0.4,1,0.8,2.4,1.1,4.1c0.2,0.9,0.3,1.8,0.4,2.8     c0.1,1,0.2,2.1,0.4,3.2c0.1,0.5,0.1,1.1,0.2,1.7c0.1,0.6,0.1,1.2,0.2,1.7c0.1,1.2,0.2,2.3,0.3,3.5c0,1.2,0,2.3,0,3.5     c0,0.6,0,1.2,0,1.7c0,0.3,0,0.5,0,0.7c1.6-0.3,3.1-0.7,4.6-1c0.9-0.2,1.9-0.5,2.8-0.7c-0.1-0.5-0.2-1.1-0.2-1.6     c-0.1-0.5-0.1-1-0.2-1.4c-0.1-0.5-0.1-1-0.2-1.5c-0.1-1-0.2-2-0.4-3c-0.1-1-0.2-2-0.3-3c0-0.5-0.1-1-0.1-1.5c0-0.5-0.1-1-0.1-1.4     c-0.1-1-0.2-1.9-0.2-2.7c0-0.9-0.1-1.7,0-2.5c0.1-1.5,0.3-2.8,0.5-3.7c0.2-0.9,0.5-1.4,0.5-1.4s0.3,0.5,0.7,1.4     c0.4,0.9,0.7,2.1,1,3.6c0.1,0.7,0.2,1.5,0.3,2.4c0.1,0.8,0.3,1.7,0.4,2.7c0.1,0.5,0.2,1,0.2,1.4c0.1,0.5,0.1,1,0.2,1.5     c0.1,1,0.2,2,0.3,3c0.1,1,0.2,2,0.2,3c0,0.5,0.1,1,0.1,1.5c0,0.5,0,1,0.1,1.4c0,0.4,0,0.8,0.1,1.2c2.2-0.5,4.2-0.9,6.3-1.4     c0-0.1,0-0.1,0-0.2c-0.1-0.8-0.1-1.6-0.2-2.5c0-0.5,0-0.9,0-1.3l0-1.4c0-0.9,0-1.8,0.1-2.7c0-0.9,0-1.8,0.1-2.7l0.1-1.3     c0-0.5,0-0.9,0-1.3c0-0.8,0.1-1.6,0-2.4c0-0.7-0.1-1.4-0.1-2.1c0.1-1.4-0.1-2.4,0.1-3.3c0.1-0.8,0.2-1.4,0.2-1.4s0.4,0.4,0.9,1.1     c0.4,0.7,1.3,1.8,1.5,3.2c0.2,0.7,0.3,1.4,0.4,2.2c0.1,0.8,0.1,1.7,0.2,2.5c0,0.5,0.1,0.9,0.1,1.4c0,0.4,0,0.9,0,1.4     c0,0.9,0,1.8-0.1,2.8c-0.1,0.9-0.1,1.8-0.2,2.7l-0.1,1.3c0,0.4,0,0.9-0.1,1.3c0,0.7-0.1,1.4-0.1,2.1c1.4-0.4,2.8-0.7,4.1-1.1     c0.8-0.2,1.5-0.4,2.3-0.6c0,0,0-0.1,0-0.1c0-0.5-0.1-0.9-0.1-1.4c0-0.5-0.1-0.9-0.1-1.4c0-1-0.1-1.9-0.2-2.9c0-1-0.1-2-0.1-2.9     c0-0.5,0-1,0-1.4c0-0.5,0-0.9,0-1.4c0-0.9,0-1.8,0-2.6c0-0.8,0-1.6,0.1-2.4c0.1-1.4,0.4-2.7,0.6-3.5c0.3-0.8,0.5-1.4,0.5-1.4     s0.3,0.5,0.6,1.4c0.3,0.8,0.7,2,0.9,3.5c0.1,0.7,0.2,1.5,0.2,2.3c0.1,0.8,0.2,1.7,0.2,2.6c0,0.4,0.1,0.9,0.1,1.4     c0,0.5,0.1,0.9,0.1,1.4c0,1,0.1,1.9,0.1,2.9c0,1,0,1.9,0,2.9c0,0.5,0,1,0,1.4c0,0.3,0,0.5,0,0.8c0.8-0.2,1.6-0.4,2.3-0.7     c2.3-0.9,4.4-1.7,6.1-2.8c3.5-2,5.9-4.3,6.8-6.3c0.8-1.5,1.1-2.5,1.2-2.9c-0.1,0.4-0.3,1.5-0.9,3.1c-0.9,2.1-3.1,4.7-6.6,7     c-1.7,1.2-3.8,2.2-6.1,3.2c-0.9,0.4-1.9,0.7-2.9,1c-0.9,0.3-1.9,0.6-2.9,0.9c-0.6,0.2-1.3,0.4-2,0.6c-1.5,0.5-3.1,1-4.7,1.4     c-0.8,0.2-1.6,0.4-2.4,0.6c-2.1,0.6-4.3,1.1-6.6,1.7c-0.8,0.2-1.7,0.4-2.6,0.7c-0.8,0.2-1.6,0.4-2.4,0.6     c-1.7,0.4-3.5,0.8-5.3,1.3c-0.9,0.2-1.9,0.4-2.8,0.6c-2.5,0.6-5,1.2-7.7,1.8c-0.6,0.1-1.3,0.3-2,0.4c-1.5,0.4-3,0.7-4.5,1     c-0.9,0.2-1.8,0.4-2.7,0.6c-0.8,0.2-1.7,0.4-2.5,0.6h0c-1.9,0.4-3.9,0.9-5.9,1.3c-0.6,0.1-1.2,0.3-1.8,0.4     c-2.1,0.4-4.1,0.9-6.2,1.4c-1.3,0.3-2.5,0.6-3.8,0.9c-0.6,0.1-1.2,0.3-1.8,0.4c-0.2,0-0.3,0.1-0.5,0.1c-0.1,0-0.2,0.1-0.3,0.1     c-2.4,0.5-4.9,1.1-7.3,1.6c-0.7,0.2-1.5,0.3-2.2,0.5c-0.9,0.2-1.9,0.4-2.8,0.6c-1.8,0.4-3.7,0.8-5.5,1.2c-0.5,0.1-1,0.2-1.5,0.3     c-2.2,0.5-4.3,0.9-6.4,1.4c-0.6,0.1-1.3,0.3-1.9,0.4c-0.1,0-0.2,0-0.3,0.1c-8.4,1.8-16.8,3.6-25.2,5.6     c-9.1,2.2-18.3,4.4-27.3,6.6c-4.5,1.1-9,2.2-13.4,3.2c-4.4,1-8.8,2-13.1,2.9c-8.6,1.9-17,3.8-24.9,5.5     c-7.9,1.6-15.4,3.1-22.4,4.5c-6.9,1.3-13.3,2.5-18.9,3.6c-5.2,0.8-9.8,1.4-13.6,2h-0.4c0-0.4,0-0.8,0-1.1c0.1,0,0.2,0,0.4-0.1     c3.8-0.8,8.3-1.7,13.4-2.7c5.6-1.3,11.9-2.7,18.8-4.3c6.9-1.5,14.4-3.1,22.3-4.8c7.8-1.8,16.2-3.7,24.8-5.7c4.3-1,8.7-2,13.1-3     c4.4-1,8.9-2.1,13.4-3.2c5.4-1.3,10.8-2.6,16.2-3.9c0.1,0,0.3-0.1,0.4-0.1c3.6-0.9,7.1-1.7,10.7-2.6c5.6-1.3,11.3-2.5,16.9-3.7     c0.5-0.1,1-0.2,1.5-0.3c2.4-0.5,4.9-1,7.2-1.5h0c0.6-0.1,1.3-0.3,1.9-0.4c0,0,0.1,0,0.1,0c1.7-0.4,3.3-0.7,5-1     c-1.5,0.1-3.2,0.1-4.8,0.2c-0.7,0-1.5,0.1-2.3,0.1c-2.2,0.1-4.4,0.2-6.7,0.4c-0.1,0-0.1,0-0.2,0c-0.8,0-1.5,0.1-2.3,0.1     c-2.6,0.1-5.2,0.3-7.9,0.4c-0.7,0-1.4,0.1-2,0.1c-1.9,0.1-3.8,0.2-5.8,0.3c-0.8,0-1.6,0.1-2.4,0.1c-0.5,0-1.1,0-1.6,0.1     c-1.8,0.1-3.7,0.2-5.6,0.3c-0.3,0-0.6,0-0.9,0c-0.9,0-1.7,0.1-2.6,0.1c-2.1,0.1-4.2,0.2-6.3,0.3c-0.6,0-1.1,0.1-1.7,0.1     c-0.6,0-1.2,0.1-1.8,0.1c-2.9,0.1-5.8,0.3-8.7,0.4c-0.7,0-1.4,0-2.2,0.1c-1.9,0.1-3.8,0.1-5.7,0.2c-0.2,0-0.4,0-0.6,0     c-0.8,0-1.7,0.1-2.5,0.1c-2.1,0.1-4.2,0.2-6.2,0.2c-0.9,0-1.7,0.1-2.6,0.1c-2.6,0.1-5.2,0.2-7.8,0.2c-0.1,0-0.2,0-0.3,0     c-0.8,0-1.5,0-2.3,0.1c-2.2,0-4.3,0.1-6.5,0.1c-0.4,0-0.7,0-1.1,0c-0.5,0-1.1,0-1.7,0c-1.9,0-3.8,0.1-5.7,0.1c-0.8,0-1.5,0-2.3,0     c-0.2,0-0.4,0-0.6,0c-3.1,0.1-6.1,0.1-9,0.2c-0.8,0-1.6,0-2.3,0.1c-2.1,0-4.1,0.1-6.1,0.1c-0.6,0-1.3,0-1.9,0     c-0.9,0-1.9,0.1-2.8,0.1c-2.4,0.1-4.7,0.2-6.9,0.3c-1,0-1.9,0.1-2.8,0.1c-0.6,0-1.2,0-1.8,0.1c-2,0.1-4,0.2-5.9,0.2     c-1,0-1.9,0-2.9,0c-1.8,0-3.5,0-5.1,0c-0.2,0-0.3,0-0.5,0c-1.1,0-2.2,0-3.2,0c-0.7,0-1.4,0-2,0c-1.8-0.2-3.4-0.3-4.9-0.5     c-0.1,0-0.2,0-0.3,0c-0.8-0.1-1.5-0.1-2.2-0.2c0-0.3,0-0.6-0.1-0.9c0-0.5-0.1-1-0.1-1.5c0-1.1,0-2.3,0-3.7c0-1.3,0.1-2.7,0.1-4.1     c0-0.7,0-1.4,0-2.2c0-0.7,0.1-1.5,0.1-2.3c0.1-1.5,0.1-3.1,0.2-4.6c0-0.4,0.1-0.8,0.1-1.2c-0.3-0.2-0.6-0.4-0.9-0.6     c-1.1-0.8-2.2-1.8-3.1-3.1c-1-1.3-1.7-2.8-2.3-4.5c-0.2-0.8-0.4-1.6-0.5-2.5c-0.1-0.8-0.3-1.7-0.3-2.6c-0.1-1.7,0-3.5,0.3-5.3     c0.1-0.9,0.4-1.8,0.7-2.7c0.3-0.9,0.8-1.7,1.3-2.5c0.5-0.8,1.2-1.6,2-2.2c0.8-0.6,1.7-1.1,2.5-1.4c1.7-0.6,3.5-0.8,5.1-0.6     c1.6,0.2,3.1,0.5,4.3,1.2c0.9,0.4,1.7,0.9,2.3,1.5c0.6-1,1.4-1.9,2.3-2.8c0.8-0.7,1.6-1.4,2.6-2c0.9-0.6,2-1,3-1.4     c2.1-0.7,4.4-0.8,6.5-0.8c2.3,0.1,4.7,0.9,6.5,2.2c0.9,0.7,1.7,1.3,2.5,2.1c0.8,0.7,1.4,1.6,2,2.4c1.2,1.7,2.1,3.3,2.8,5.1     c0.6,1.4,1,2.8,1.3,4.2l0.1,0.8c0.5,3.2-0.2,5.9-1.1,7.6c-0.4,0.8-0.9,1.4-1.2,1.8c-0.2,0.3-0.4,0.4-0.5,0.5     c0-0.1,0.1-0.3,0.2-0.7c0.2-0.5,0.4-1.1,0.5-1.9c0.3-1.7,0.3-4.1-0.4-6.8c0-0.1,0-0.2-0.1-0.2c0-0.2-0.1-0.4-0.2-0.6     c-0.3-1.1-0.7-2.3-1.3-3.5c-0.6-1.5-1.6-2.9-2.6-4.3c-0.6-0.6-1.1-1.4-1.8-1.9c-0.6-0.6-1.4-1.1-2.1-1.6     c-1.5-0.9-3.1-1.4-4.8-1.5c-1.9,0-3.7,0.1-5.4,0.6c-0.8,0.3-1.6,0.6-2.3,1c-0.8,0.4-1.4,0.9-2.1,1.5c-0.9,0.9-1.8,1.9-2.4,3.1v0     c-0.2,0.3-0.4,0.5-0.5,0.8c-0.1,0.1-0.1,0.3-0.2,0.4c-0.6,1.3-1.1,2.6-1.5,3.8c-0.5,1.5-0.9,3-1.3,4.3c-0.2,0.9-0.5,1.7-0.6,2.4     c0,0.1,0,0.2-0.1,0.2c-0.5,1.7-0.8,2.7-0.8,2.7s-0.2-0.9-0.3-2.5c-0.5,0.2-0.9,0.4-1.3,0.6c-0.3,0.1-0.5,0.3-0.8,0.5     c-0.8,0.6-1.3,1.4-1.7,2.6c0,0,0,0.1-0.1,0.2c-0.2,0.5-0.4,1.2-0.5,1.9c-0.1,0.7-0.3,1.4-0.4,2.1c-0.1,1-0.2,2-0.2,3.1     c0,0.4,0,0.9,0,1.4c0,0.2,0,0.4,0,0.5c-0.1,1.3-0.1,2.7-0.2,4c0,0.7-0.1,1.5-0.1,2.2c0,0.7-0.1,1.4-0.1,2.2     c-0.1,1.4-0.2,2.8-0.3,4.1c-0.1,1.3-0.2,2.6-0.3,3.7c-0.1,0.5-0.1,0.9-0.2,1.4c0,0,0.1,0,0.1,0c1.5,0,3.1,0,4.9,0     c0.6,0,1.2-0.1,1.9-0.1c0-0.4-0.1-0.9-0.1-1.4c-0.1-1.2-0.1-2.4-0.2-3.5c0-0.6,0-1.2,0-1.7s0-1.1,0-1.7c0-1.1,0.1-2.2,0.1-3.2     c0.1-1,0.2-2,0.3-2.9c0.2-1.8,0.8-3.3,1.2-4.2c0.4-1,0.8-1.5,0.8-1.5s0.2,0.6,0.3,1.7c0.2,1.1,0.2,2.5,0.3,4.2     c0.1,0.9,0,1.8,0,2.8c0,1,0.1,2.1,0.1,3.1c0,0.5,0,1.1,0.1,1.6c0,0.6,0.1,1.1,0.1,1.7c0.1,1.2,0.1,2.3,0.2,3.5     c0,0.4,0,0.9,0.1,1.4c0.2,0,0.4,0,0.5,0c1.6-0.1,3.2-0.2,5-0.3c0-0.1,0-0.2,0-0.4l-0.1-1.4c0-0.9-0.1-1.8-0.1-2.8     c0-0.9-0.1-1.9-0.1-2.8l0-1.4c0-0.5,0-0.9,0-1.4c0-0.9,0-1.7,0-2.6c0-0.8,0-1.6,0.1-2.3c0.2-1.4,0.4-2.6,0.7-3.5     c0.3-0.8,0.5-1.3,0.5-1.3s0.3,0.5,0.6,1.3c0.3,0.8,0.6,2,0.8,3.4c0.1,0.7,0.2,1.4,0.2,2.3c0.1,0.8,0.1,1.6,0.2,2.5     c0,0.4,0.1,0.9,0.1,1.3l0.1,1.4c0.1,0.9,0.1,1.9,0.1,2.8c0,0.9,0,1.9,0,2.8c0,0.5,0,0.9,0,1.4c0,0.1,0,0.2,0,0.2     c1.8-0.1,3.7-0.3,5.6-0.4c0.5,0,1.1-0.1,1.6-0.1c0,0,0,0,0-0.1l-0.2-1.3c-0.1-0.9-0.2-1.8-0.2-2.7c0-0.9-0.1-1.8-0.1-2.8l0-1.4     c0-0.5,0-0.9,0-1.3c0-0.9,0-1.7,0-2.5c0-0.8,0-1.5,0.1-2.2c0.1-1.4,0.4-2.6,0.6-3.4c0.3-0.8,0.5-1.3,0.5-1.3s0.3,0.4,0.6,1.3     c0.3,0.8,0.7,1.9,0.9,3.3c0.1,0.7,0.2,1.4,0.3,2.2c0.1,0.8,0.1,1.6,0.2,2.5c0,0.4,0.1,0.8,0.1,1.3l0.1,1.3     c0.1,0.9,0.1,1.8,0.1,2.7c0,0.9,0.1,1.8,0.1,2.7l0,1.4v0c2.2-0.2,4.4-0.3,6.7-0.4l-0.1-1.3c-0.1-0.9-0.2-1.8-0.2-2.6     c0-0.9,0-1.8-0.1-2.7l0-1.3c0-0.5,0-0.9,0-1.3c0-0.9,0-1.7,0-2.4c0-0.8,0-1.5,0.1-2.2c0.1-1.4,0.4-2.4,0.7-3.2     c0.3-0.8,0.5-1.2,0.5-1.2s0.3,0.4,0.6,1.2c0.3,0.8,0.7,1.9,0.9,3.2c0.1,0.7,0.2,1.4,0.2,2.2c0.1,0.8,0.1,1.5,0.2,2.4     c0,0.4,0.1,0.8,0.1,1.3l0.1,1.3c0,0.9,0.1,1.8,0.1,2.6c0,0.9,0,1.8,0.1,2.7l0,1.3c0.6,0,1.2,0,1.8-0.1c1.9-0.1,3.8-0.2,5.8-0.3     c0-0.4-0.1-0.8-0.1-1.3c0-0.4-0.1-0.8-0.1-1.2l-0.1-1.2c-0.1-0.8-0.1-1.6-0.2-2.5c-0.1-0.8-0.1-1.6-0.2-2.4l-0.1-1.2     c0-0.4,0-0.8-0.1-1.2c0-0.8-0.1-1.5-0.1-2.2c-0.1-0.7-0.2-1.3-0.2-2c-0.1-1.2,0.1-2.3,0.2-3.1c0.2-0.8,0.4-1.3,0.4-1.3     s0.3,0.4,0.7,1c0.4,0.7,0.9,1.6,1.3,2.9c0.2,0.6,0.4,1.3,0.5,2c0.2,0.7,0.2,1.5,0.3,2.3c0.1,0.4,0.1,0.8,0.2,1.2l0.1,1.2     c0.1,0.8,0.1,1.7,0.2,2.5c0,0.8,0,1.7,0.1,2.5v1.2c0,0.4,0,0.8,0,1.2c0,0.4,0,0.9,0,1.3c2.8-0.1,5.7-0.2,8.6-0.2     c0-0.4-0.1-0.7-0.1-1.1C106.4,482.3,106.3,481.3,106.2,480.3z"/></g></g><path d="M364.7,435.9c0.2,0.5,0.3,0.9,0.5,1.4c6.3-2.7,12.8-2.5,19-0.3c-0.4-2.6-0.9-5.1-1.6-7.4   c-0.7-2.7-1.7-5.1-2.7-7.2c-1.1-2.3-2.3-4.2-3.6-5.8c-0.2,0.1-0.4,0.3-0.7,0.4c-1.5,0.8-2.8,1.9-4.2,2.8c-1.4,0.9-2.7,1.9-4,3   c-2.5,1.9-4.9,4-7.1,5.9c0.7,0.6,1.3,1.4,1.9,2.2C363.3,432.3,364,434,364.7,435.9z" opacity="0.4"/><path d="M361.3,468.6c-1.7,1-3.6,1.6-5.6,1.5c0.9,1.7,2,3.4,3.1,5.1c0.1,0.2,0.2,0.3,0.3,0.4   c0.1,0.1,0.2,0.3,0.3,0.4c1.6,2.3,3.6,4.4,5.8,6.1c0.6,0.2,1.4,0.3,2.1,0.4c0.4,0.1,0.8,0.1,1.2,0.1c0.3,0,0.6,0,0.9,0   c2,0,4.1-0.4,5.9-1.5c1.2-0.8,2.3-2,3.2-3.3C371.8,476.4,366,473.4,361.3,468.6z" opacity="0.4"/><path d="M381.7,478.5c-1.3,2.1-3,3.9-5.1,5.3c-2.1,1.2-4.4,1.7-6.5,1.7c3.6,1.9,7.5,3,11.5,3.7   c4.4,0.7,8.9,0.7,13.3,0.2c8.7-1,17.1-3.8,23.6-8.1c5.1-3.6,8.8-8.5,11.5-13.5c0.2-0.2,0.3-0.5,0.4-0.7c0.6-1.1,1.2-2.3,1.7-3.4   c0-0.1,0-0.1,0.1-0.1C417.9,474.2,398.2,480.8,381.7,478.5z" opacity="0.4"/><path d="M358.3,480.2c0.9,1.1,1.8,2.1,2.9,3c0.7,0.7,1.5,1.4,2.3,2c-1.2,0.8-2.4,1.7-3.8,2.4   c-1.4,0.9-3.1,1.5-4.8,2.2c-0.9,0.3-1.8,0.5-2.6,0.8c-0.9,0.3-1.8,0.4-2.8,0.5c-1.8,0.4-3.8,0.4-5.7,0.3l-2.9-0.3   c-0.9-0.2-1.9-0.4-2.8-0.6c-0.9-0.1-1.8-0.5-2.7-0.8c-0.9-0.3-1.8-0.5-2.6-1c-0.8-0.4-1.6-0.7-2.4-1.1c-0.8-0.4-1.5-0.9-2.2-1.3   c-1.5-0.8-2.7-1.9-4-2.6c-0.5-0.4-1-0.7-1.4-1c7-1.5,13.5-2.5,19.3-3.6c5.1-0.9,9.6-1.7,13.6-2.4c0.2,0.3,0.3,0.5,0.5,0.8   C356.9,478.5,357.6,479.4,358.3,480.2z" opacity="0.4"/><path d="M351,468.4c-0.6-1.3-1.2-2.5-1.7-3.8c-0.3-0.8-0.6-1.7-0.9-2.5c-1.4-3.8-2.4-7.7-3-11.7   c-0.2-1.2-0.3-2.3-0.4-3.5l-5.9,0.6v0.1c0.2,1-0.2,1.9-0.4,2.7c-0.2,0.4-0.4,0.7-0.6,1c0.3,2.3,0.7,4.6,1.4,6.9   c1.5,4.5,3.8,11.2-1.1,14.6c-4.1,2.8-8.7,5.1-13.6,7.1c6.1-1.1,11.8-1.8,17-2.5c4.9-0.6,9.4-1.2,13.3-1.7   C353.5,473.3,352.2,470.9,351,468.4z" opacity="0.4"/><path d="M344.7,440.8c-0.1-1.7-0.1-3.4-0.1-5c0.1-3.6,0.3-7.2,0.8-10.8c-1.2,0.1-2.5,0.3-3.7,0.5   c-1.9,6.1-3.4,12.3-3.8,18.6c0.1,0.2,0.2,0.3,0.3,0.5c0.4,1,0.8,1.9,0.8,2.9l5.9-0.6c-0.1-1.4-0.2-2.8-0.3-4.2   C344.7,442,344.7,441.4,344.7,440.8z" opacity="0.4"/><path d="M701.5,462.5c2.3,3.7,3.7,8,4.2,12.4c0.1,1.4,0.2,2.7,0.3,4.1c2.5-9.8,0.8-20.1-7.6-28.6   c-9.5-9.6-22.9-14.9-36.1-16.8c-24-3.5-48.1,5.6-56.2,26.6c3.7-4.3,7.6-7,10.8-9.4c3.4-2.1,6.1-3.7,8.1-4.4c1.4-0.6,2.4-1,2.8-1.2   l0.4-0.2c0.4-0.2,1.4-0.5,2.8-1.1c1-0.4,2.3-0.8,3.8-1.2c1.5-0.5,3.2-0.8,5.2-1.2c3.9-0.7,8.8-1.4,14.4-1.1   c5.6,0.2,11.9,1.4,18.5,3.4c6.5,2,13.7,4.7,20.2,9.5C696.2,455.8,699.3,458.8,701.5,462.5z" opacity="0.4"/><path d="M650.6,525.2c-22,0.6-41.3-6.8-56.2-23.3c-10.1-11.2-19-20.8-35-21.8c-11.3-0.7-22.8,1-34.1-0.1   c-11.6-1.1-20.8-5.8-30.8-11.5c-8.1-4.6-16.1-8.7-25.5-9.6c-5.8-0.6-11.5-0.9-17.3-1.7c-1-0.1-1.5-1.6-1-2.4   c3.5-5.3,7.7-9.9,11.4-14.9c-2.5-1.3-4.7-2.7-6.6-3.8c-1,1.3-2.1,2.5-3.1,3.7c-4.9,5.9-10,10.6-14.7,13.8   c-0.6,3.5-1.7,7.2-3.2,10.9c-0.3,0.7-0.6,1.4-0.9,2c1.9-0.2,4-0.4,6.2-0.6c6.9-0.5,15.4-1,25,0.4c4.9,0.7,9.8,1.7,15.1,2.8   c2.7,0.5,5.4,1.4,8.2,2.1c1.4,0.5,2.7,1.1,4.1,1.7c1.4,0.6,2.8,1.2,4.1,2c5.3,3,9.9,7.2,15.4,10c2.7,1.5,5.6,2.2,8.6,2.5   c3.2-0.1,6.5-0.3,9.8-0.8c6.6-0.9,13.6-2.4,21-2c7.4,0.4,14.7,2.4,21.5,6.1c3.3,1.9,6.6,4.1,9.3,6.9c2.8,2.7,5.2,5.4,8,8   c2.7,2.7,5.5,5.3,8.3,7.8c1.4,1.4,2.8,2.5,4.3,3.7l2.2,1.8c0.7,0.5,1.6,1,2.4,1.6c6.5,4.1,13.3,7.9,20.5,10.7   c7.2,2.6,14.7,4.7,22.5,4.8c1.9,0.2,3.8,0.2,5.8,0.1c1.9-0.1,3.9,0,5.8-0.3c3.8-0.5,7.7-1,11.3-2.2c3.8-0.8,7.3-2.4,10.8-3.8   c3.3-1.9,6.8-3.4,9.8-5.9c6.4-4.2,11.5-9.8,16.1-15.6c0.5-0.8,1-1.5,1.4-2.3C694.4,519.9,672.4,526.1,650.6,525.2z" opacity="0.4"/><path d="M446.4,425.5c-1.8-7.7-5.8-13.9-9.9-20.5c-0.2,0.1-0.5,0.1-0.7,0.2c-2.8,0.6-5.4,1.1-7.8,1.5   c1,1.2,1.8,2.4,2.5,3.5c0.8,1.4,1.6,2.6,2,3.6c0.7,1.6,1.2,2.6,1.3,3l0.1,0.3c0.1,0.2,0.5,1.3,1.3,3.2c0.8,2.1,1.8,5.3,2.6,9.5   c0.9,5.5,1.5,12.9,0.3,21.4c2.5-2.1,5-4.6,7.6-7.5C447.1,437.6,447.8,431.6,446.4,425.5z" opacity="0.4"/><path d="M661.7,281.5c-14.4-6.5-32.1-5.9-47.2-1.9c-13.3,3.5-30.8,10.3-37.5,23.3c-4.7,9-4.3,18.7-0.5,27.2   c-0.9-5.9-0.8-11.6,1.1-16.3c2.6-5.2,5.7-8.8,8.2-11.9c2.8-2.9,5-5.1,6.8-6.3c1.3-1,2.1-1.6,2.4-1.8l0.2-0.2   c0.2-0.2,1.1-0.8,2.6-1.9c0.8-0.6,2-1.3,3.3-2.1c1.3-0.8,2.9-1.6,4.7-2.5c3.6-1.7,8.2-3.5,13.7-4.6c5.5-1.3,11.9-1.6,18.7-1.3   c6.8,0.3,14.4,1.1,21.9,4.2c3.7,1.5,7.4,3.6,10.5,6.7c3.1,3,5.6,6.8,7.1,10.9c0.5,1.4,1,2.9,1.4,4.4   C677.9,296.2,673,286.7,661.7,281.5z" opacity="0.4"/><path d="M690.6,316.1c-0.2-2.6-0.6-5.1-1.2-7.7c0.4,14.9-6.2,30.3-16.6,41.3c-10,10.6-22.2,19-35.5,24.9   c-13.2,5.9-25.4,4.9-37.8-2c-14.9-8.3-29.5-17.6-47.2-17c-13.5,0.5-26.2,5.3-37.3,13c-12.2,8.5-22.5,19.2-31.7,30.9   c2.5-2.5,5.4-4.8,8.1-7.2c5.7-5.1,12-9.5,18.2-14.1c6.3-4.5,13.1-8.7,20.4-11.3c0.9-0.3,1.8-0.7,2.7-1l2.8-0.7l2.8-0.7l2.8-0.4   c1.9-0.3,3.8-0.6,5.6-0.6c1.9-0.1,3.7-0.3,5.6-0.2c7.3-0.1,14.5,1.4,20.8,3.7c3.1,1.3,6.1,2.5,8.9,4.1c2.8,1.4,5.3,3.1,7.8,4.7   c7.5,5,13.7,9.8,18.7,13.2c1.6-0.4,3.4-0.8,5.2-1.3c0.5-0.1,1-0.3,1.5-0.4c0.8-0.2,1.6-0.5,2.5-0.7c4-1.2,8.3-2.7,13-4.5   c0.8-0.3,1.5-0.6,2.3-1c1.2-0.5,2.4-1,3.7-1.5c8.7-3.6,18.2-8.4,27.3-15.6c8.9-7.2,17.8-16.5,23-28.6   C689.7,329.4,691.2,322.9,690.6,316.1z" opacity="0.4"/><path d="M745.4,267c-0.1-0.3-0.2-0.6-0.3-0.8c-8.7,2.1-16.8,5-25.2,9.7c-8.3,4.7-16.7,11.2-26.1,13.3   c-0.9,0.2-1.6-0.3-2-1.1c-0.8-1.9-1.8-3.6-2.9-5.2c-1.1,0.4-2.2,0.8-3.2,1.2c-1.4,0.5-2.6,0.8-3.9,1.1c2.3,3.1,4.2,6.3,5.9,9.7   c0.6,1.4,1.3,2.8,1.8,4.2c0.7-0.7,1.5-1.5,2.3-2.2c1.6-1.4,3.5-2.7,5.5-4.1c2-1.3,4.2-2.6,6.5-3.9c1.1-0.6,2.3-1.3,3.4-2   c1.2-0.6,2.3-1.3,3.5-2c2.3-1.4,4.8-2.7,7.3-3.9c2.4-1.3,5-2.4,7.5-3.6c1.3-0.6,2.6-1,3.8-1.5c1.3-0.5,2.5-1,3.7-1.4   c2.5-0.7,5-1.5,7.3-2.2c2.1-0.4,4.1-0.9,6-1.3c-0.2-0.8-0.4-1.6-0.6-2.4C745.8,268,745.6,267.5,745.4,267z" opacity="0.4"/><path d="M618.9,389.6l0.3,0.8l0.3,0.8c0.1,0.2,0.1,0.5,0.2,0.7c4.4-0.8,8.7-1.9,12.9-3.4l-0.4-1.4l-0.2-0.9l-0.2-0.8   c-0.1-0.5-0.2-1.1-0.4-1.6c0,0,0-0.1,0-0.1c-4.7,1.7-9.1,3-13.1,4.1c0,0.1,0.1,0.3,0.1,0.4C618.5,388.5,618.7,389,618.9,389.6z" opacity="0.4"/><path d="M359.8,463.3c-0.5,2.5-2.2,4.2-3.9,3.9c-1.7-0.3-2.6-2.6-2.1-5.1c0.5-2.5,2.2-4.2,3.9-3.9   C359.3,458.6,360.3,460.8,359.8,463.3z" fill="#FFFFFF"/><path d="M369.9,439.7c-2.9,5-7.2,8-9.5,6.6c-2.3-1.4-1.9-6.5,1.1-11.5c2.9-5,7.2-8,9.5-6.6   C373.3,429.6,372.9,434.7,369.9,439.7z" fill="#FFFFFF"/><path d="M73.7,458.6c0-0.5,0-1-0.1-1.5c0-0.5-0.2-1.1-0.3-1.6l-0.3-0.8c-0.1-0.3-0.2-0.5-0.3-0.8   c-0.2-0.5-0.6-1-0.9-1.5c-0.4-0.5-0.7-1-1.1-1.4c-0.2-0.2-0.4-0.5-0.6-0.6l-0.6-0.6c-0.5-0.3-0.9-0.7-1.4-0.9   c-0.5-0.3-0.9-0.5-1.3-0.7c-0.2-0.1-0.4-0.2-0.5-0.3c-1.9,2.8-4.7,6.5-4.4,9.6c0.3,2.7,4.4,3,6.4,3c1.8,0,3.6-0.1,5.4-0.3   C73.7,459.7,73.7,459.2,73.7,458.6z" opacity="0.4"/><path d="M49.2,455.6c-0.1-0.2-0.2-0.4-0.4-0.5l-0.4-0.5c-0.3-0.4-0.5-0.7-0.7-1c-0.3-0.3-0.5-0.6-0.7-0.9   c0-0.1-0.1-0.1-0.1-0.2c-2.4,2.1-3.3,5.4-2.9,8.6c0.2,0.5,0.5,1.1,0.8,1.5c0.6,0.9,1.3,1.7,2,2.4c0-0.2,0.1-0.4,0.1-0.5   c0.1-0.8,0.3-1.5,0.5-2.3c0.2-0.8,0.4-1.5,0.8-2.3c0.4-1,1-2,1.7-2.7l-0.1-0.3C49.7,456.4,49.4,456,49.2,455.6z" opacity="0.4"/><path d="M327.3,451.4c0,0-26.5,12.3-239.7,36.6l26.6-0.5l85.2-2.7l31.9-2.4l79.9-18   C311.3,464.5,326,457.8,327.3,451.4z" opacity="0.4"/><linearGradient gradientUnits="userSpaceOnUse" id="SVGID_1_" x1="157.1991" x2="149.1578" y1="430.7827" y2="613.5885"><stop offset="0" style="stop-color:#FFFFFF"/><stop offset="1" style="stop-color:#FFFFFF;stop-opacity:0"/></linearGradient><path d="M165.7,484.5l26.3-45.7c-3.1,0.3-6.2,0.7-9.3,1.1c-7.2,1.1-14.5,0.9-21.7,1.7   c-5.9,0.6-11.5,2.3-17.3,3.2l-24.1,42.1C135,486.4,150.4,485.4,165.7,484.5z" fill="url(#SVGID_1_)" opacity="0.5"/><linearGradient gradientUnits="userSpaceOnUse" id="SVGID_2_" x1="129.9548" x2="121.9136" y1="429.5827" y2="612.3868"><stop offset="0" style="stop-color:#FFFFFF"/><stop offset="1" style="stop-color:#FFFFFF;stop-opacity:0"/></linearGradient><path d="M143.1,521.8c0.5-0.1,0.9-0.2,1.4-0.3l13.9-24.2c-2.8,0.5-5.6,1.1-8.4,1.8   c-14.8,3.8-29.6,7.6-44.3,11.9l-11.7,20.3C110.3,527.6,126.8,525.2,143.1,521.8z" fill="url(#SVGID_2_)" opacity="0.5"/><linearGradient gradientUnits="userSpaceOnUse" id="SVGID_3_" x1="180.9591" x2="172.9189" y1="431.8359" y2="614.6185"><stop offset="0" style="stop-color:#FFFFFF"/><stop offset="1" style="stop-color:#FFFFFF;stop-opacity:0"/></linearGradient><path d="M183.7,511.9l11.4-22.9c-6.7,1.5-13.3,3.8-20.1,5.2c-0.8,0.2-1.5,0.3-2.3,0.4   l-12.4,23.1C168.2,515.9,176,513.9,183.7,511.9z" fill="url(#SVGID_3_)" opacity="0.5"/><linearGradient gradientUnits="userSpaceOnUse" id="SVGID_4_" x1="201.1341" x2="193.0935" y1="432.7186" y2="615.5115"><stop offset="0" style="stop-color:#FFFFFF"/><stop offset="1" style="stop-color:#FFFFFF;stop-opacity:0"/></linearGradient><path d="M198,483.4l23.3-46.5c-6,0.4-12.1,0.7-18.1,1.1l-24.6,46   C185,483.6,191.5,483.4,198,483.4z" fill="url(#SVGID_4_)" opacity="0.5"/></g></svg>